#N canvas 1663 204 1246 724 10;
#X floatatom -86 253 5 0 0 0 - - -, f 5;
#X obj -335 279 expr~ max(min($v1 \, $f2/10) \, -$f2/10);
#X obj -335 200 *~ 0.3;
#X obj -288 71 sig~;
#X obj -291 98 lop~ 1;
#X obj 102 273 s \$0-high;
#X obj 172 273 s \$0-mid;
#X obj 235 273 s \$0-low;
#N canvas 282 93 539 663 3-eq 0;
#X obj 80 36 inlet~ signal;
#X obj 225 580 outlet~;
#X obj 306 454 r \$0-gain;
#N canvas 0 50 462 312 rh_scalelog 0;
#X obj 20 155 exp;
#X obj 20 107 *;
#X obj 20 130 +;
#X obj 98 87 log;
#X obj 194 84 log;
#X obj 123 123 t b f;
#X obj 123 145 -;
#X obj 20 183 outlet;
#X obj 20 19 inlet;
#X obj 98 23 inlet;
#X obj 194 24 inlet;
#X connect 0 0 7 0;
#X connect 1 0 2 0;
#X connect 2 0 0 0;
#X connect 3 0 2 1;
#X connect 3 0 5 0;
#X connect 4 0 6 0;
#X connect 5 0 6 0;
#X connect 5 1 6 1;
#X connect 6 0 1 1;
#X connect 8 0 1 0;
#X connect 9 0 3 0;
#X connect 10 0 4 0;
#X restore 305 542 pd rh_scalelog;
#X msg 352 518 0.1;
#X msg 398 518 10;
#X obj 225 553 *~;
#N canvas 425 113 825 687 using 0;
#X obj 66 25 inlet~;
#X obj 66 80 biquad~ 1.86972 -0.872325 0.000650245 0.00130049 0.000650245
;
#X text 185 59 lo x3;
#X obj 66 100 biquad~ 1.86972 -0.872325 0.000650245 0.00130049 0.000650245
;
#X obj 66 120 biquad~ 1.86972 -0.872325 0.000650245 0.00130049 0.000650245
;
#X obj 194 172 biquad~ 1.36591 -0.385279 0.307361 0 -0.307361;
#X text 329 152 mid x3;
#X obj 194 192 biquad~ 1.36591 -0.385279 0.307361 0 -0.307361;
#X obj 194 212 biquad~ 1.36591 -0.385279 0.307361 0 -0.307361;
#X obj 336 263 biquad~ 1.63386 -0.729864 0.840931 -1.68186 0.840931
;
#X text 476 241 hi x2;
#X obj 336 283 biquad~ 1.63386 -0.729864 0.840931 -1.68186 0.840931
;
#N canvas 65 81 454 304 scalelog 0;
#X obj 20 155 exp;
#X obj 20 107 *;
#X obj 20 130 +;
#X obj 98 87 log;
#X obj 194 84 log;
#X obj 123 123 t b f;
#X obj 123 145 -;
#X obj 20 183 outlet;
#X obj 20 19 inlet;
#X obj 100 51 inlet;
#X obj 205 47 inlet;
#X floatatom 144 187 5 0 0 0 - - -, f 5;
#X floatatom 83 153 5 0 0 0 - - -, f 5;
#X floatatom 126 214 5 0 0 0 - - -, f 5;
#X floatatom 110 236 5 0 0 0 - - -, f 5;
#X floatatom 170 164 5 0 0 0 - - -, f 5;
#X connect 0 0 7 0;
#X connect 0 0 11 0;
#X connect 1 0 2 0;
#X connect 1 0 13 0;
#X connect 2 0 0 0;
#X connect 2 0 14 0;
#X connect 3 0 2 1;
#X connect 3 0 5 0;
#X connect 4 0 6 0;
#X connect 5 0 6 0;
#X connect 5 1 6 1;
#X connect 6 0 1 1;
#X connect 6 0 15 0;
#X connect 8 0 1 0;
#X connect 8 0 12 0;
#X connect 9 0 3 0;
#X connect 10 0 4 0;
#X restore 409 404 pd scalelog;
#X obj 334 369 *~ 1;
#X obj 192 369 *~ 1;
#X obj 67 369 *~ 1;
#X obj 397 307 r \$0-high;
#X msg 433 369 0.2;
#N canvas 0 50 454 304 scalelog 0;
#X obj 20 155 exp;
#X obj 20 107 *;
#X obj 20 130 +;
#X obj 98 87 log;
#X obj 194 84 log;
#X obj 123 123 t b f;
#X obj 123 145 -;
#X obj 20 183 outlet;
#X obj 20 19 inlet;
#X obj 100 51 inlet;
#X obj 205 47 inlet;
#X connect 0 0 7 0;
#X connect 1 0 2 0;
#X connect 2 0 0 0;
#X connect 3 0 2 1;
#X connect 3 0 5 0;
#X connect 4 0 6 0;
#X connect 5 0 6 0;
#X connect 5 1 6 1;
#X connect 6 0 1 1;
#X connect 8 0 1 0;
#X connect 9 0 3 0;
#X connect 10 0 4 0;
#X restore 419 516 pd scalelog;
#X msg 443 481 0.2;
#X obj 412 432 r \$0-mid;
#N canvas 0 50 454 304 scalelog 0;
#X obj 20 155 exp;
#X obj 20 107 *;
#X obj 20 130 +;
#X obj 98 87 log;
#X obj 194 84 log;
#X obj 123 123 t b f;
#X obj 123 145 -;
#X obj 20 183 outlet;
#X obj 20 19 inlet;
#X obj 100 51 inlet;
#X obj 205 47 inlet;
#X connect 0 0 7 0;
#X connect 1 0 2 0;
#X connect 2 0 0 0;
#X connect 3 0 2 1;
#X connect 3 0 5 0;
#X connect 4 0 6 0;
#X connect 5 0 6 0;
#X connect 5 1 6 1;
#X connect 6 0 1 1;
#X connect 8 0 1 0;
#X connect 9 0 3 0;
#X connect 10 0 4 0;
#X restore 429 626 pd scalelog;
#X msg 453 591 0.2;
#X obj 422 542 r \$0-low;
#X obj 119 472 outlet~;
#X obj 355 346 - 0.2;
#X obj 215 344 - 0.2;
#X obj 88 344 - 0.2;
#X msg 486 591 7.5;
#X msg 476 480 7.5;
#X msg 466 369 7.5;
#X obj 433 345 r \$0-loadbang;
#X obj 443 458 r \$0-loadbang;
#X obj 453 567 r \$0-loadbang;
#X floatatom 594 368 5 0 0 0 - - -, f 5;
#X floatatom 568 439 5 0 0 0 - - -, f 5;
#X floatatom 586 510 5 0 0 0 - - -, f 5;
#X connect 0 0 1 0;
#X connect 0 0 5 0;
#X connect 0 0 9 0;
#X connect 1 0 3 0;
#X connect 3 0 4 0;
#X connect 4 0 15 0;
#X connect 5 0 7 0;
#X connect 7 0 8 0;
#X connect 8 0 14 0;
#X connect 9 0 11 0;
#X connect 11 0 13 0;
#X connect 12 0 25 0;
#X connect 12 0 36 0;
#X connect 13 0 24 0;
#X connect 14 0 24 0;
#X connect 15 0 24 0;
#X connect 16 0 12 0;
#X connect 16 0 34 0;
#X connect 17 0 12 1;
#X connect 18 0 26 0;
#X connect 19 0 18 1;
#X connect 20 0 18 0;
#X connect 20 0 35 0;
#X connect 21 0 27 0;
#X connect 22 0 21 1;
#X connect 23 0 21 0;
#X connect 25 0 13 1;
#X connect 26 0 14 1;
#X connect 27 0 15 1;
#X connect 28 0 21 2;
#X connect 29 0 18 2;
#X connect 30 0 12 2;
#X connect 31 0 17 0;
#X connect 31 0 30 0;
#X connect 32 0 19 0;
#X connect 32 0 29 0;
#X connect 33 0 22 0;
#X connect 33 0 28 0;
#X restore 89 174 pd using raw biquad~ objects;
#X obj 352 490 r \$0-loadbang;
#X connect 0 0 7 0;
#X connect 2 0 3 0;
#X connect 3 0 6 1;
#X connect 4 0 3 1;
#X connect 5 0 3 2;
#X connect 6 0 1 0;
#X connect 7 0 6 0;
#X connect 8 0 4 0;
#X connect 8 0 5 0;
#X restore -336 228 pd 3-eq;
#X obj 297 273 s \$0-gain;
#X obj 102 125 vsl 10 60 0 1 0 0 empty empty empty 0 -9 0 10 -258113
-1 -1 2100 1;
#X obj 130 125 vsl 10 60 0 1 0 0 empty empty empty 0 -9 0 10 -258113
-1 -1 2900 1;
#X obj 114 125 vsl 10 60 0 1 0 0 empty empty empty 0 -9 0 10 -258113
-1 -1 2900 1;
#X obj 145 125 vsl 10 60 0 1 0 0 empty empty empty 0 -9 0 10 -4034
-1 -1 5900 1;
#X obj 218 325 s \$0-loadbang;
#X obj 253 306 loadbang;
#X obj -445 197 inlet~;
#X obj -186 152 outlet~;
#X obj -336 102 +~;
#X obj -335 135 vd~ \$0-fad;
#X obj -334 350 delwrite~ \$0-fad 1000;
#X obj -337 32 inlet~;
#X obj -86 201 r \$0-loadbang;
#X msg -86 229 0.35;
#X obj -288 32 r \$0-freq;
#X obj -277 165 r \$0-fb;
#X obj 167 124 vsl 10 60 0 1 0 0 empty empty empty 0 -9 0 10 -261682
-1 -1 3300 1;
#X obj 181 124 vsl 10 60 0 1 0 0 empty empty empty 0 -9 0 10 -261682
-1 -1 4300 1;
#X obj 395 271 s \$0-freq;
#X obj 468 269 s \$0-fb;
#X obj -277 188 + 0.9;
#X obj -288 52 * 100;
#X obj 277 72 inlet;
#X obj 277 93 route high mid low gain freq fb;
#X obj 212 227 +;
#X obj 564 173 +;
#X obj 574 183 +;
#X obj 584 193 +;
#X obj 594 203 +;
#X obj 228 186 t b f;
#X obj 256 228 +;
#X obj 272 187 t b f;
#X obj 299 224 +;
#X obj 315 183 t b f;
#X obj 344 228 +;
#X obj 367 183 t b f;
#X obj 408 237 +;
#X obj 418 187 t b f;
#X obj 462 234 +;
#X obj 472 184 t b f;
#X connect 0 0 1 1;
#X connect 1 0 20 0;
#X connect 2 0 8 0;
#X connect 3 0 4 0;
#X connect 4 0 18 1;
#X connect 8 0 1 0;
#X connect 10 0 34 0;
#X connect 11 0 42 0;
#X connect 12 0 40 0;
#X connect 13 0 44 0;
#X connect 15 0 14 0;
#X connect 16 0 20 0;
#X connect 18 0 19 0;
#X connect 19 0 2 0;
#X connect 19 0 17 0;
#X connect 21 0 18 0;
#X connect 22 0 23 0;
#X connect 23 0 0 0;
#X connect 24 0 31 0;
#X connect 25 0 30 0;
#X connect 26 0 46 0;
#X connect 27 0 48 0;
#X connect 30 0 2 1;
#X connect 31 0 3 0;
#X connect 32 0 33 0;
#X connect 33 0 39 0;
#X connect 33 1 41 0;
#X connect 33 2 43 0;
#X connect 33 3 45 0;
#X connect 33 4 47 0;
#X connect 33 5 49 0;
#X connect 34 0 5 0;
#X connect 39 0 34 0;
#X connect 39 1 34 1;
#X connect 40 0 6 0;
#X connect 41 0 40 0;
#X connect 41 1 40 1;
#X connect 42 0 7 0;
#X connect 43 0 42 0;
#X connect 43 1 42 1;
#X connect 44 0 9 0;
#X connect 45 0 44 0;
#X connect 45 1 44 1;
#X connect 46 0 28 0;
#X connect 47 0 46 0;
#X connect 47 1 46 1;
#X connect 48 0 29 0;
#X connect 49 0 48 0;
#X connect 49 1 48 1;
#X coords 0 -1 1 1 100 90 1 100 100;
