#N canvas 65 151 732 617 10;
#X obj 77 17 r \$0-pattern-vis;
#N canvas 143 102 927 686 \$0-pattern 0;
#N canvas 710 92 650 686 pattern 0;
#X obj 101 49 moses 8;
#X obj 145 71 % 8;
#X obj 101 21 % 16;
#X obj 281 73 r \$0-update-grid;
#N canvas 296 392 450 300 mod 0;
#X msg 30 120 mod \$1;
#X obj 30 -16 inlet;
#X msg 91 196 mod \$1;
#X obj 163 109 % 8;
#X obj 30 147 outlet;
#X obj 91 216 outlet;
#X obj 30 32 moses 9;
#X obj 91 32 moses 8;
#X obj 130 68 sel 16;
#X msg 130 108 8;
#X msg 91 106 0;
#X obj 91 70 t b;
#X obj 49 94 8;
#X obj 49 68 t b;
#X connect 0 0 4 0;
#X connect 1 0 6 0;
#X connect 1 0 7 0;
#X connect 2 0 5 0;
#X connect 3 0 2 0;
#X connect 6 0 0 0;
#X connect 6 1 13 0;
#X connect 7 0 11 0;
#X connect 7 1 8 0;
#X connect 8 0 9 0;
#X connect 8 1 3 0;
#X connect 9 0 2 0;
#X connect 10 0 2 0;
#X connect 11 0 10 0;
#X connect 12 0 0 0;
#X connect 13 0 12 0;
#X restore 161 41 pd mod;
#X obj 161 19 r \$0-beat-mod;
#X obj 101 268 s \$0-beat-seq;
#X obj 101 100 g_grid8x8 \$0-pattern 0;
#X obj 196 100 g_grid8x8 \$0-pattern 1;
#X obj 101 -3 r \$0-squaver;
#X connect 0 0 7 0;
#X connect 0 1 1 0;
#X connect 1 0 8 0;
#X connect 2 0 0 0;
#X connect 3 0 7 0;
#X connect 3 0 8 0;
#X connect 4 0 7 0;
#X connect 4 1 8 0;
#X connect 5 0 4 0;
#X connect 5 0 2 1;
#X connect 7 0 6 0;
#X connect 8 0 6 0;
#X connect 9 0 2 0;
#X coords 0 -1 1 1 193 110 1 100 100;
#X restore 7 -224 pd pattern;
#X obj 415 -6 s \$0-clear-all;
#X obj 415 -33 bng 15 250 50 0 empty empty empty 17 7 0 10 -262144
-1 -1;
#N canvas 865 281 450 300 grid-functions 0;
#N canvas 501 423 450 300 clear 0;
#X obj 9 -34 r \$0-clear-all;
#X obj 69 46 \$0;
#X obj 9 -9 t b b;
#X msg 9 75 update;
#X obj 9 126 s \$0-update-grid;
#X msg 69 66 \; \$1-beat-pattern const 9 \; \$1-quaver-pattern const
9 \; \$1-squaver-pattern const 9 \;;
#X obj 122 -9 t b b;
#X msg 255 65 \; \$1-beat-speed const 0 \; \$1-quaver-speed const 0
\; \$1-squaver-speed const 0 \;;
#X obj 255 42 \$0;
#X obj 122 -34 r \$0-clear-speed;
#X obj 263 -26 loadbang;
#X connect 0 0 2 0;
#X connect 1 0 5 0;
#X connect 2 0 3 0;
#X connect 2 1 1 0;
#X connect 3 0 4 0;
#X connect 6 0 3 0;
#X connect 6 1 8 0;
#X connect 8 0 7 0;
#X connect 9 0 6 0;
#X connect 10 0 2 0;
#X connect 10 0 6 0;
#X restore 42 32 pd clear;
#N canvas 579 401 1197 617 open 0;
#X obj 16 -10 pack s \$0 \$1;
#X msg 16 16 \$2 \$1 \$3;
#X msg 20 61 \; \$1-beat-pattern-store read \$2-\$3beat-pattern.txt
;
#X msg 22 108 \; \$1-quaver-pattern-store read \$2-\$3quaver-pattern.txt
;
#X msg 18 149 \; \$1-squaver-pattern-store read \$2-\$3squaver-pattern.txt
;
#X msg 16 186 \; \$1-beat-speed-store read \$2-\$3beat-speed.txt;
#X msg 18 233 \; \$1-quaver-speed-store read \$2-\$3quaver-speed.txt
;
#X msg 14 272 \; \$1-squaver-speed-store read \$2-\$3squaver-speed.txt
;
#X obj 563 -134 r \$0-openPattern;
#X obj 16 -38 r \$0-openSeq;
#X obj 547 20 s \$0-update-grid;
#X msg 547 -18 update;
#X msg 420 64 \; \$1-beat-pattern read \$2-beat-seq.txt;
#X msg 428 103 \; \$1-quaver-pattern read \$2-quaver-seq.txt;
#X msg 437 140 \; \$1-squaver-pattern read \$2-squaver-seq.txt;
#X msg 413 186 \; \$1-beat-speed read \$2-beat-speed-seq.txt;
#X msg 421 224 \; \$1-quaver-speed read \$2-quaver-speed-seq.txt;
#X msg 430 262 \; \$1-squaver-speed read \$2-squaver-speed-seq.txt
;
#X msg 780 64 \; \$1-beat-pattern-omit read \$2-beat-seq-omit.txt;
#X msg 788 103 \; \$1-quaver-pattern-omit read \$2-quaver-seq-omit.txt
;
#X msg 797 141 \; \$1-squaver-pattern-omit read \$2-squaver-seq-omit.txt
;
#X msg 773 185 \; \$1-beat-speed-omit read \$2-beat-speed-omit.txt
;
#X msg 781 225 \; \$1-quaver-speed-omit read \$2-quaver-speed-omit.txt
;
#X msg 790 262 \; \$1-squaver-speed-omit read \$2-squaver-speed-omit.txt
;
#X msg 563 -83 \$2 \$1;
#X obj 563 -106 pack s \$0;
#X obj 563 -55 t b l;
#X obj 523 -39 t b b;
#N canvas 619 366 1301 714 updateSliders 0;
#X obj 13 -2 inlet;
#X obj 13 874 s beat\$1-speed;
#X obj 28 813 s beat\$1-vari;
#X obj 58 685 s quaver\$1-vari;
#X obj 43 746 s quaver\$1-speed;
#X obj 88 558 s squaver\$1-vari;
#X obj 73 624 s squaver\$1-speed;
#X obj 28 792 tabread \$0-beat-speed;
#X obj 13 854 tabread \$0-beat-speed;
#X obj 58 664 tabread \$0-quaver-speed;
#X obj 43 726 tabread \$0-quaver-speed;
#X obj 88 537 tabread \$0-squaver-speed;
#X obj 73 604 tabread \$0-squaver-speed;
#X msg 13 834 16;
#X msg 28 771 17;
#X msg 43 706 16;
#X msg 58 644 17;
#X msg 73 584 16;
#X msg 88 516 17;
#X obj 136 425 tabread \$0-beat-pattern;
#X msg 104 451 17;
#X msg 136 405 18;
#X obj 104 472 tabread \$0-beat-pattern;
#X obj 136 447 s \$0-BPM;
#X obj 104 494 s \$0-repeatlength;
#X msg 187 226 16;
#X obj 187 251 tabread \$0-beat-pattern;
#X obj 187 273 s \$0-beat-mod;
#X msg 156 270 16;
#X obj 156 295 tabread \$0-quaver-pattern;
#X msg 145 338 16;
#X obj 145 363 tabread \$0-squaver-pattern;
#X obj 145 385 s \$0-squaver-mod;
#X obj 156 317 s \$0-quaver-mod;
#X obj 193 163 s \$0-interrupt;
#X obj 193 141 tabread \$0-beat-pattern;
#X msg 193 117 19;
#X msg 363 107 20;
#X msg 513 105 19;
#X obj 363 163 s \$0-clockMode;
#X obj 363 131 tabread \$0-beat-pattern;
#X obj 513 129 tabread \$0-beat-speed;
#X obj 513 161 s \$0-scale;
#X obj 663 128 tabread \$0-beat-speed;
#X msg 663 104 20;
#X obj 663 194 s \$0-randompatternreceive;
#X msg 827 104 21;
#X obj 827 128 tabread \$0-beat-pattern;
#X obj 827 194 s \$0-randomtrigger;
#X obj 13 34 t b b b b b b b b b b b b b b b b;
#X floatatom 394 207 5 0 0 0 - - -;
#X connect 0 0 49 0;
#X connect 7 0 2 0;
#X connect 8 0 1 0;
#X connect 9 0 3 0;
#X connect 10 0 4 0;
#X connect 11 0 5 0;
#X connect 12 0 6 0;
#X connect 13 0 8 0;
#X connect 14 0 7 0;
#X connect 15 0 10 0;
#X connect 16 0 9 0;
#X connect 17 0 12 0;
#X connect 18 0 11 0;
#X connect 19 0 23 0;
#X connect 20 0 22 0;
#X connect 21 0 19 0;
#X connect 22 0 24 0;
#X connect 25 0 26 0;
#X connect 26 0 27 0;
#X connect 28 0 29 0;
#X connect 29 0 33 0;
#X connect 30 0 31 0;
#X connect 31 0 32 0;
#X connect 35 0 34 0;
#X connect 36 0 35 0;
#X connect 37 0 40 0;
#X connect 38 0 41 0;
#X connect 40 0 39 0;
#X connect 40 0 50 0;
#X connect 41 0 42 0;
#X connect 43 0 45 0;
#X connect 44 0 43 0;
#X connect 46 0 47 0;
#X connect 47 0 48 0;
#X connect 49 0 13 0;
#X connect 49 1 14 0;
#X connect 49 2 15 0;
#X connect 49 3 16 0;
#X connect 49 4 17 0;
#X connect 49 5 18 0;
#X connect 49 6 20 0;
#X connect 49 7 21 0;
#X connect 49 8 30 0;
#X connect 49 9 28 0;
#X connect 49 10 25 0;
#X connect 49 11 36 0;
#X connect 49 12 37 0;
#X connect 49 13 38 0;
#X connect 49 14 44 0;
#X connect 49 15 46 0;
#X restore 410 22 pd updateSliders;
#X connect 0 0 1 0;
#X connect 1 0 2 0;
#X connect 1 0 3 0;
#X connect 1 0 4 0;
#X connect 1 0 5 0;
#X connect 1 0 6 0;
#X connect 1 0 7 0;
#X connect 8 0 25 0;
#X connect 9 0 0 0;
#X connect 11 0 10 0;
#X connect 24 0 26 0;
#X connect 25 0 24 0;
#X connect 26 0 27 0;
#X connect 26 1 18 0;
#X connect 26 1 19 0;
#X connect 26 1 21 0;
#X connect 26 1 12 0;
#X connect 26 1 20 0;
#X connect 26 1 22 0;
#X connect 26 1 23 0;
#X connect 26 1 13 0;
#X connect 26 1 14 0;
#X connect 26 1 15 0;
#X connect 26 1 16 0;
#X connect 26 1 17 0;
#X connect 27 0 28 0;
#X connect 27 1 11 0;
#X restore 42 71 pd open;
#N canvas 542 87 650 686 store 0;
#N canvas 65 54 1301 714 beat 0;
#X obj 1098 54 table \$0-beat-pattern-store 1024;
#X obj 158 10 r \$0-store-index;
#X obj 182 121 +;
#X obj 5 179 tabwrite \$0-beat-pattern-store;
#X obj 5 93 tabread \$0-beat-pattern;
#X obj 5 63 t f f;
#X text 266 -60 <----save;
#X obj 16 361 tabread \$0-beat-pattern-store;
#X obj 111 220 r \$0-store-index;
#X obj 16 329 +;
#X obj 16 218 r \$0-load;
#X obj 16 421 tabwrite \$0-beat-pattern;
#X obj 16 287 t f f;
#X obj 264 318 s \$0-update-grid;
#X msg 264 282 update;
#X obj 158 34 moses 0;
#X obj 111 262 moses 0;
#X obj 1097 34 table \$0-beat-pattern-omit 16;
#X obj 232 362 moses 17;
#X obj 278 381 moses 18;
#X obj 232 604 tabread \$0-beat-pattern-store;
#X obj 277 564 tabread \$0-beat-pattern-store;
#X obj 322 521 tabread \$0-beat-pattern-store;
#X obj 232 426 +;
#X obj 277 437 +;
#X obj 322 448 +;
#X obj 322 544 s \$0-BPM;
#X obj 277 585 s \$0-repeat-length;
#X obj 232 624 s \$0-beat-mod;
#X obj 420 32 r \$0-store-index;
#X obj 444 143 +;
#X obj 267 201 tabwrite \$0-beat-pattern-store;
#X obj 267 85 t f f;
#X obj 267 -44 r \$0-save;
#X obj 267 57 iterate 16;
#X obj 420 56 moses 0;
#X obj 5 35 iterate 19;
#X obj 459 118 + 19;
#X obj 197 93 * 35;
#X obj 459 99 * 35;
#X obj 150 312 * 35;
#X obj 16 265 iterate 35;
#X obj 412 444 +;
#X obj 412 465 tabread \$0-beat-pattern-store;
#X obj 412 420 t f f;
#X obj 412 496 tabwrite \$0-beat-pattern-omit 16;
#X obj 267 115 tabread \$0-beat-pattern-omit;
#X obj 16 241 t b b;
#X obj 407 258 \$0;
#X msg 407 286 \; \$1-beat-pattern-omit const 1;
#X obj 399 236 bng 15 250 50 0 empty empty empty 17 7 0 10 -262144
-1 -1;
#X obj 550 63 iterate;
#X obj 611 16 r \$0-preset-sum;
#X msg 550 42 8;
#X obj 550 105 iterate 16;
#X obj 550 198 tabwrite \$0-beat-pattern-store;
#X obj 742 159 + 19;
#X obj 742 118 * 35;
#X msg 550 159 1;
#X obj 550 131 t b f;
#X obj 727 179 +;
#X obj 550 13 loadbang;
#X obj 550 83 t b f;
#X obj 733 279 tabwrite \$0-beat-pattern-store;
#X obj 920 247 tabwrite \$0-beat-pattern-store;
#X obj 1133 290 tabwrite \$0-beat-pattern-store;
#X obj 759 207 + 16;
#X obj 1032 155 + 17;
#X obj 1283 155 + 18;
#X obj 742 138 t f f f f;
#X obj 847 239 t b f;
#X obj 1032 191 t b f;
#X obj 1283 226 t b f;
#X text 776 189 Mod;
#X msg 733 256 16;
#X text 973 180 Reps;
#X text 1137 159 BPM;
#X msg 920 228 16;
#X obj 1133 243 120;
#X obj 16 309 moses 16;
#X obj 367 398 moses 19;
#X text 614 59 Set Omit Pattern Const to 1;
#X obj 175 -31 t b b;
#X obj 327 174 print;
#X obj 312 150 pack;
#X msg 495 64 0;
#X obj 601 460 - 19;
#X obj 1097 14 table \$0-beat-pattern 22;
#X connect 1 0 15 0;
#X connect 2 0 3 1;
#X connect 4 0 3 0;
#X connect 5 0 4 0;
#X connect 5 1 2 0;
#X connect 7 0 11 0;
#X connect 8 0 16 0;
#X connect 9 0 7 0;
#X connect 10 0 47 0;
#X connect 12 0 79 0;
#X connect 12 1 11 1;
#X connect 14 0 13 0;
#X connect 15 1 38 0;
#X connect 16 1 40 0;
#X connect 18 0 23 0;
#X connect 18 1 19 0;
#X connect 19 0 24 0;
#X connect 19 1 80 0;
#X connect 20 0 28 0;
#X connect 21 0 27 0;
#X connect 22 0 26 0;
#X connect 23 0 20 0;
#X connect 24 0 21 0;
#X connect 25 0 22 0;
#X connect 29 0 35 0;
#X connect 30 0 31 1;
#X connect 30 0 84 1;
#X connect 32 0 46 0;
#X connect 32 1 30 0;
#X connect 33 0 82 0;
#X connect 34 0 32 0;
#X connect 35 1 39 0;
#X connect 36 0 5 0;
#X connect 37 0 30 1;
#X connect 38 0 2 1;
#X connect 39 0 37 0;
#X connect 40 0 9 1;
#X connect 40 0 23 1;
#X connect 40 0 24 1;
#X connect 40 0 25 1;
#X connect 40 0 42 1;
#X connect 41 0 12 0;
#X connect 42 0 43 0;
#X connect 43 0 45 0;
#X connect 44 0 42 0;
#X connect 44 1 86 0;
#X connect 46 0 31 0;
#X connect 46 0 84 0;
#X connect 47 0 41 0;
#X connect 47 1 48 0;
#X connect 48 0 49 0;
#X connect 50 0 48 0;
#X connect 51 0 62 0;
#X connect 52 0 51 0;
#X connect 53 0 51 0;
#X connect 54 0 59 0;
#X connect 54 0 60 0;
#X connect 56 0 60 1;
#X connect 57 0 69 0;
#X connect 58 0 55 0;
#X connect 59 0 58 0;
#X connect 60 0 55 1;
#X connect 61 0 53 0;
#X connect 62 0 54 0;
#X connect 62 1 57 0;
#X connect 66 0 70 0;
#X connect 67 0 71 0;
#X connect 68 0 72 0;
#X connect 69 0 56 0;
#X connect 69 1 66 0;
#X connect 69 2 67 0;
#X connect 69 3 68 0;
#X connect 70 0 74 0;
#X connect 70 1 63 1;
#X connect 71 0 77 0;
#X connect 71 1 64 1;
#X connect 72 0 78 0;
#X connect 72 1 65 1;
#X connect 74 0 63 0;
#X connect 77 0 64 0;
#X connect 78 0 65 0;
#X connect 79 0 9 0;
#X connect 79 1 18 0;
#X connect 80 0 25 0;
#X connect 80 1 44 0;
#X connect 82 0 34 0;
#X connect 82 1 36 0;
#X connect 84 0 83 0;
#X connect 85 0 39 0;
#X connect 86 0 45 1;
#X restore -35 -4 pd beat;
#N canvas 65 54 1301 714 quaver 0;
#X obj 168 20 r \$0-store-index;
#X obj 192 131 +;
#X obj 15 73 t f f;
#X text 184 -59 <----save;
#X obj 121 230 r \$0-store-index;
#X obj 26 339 +;
#X obj 26 228 r \$0-load;
#X obj 26 297 t f f;
#X obj 274 328 s \$0-update-grid;
#X msg 274 292 update;
#X obj 168 44 moses 0;
#X obj 121 272 moses 0;
#X obj 242 372 moses 17;
#X obj 288 391 moses 18;
#X obj 242 436 +;
#X obj 287 447 +;
#X obj 332 458 +;
#X obj 332 554 s \$0-BPM;
#X obj 287 595 s \$0-repeat-length;
#X obj 430 42 r \$0-store-index;
#X obj 454 153 +;
#X obj 277 95 t f f;
#X obj 185 -43 r \$0-save;
#X obj 277 67 iterate 16;
#X obj 430 66 moses 0;
#X obj 15 45 iterate 19;
#X obj 469 128 + 19;
#X obj 207 103 * 35;
#X obj 469 109 * 35;
#X obj 160 322 * 35;
#X obj 26 275 iterate 35;
#X obj 422 454 +;
#X obj 422 430 t f f;
#X obj 26 251 t b b;
#X obj 417 268 \$0;
#X obj 409 246 bng 15 250 50 0 empty empty empty 17 7 0 10 -262144
-1 -1;
#X obj 560 73 iterate;
#X obj 621 26 r \$0-preset-sum;
#X msg 560 52 8;
#X obj 560 115 iterate 16;
#X obj 752 169 + 19;
#X obj 752 128 * 35;
#X msg 560 169 1;
#X obj 560 141 t b f;
#X obj 737 189 +;
#X obj 560 23 loadbang;
#X obj 560 93 t b f;
#X obj 769 217 + 16;
#X obj 1106 180 + 17;
#X obj 1293 165 + 18;
#X obj 752 148 t f f f f;
#X obj 857 249 t b f;
#X obj 1042 201 t b f;
#X obj 1293 236 t b f;
#X text 786 199 Mod;
#X msg 743 266 16;
#X text 983 190 Reps;
#X text 1147 169 BPM;
#X msg 929 206 16;
#X obj 1143 253 120;
#X obj 26 319 moses 16;
#X obj 377 408 moses 19;
#X text 624 69 Set Omit Pattern Const to 1;
#X obj 185 -21 t b b;
#X obj 337 184 print;
#X obj 322 160 pack;
#X msg 505 74 0;
#X obj 623 472 - 19;
#X obj 15 103 tabread \$0-quaver-pattern;
#X obj 277 125 tabread \$0-quaver-pattern-omit;
#X obj 277 211 tabwrite \$0-quaver-pattern-store;
#X obj 560 208 tabwrite \$0-quaver-pattern-store;
#X obj 743 289 tabwrite \$0-quaver-pattern-store;
#X obj 929 225 tabwrite \$0-quaver-pattern-store;
#X obj 1143 300 tabwrite \$0-quaver-pattern-store;
#X obj 1107 24 table \$0-quaver-pattern 19;
#X obj 1107 44 table \$0-quaver-pattern-omit 16;
#X obj 1108 64 table \$0-quaver-pattern-store 1024;
#X obj 422 475 tabread \$0-quaver-pattern-store;
#X obj 422 506 tabwrite \$0-quaver-pattern-omit 16;
#X obj 332 531 tabread \$0-quaver-pattern-store;
#X obj 287 574 tabread \$0-quaver-pattern-store;
#X obj 242 614 tabread \$0-quaver-pattern-store;
#X obj 26 431 tabwrite \$0-quaver-pattern;
#X obj 26 371 tabread \$0-quaver-pattern-store;
#X obj 15 189 tabwrite \$0-quaver-pattern-store;
#X msg 417 296 \; \$1-quaver-pattern-omit const 1;
#X obj 242 634 s \$0-quaver-mod;
#X connect 0 0 10 0;
#X connect 1 0 85 1;
#X connect 2 0 68 0;
#X connect 2 1 1 0;
#X connect 4 0 11 0;
#X connect 5 0 84 0;
#X connect 6 0 33 0;
#X connect 7 0 60 0;
#X connect 7 1 83 1;
#X connect 9 0 8 0;
#X connect 10 1 27 0;
#X connect 11 1 29 0;
#X connect 12 0 14 0;
#X connect 12 1 13 0;
#X connect 13 0 15 0;
#X connect 13 1 61 0;
#X connect 14 0 82 0;
#X connect 15 0 81 0;
#X connect 16 0 80 0;
#X connect 19 0 24 0;
#X connect 20 0 65 1;
#X connect 20 0 70 1;
#X connect 21 0 69 0;
#X connect 21 1 20 0;
#X connect 22 0 63 0;
#X connect 23 0 21 0;
#X connect 24 1 28 0;
#X connect 25 0 2 0;
#X connect 26 0 20 1;
#X connect 27 0 1 1;
#X connect 28 0 26 0;
#X connect 29 0 5 1;
#X connect 29 0 14 1;
#X connect 29 0 15 1;
#X connect 29 0 16 1;
#X connect 29 0 31 1;
#X connect 30 0 7 0;
#X connect 31 0 78 0;
#X connect 32 0 31 0;
#X connect 32 1 67 0;
#X connect 33 0 30 0;
#X connect 33 1 34 0;
#X connect 34 0 86 0;
#X connect 35 0 34 0;
#X connect 36 0 46 0;
#X connect 37 0 36 0;
#X connect 38 0 36 0;
#X connect 39 0 43 0;
#X connect 39 0 44 0;
#X connect 40 0 44 1;
#X connect 41 0 50 0;
#X connect 42 0 71 0;
#X connect 43 0 42 0;
#X connect 44 0 71 1;
#X connect 45 0 38 0;
#X connect 46 0 39 0;
#X connect 46 1 41 0;
#X connect 47 0 51 0;
#X connect 48 0 52 0;
#X connect 49 0 53 0;
#X connect 50 0 40 0;
#X connect 50 1 47 0;
#X connect 50 2 48 0;
#X connect 50 3 49 0;
#X connect 51 0 55 0;
#X connect 51 1 72 1;
#X connect 52 0 58 0;
#X connect 52 1 73 1;
#X connect 53 0 59 0;
#X connect 53 1 74 1;
#X connect 55 0 72 0;
#X connect 58 0 73 0;
#X connect 59 0 74 0;
#X connect 60 0 5 0;
#X connect 60 1 12 0;
#X connect 61 0 16 0;
#X connect 61 1 32 0;
#X connect 63 0 23 0;
#X connect 63 1 25 0;
#X connect 65 0 64 0;
#X connect 66 0 28 0;
#X connect 67 0 79 1;
#X connect 68 0 85 0;
#X connect 69 0 65 0;
#X connect 69 0 70 0;
#X connect 78 0 79 0;
#X connect 80 0 17 0;
#X connect 81 0 18 0;
#X connect 82 0 87 0;
#X connect 84 0 83 0;
#X restore -35 18 pd quaver;
#N canvas 65 54 1301 714 squaver 0;
#X obj 178 30 r \$0-store-index;
#X obj 202 141 +;
#X obj 25 83 t f f;
#X text 194 -49 <----save;
#X obj 131 240 r \$0-store-index;
#X obj 36 349 +;
#X obj 36 238 r \$0-load;
#X obj 36 307 t f f;
#X obj 284 338 s \$0-update-grid;
#X msg 284 302 update;
#X obj 178 54 moses 0;
#X obj 131 282 moses 0;
#X obj 252 382 moses 17;
#X obj 298 401 moses 18;
#X obj 252 446 +;
#X obj 297 457 +;
#X obj 342 468 +;
#X obj 342 564 s \$0-BPM;
#X obj 297 605 s \$0-repeat-length;
#X obj 440 52 r \$0-store-index;
#X obj 464 163 +;
#X obj 287 105 t f f;
#X obj 195 -33 r \$0-save;
#X obj 287 77 iterate 16;
#X obj 440 76 moses 0;
#X obj 25 55 iterate 19;
#X obj 479 138 + 19;
#X obj 217 113 * 35;
#X obj 479 119 * 35;
#X obj 170 332 * 35;
#X obj 36 285 iterate 35;
#X obj 432 464 +;
#X obj 432 440 t f f;
#X obj 36 261 t b b;
#X obj 427 278 \$0;
#X obj 419 256 bng 15 250 50 0 empty empty empty 17 7 0 10 -262144
-1 -1;
#X obj 570 83 iterate;
#X obj 631 36 r \$0-preset-sum;
#X msg 570 62 8;
#X obj 570 125 iterate 16;
#X obj 762 179 + 19;
#X obj 762 138 * 35;
#X msg 570 179 1;
#X obj 570 151 t b f;
#X obj 747 199 +;
#X obj 570 33 loadbang;
#X obj 570 103 t b f;
#X obj 779 227 + 16;
#X obj 1116 190 + 17;
#X obj 1303 175 + 18;
#X obj 762 158 t f f f f;
#X obj 867 259 t b f;
#X obj 1052 211 t b f;
#X obj 1303 246 t b f;
#X text 796 209 Mod;
#X msg 753 276 16;
#X text 993 200 Reps;
#X text 1157 179 BPM;
#X msg 939 216 16;
#X obj 1153 263 120;
#X obj 36 329 moses 16;
#X obj 387 418 moses 19;
#X text 634 79 Set Omit Pattern Const to 1;
#X obj 195 -11 t b b;
#X obj 347 194 print;
#X obj 332 170 pack;
#X msg 515 84 0;
#X obj 633 482 - 19;
#X obj 25 199 tabwrite \$0-squaver-pattern-store;
#X obj 25 113 tabread \$0-squaver-pattern;
#X obj 287 135 tabread \$0-squaver-pattern-omit;
#X obj 287 221 tabwrite \$0-squaver-pattern-store;
#X obj 570 218 tabwrite \$0-squaver-pattern-store;
#X obj 753 299 tabwrite \$0-squaver-pattern-store;
#X obj 939 235 tabwrite \$0-squaver-pattern-store;
#X obj 1153 310 tabwrite \$0-squaver-pattern-store;
#X obj 1117 34 table \$0-squaver-pattern 19;
#X obj 1117 54 table \$0-squaver-pattern-omit 16;
#X obj 1118 74 table \$0-squaver-pattern-store 1024;
#X obj 36 381 tabread \$0-squaver-pattern-store;
#X obj 36 439 tabwrite \$0-squaver-pattern;
#X msg 427 306 \; \$1-squaver-pattern-omit const 1;
#X obj 432 485 tabread \$0-squaver-pattern-store;
#X obj 432 516 tabwrite \$0-squaver-pattern-omit 16;
#X obj 342 541 tabread \$0-squaver-pattern-store;
#X obj 297 584 tabread \$0-squaver-pattern-store;
#X obj 252 624 tabread \$0-squaver-pattern-store;
#X obj 252 644 s \$0-squaver-mod;
#X connect 0 0 10 0;
#X connect 1 0 68 1;
#X connect 2 0 69 0;
#X connect 2 1 1 0;
#X connect 4 0 11 0;
#X connect 5 0 79 0;
#X connect 6 0 33 0;
#X connect 7 0 60 0;
#X connect 7 1 80 1;
#X connect 9 0 8 0;
#X connect 10 1 27 0;
#X connect 11 1 29 0;
#X connect 12 0 14 0;
#X connect 12 1 13 0;
#X connect 13 0 15 0;
#X connect 13 1 61 0;
#X connect 14 0 86 0;
#X connect 15 0 85 0;
#X connect 16 0 84 0;
#X connect 19 0 24 0;
#X connect 20 0 65 1;
#X connect 20 0 71 1;
#X connect 21 0 70 0;
#X connect 21 1 20 0;
#X connect 22 0 63 0;
#X connect 23 0 21 0;
#X connect 24 1 28 0;
#X connect 25 0 2 0;
#X connect 26 0 20 1;
#X connect 27 0 1 1;
#X connect 28 0 26 0;
#X connect 29 0 5 1;
#X connect 29 0 14 1;
#X connect 29 0 15 1;
#X connect 29 0 16 1;
#X connect 29 0 31 1;
#X connect 30 0 7 0;
#X connect 31 0 82 0;
#X connect 32 0 31 0;
#X connect 32 1 67 0;
#X connect 33 0 30 0;
#X connect 33 1 34 0;
#X connect 34 0 81 0;
#X connect 35 0 34 0;
#X connect 36 0 46 0;
#X connect 37 0 36 0;
#X connect 38 0 36 0;
#X connect 39 0 43 0;
#X connect 39 0 44 0;
#X connect 40 0 44 1;
#X connect 41 0 50 0;
#X connect 42 0 72 0;
#X connect 43 0 42 0;
#X connect 44 0 72 1;
#X connect 45 0 38 0;
#X connect 46 0 39 0;
#X connect 46 1 41 0;
#X connect 47 0 51 0;
#X connect 48 0 52 0;
#X connect 49 0 53 0;
#X connect 50 0 40 0;
#X connect 50 1 47 0;
#X connect 50 2 48 0;
#X connect 50 3 49 0;
#X connect 51 0 55 0;
#X connect 51 1 73 1;
#X connect 52 0 58 0;
#X connect 52 1 74 1;
#X connect 53 0 59 0;
#X connect 53 1 75 1;
#X connect 55 0 73 0;
#X connect 58 0 74 0;
#X connect 59 0 75 0;
#X connect 60 0 5 0;
#X connect 60 1 12 0;
#X connect 61 0 16 0;
#X connect 61 1 32 0;
#X connect 63 0 23 0;
#X connect 63 1 25 0;
#X connect 65 0 64 0;
#X connect 66 0 28 0;
#X connect 67 0 83 1;
#X connect 69 0 68 0;
#X connect 70 0 65 0;
#X connect 70 0 71 0;
#X connect 79 0 80 0;
#X connect 82 0 83 0;
#X connect 84 0 17 0;
#X connect 85 0 18 0;
#X connect 86 0 87 0;
#X restore -35 37 pd squaver;
#N canvas 65 54 1301 714 beat-speed 0;
#X obj 158 10 r \$0-store-index;
#X obj 182 121 +;
#X obj 5 63 t f f;
#X text 266 -60 <----save;
#X obj 111 220 r \$0-store-index;
#X obj 16 329 +;
#X obj 16 218 r \$0-load;
#X obj 16 287 t f f;
#X obj 264 318 s \$0-update-grid;
#X msg 264 282 update;
#X obj 158 34 moses 0;
#X obj 111 262 moses 0;
#X obj 232 362 moses 17;
#X obj 278 381 moses 18;
#X obj 232 426 +;
#X obj 277 437 +;
#X obj 322 448 +;
#X obj 322 544 s \$0-BPM;
#X obj 420 32 r \$0-store-index;
#X obj 444 143 +;
#X obj 267 85 t f f;
#X obj 267 -44 r \$0-save;
#X obj 267 57 iterate 16;
#X obj 420 56 moses 0;
#X obj 5 35 iterate 19;
#X obj 459 118 + 19;
#X obj 197 93 * 35;
#X obj 459 99 * 35;
#X obj 150 312 * 35;
#X obj 16 265 iterate 35;
#X obj 412 444 +;
#X obj 412 420 t f f;
#X obj 16 241 t b b;
#X obj 407 258 \$0;
#X msg 407 286 \; \$1-beat-pattern-omit const 1;
#X obj 399 236 bng 15 250 50 0 empty empty empty 17 7 0 10 -262144
-1 -1;
#X obj 550 63 iterate;
#X obj 611 16 r \$0-preset-sum;
#X msg 550 42 8;
#X obj 550 105 iterate 16;
#X obj 742 159 + 19;
#X obj 742 118 * 35;
#X msg 550 159 1;
#X obj 550 131 t b f;
#X obj 727 179 +;
#X obj 550 13 loadbang;
#X obj 550 83 t b f;
#X obj 759 207 + 16;
#X obj 1096 170 + 17;
#X obj 1283 155 + 18;
#X obj 742 138 t f f f f;
#X obj 847 239 t b f;
#X obj 1032 191 t b f;
#X obj 1283 226 t b f;
#X text 776 189 Mod;
#X text 896 181 Reps;
#X text 1137 159 BPM;
#X obj 1145 243 120;
#X obj 16 309 moses 16;
#X obj 367 398 moses 19;
#X text 614 59 Set Omit Pattern Const to 1;
#X obj 175 -31 t b b;
#X obj 327 174 print;
#X obj 312 150 pack;
#X msg 495 64 0;
#X obj 601 460 - 19;
#X obj 5 177 tabwrite \$0-beat-speed-store;
#X obj 267 201 tabwrite \$0-beat-speed-store;
#X obj 550 198 tabwrite \$0-beat-speed-store;
#X obj 709 299 tabwrite \$0-beat-speed-store;
#X obj 894 235 tabwrite \$0-beat-speed-store;
#X obj 1145 290 tabwrite \$0-beat-speed-store;
#X obj 16 361 tabread \$0-beat-speed-store;
#X obj 16 421 tabwrite \$0-beat-speed;
#X obj 1097 34 table \$0-beat-speed-omit 16;
#X obj 1098 54 table \$0-beat-speed-store 1024;
#X obj 267 115 tabread \$0-beat-speed-omit;
#X obj 5 93 tabread \$0-beat-speed;
#X obj 232 604 tabread \$0-beat-speed-store;
#X obj 277 564 tabread \$0-beat-speed-store;
#X obj 322 521 tabread \$0-beat-speed-store;
#X obj 412 496 tabwrite \$0-beat-speed-omit 16;
#X obj 412 465 tabread \$0-beat-speed-store;
#X obj 232 624 s beat\$1-speed;
#X obj 277 585 s beat\$1-vari;
#X msg 709 276 0;
#X msg 894 216 0;
#X obj 1097 14 table \$0-beat-speed 21;
#X connect 0 0 10 0;
#X connect 1 0 66 1;
#X connect 2 0 77 0;
#X connect 2 1 1 0;
#X connect 4 0 11 0;
#X connect 5 0 72 0;
#X connect 6 0 32 0;
#X connect 7 0 58 0;
#X connect 7 1 73 1;
#X connect 9 0 8 0;
#X connect 10 1 26 0;
#X connect 11 1 28 0;
#X connect 12 0 14 0;
#X connect 12 1 13 0;
#X connect 13 0 15 0;
#X connect 13 1 59 0;
#X connect 14 0 78 0;
#X connect 15 0 79 0;
#X connect 16 0 80 0;
#X connect 18 0 23 0;
#X connect 19 0 63 1;
#X connect 19 0 67 1;
#X connect 20 0 76 0;
#X connect 20 1 19 0;
#X connect 21 0 61 0;
#X connect 22 0 20 0;
#X connect 23 1 27 0;
#X connect 24 0 2 0;
#X connect 25 0 19 1;
#X connect 26 0 1 1;
#X connect 27 0 25 0;
#X connect 28 0 5 1;
#X connect 28 0 14 1;
#X connect 28 0 15 1;
#X connect 28 0 16 1;
#X connect 28 0 30 1;
#X connect 29 0 7 0;
#X connect 30 0 82 0;
#X connect 31 0 30 0;
#X connect 31 1 65 0;
#X connect 32 0 29 0;
#X connect 32 1 33 0;
#X connect 33 0 34 0;
#X connect 35 0 33 0;
#X connect 36 0 46 0;
#X connect 37 0 36 0;
#X connect 38 0 36 0;
#X connect 39 0 43 0;
#X connect 39 0 44 0;
#X connect 40 0 44 1;
#X connect 41 0 50 0;
#X connect 42 0 68 0;
#X connect 43 0 42 0;
#X connect 44 0 68 1;
#X connect 45 0 38 0;
#X connect 46 0 39 0;
#X connect 46 1 41 0;
#X connect 47 0 51 0;
#X connect 48 0 52 0;
#X connect 49 0 53 0;
#X connect 50 0 40 0;
#X connect 50 1 47 0;
#X connect 50 2 48 0;
#X connect 50 3 49 0;
#X connect 51 0 85 0;
#X connect 51 1 69 1;
#X connect 52 0 86 0;
#X connect 52 1 70 1;
#X connect 53 0 57 0;
#X connect 53 1 71 1;
#X connect 57 0 71 0;
#X connect 58 0 5 0;
#X connect 58 1 12 0;
#X connect 59 0 16 0;
#X connect 59 1 31 0;
#X connect 61 0 22 0;
#X connect 61 1 24 0;
#X connect 63 0 62 0;
#X connect 64 0 27 0;
#X connect 65 0 81 1;
#X connect 72 0 73 0;
#X connect 76 0 63 0;
#X connect 76 0 67 0;
#X connect 77 0 66 0;
#X connect 78 0 83 0;
#X connect 79 0 84 0;
#X connect 80 0 17 0;
#X connect 82 0 81 0;
#X connect 85 0 69 0;
#X connect 86 0 70 0;
#X restore 42 -4 pd beat-speed;
#N canvas 65 54 1301 714 quaver-speed 0;
#X obj 168 20 r \$0-store-index;
#X obj 192 131 +;
#X obj 15 73 t f f;
#X text 276 -50 <----save;
#X obj 121 230 r \$0-store-index;
#X obj 26 339 +;
#X obj 26 228 r \$0-load;
#X obj 26 297 t f f;
#X obj 274 328 s \$0-update-grid;
#X msg 274 292 update;
#X obj 168 44 moses 0;
#X obj 121 272 moses 0;
#X obj 242 372 moses 17;
#X obj 288 391 moses 18;
#X obj 242 436 +;
#X obj 287 447 +;
#X obj 332 458 +;
#X obj 332 554 s \$0-BPM;
#X obj 430 42 r \$0-store-index;
#X obj 454 153 +;
#X obj 277 95 t f f;
#X obj 277 -34 r \$0-save;
#X obj 277 67 iterate 16;
#X obj 430 66 moses 0;
#X obj 15 45 iterate 19;
#X obj 469 128 + 19;
#X obj 207 103 * 35;
#X obj 469 109 * 35;
#X obj 160 322 * 35;
#X obj 26 275 iterate 35;
#X obj 422 454 +;
#X obj 422 430 t f f;
#X obj 26 251 t b b;
#X obj 417 268 \$0;
#X obj 409 246 bng 15 250 50 0 empty empty empty 17 7 0 10 -262144
-1 -1;
#X obj 560 73 iterate;
#X obj 621 26 r \$0-preset-sum;
#X msg 560 52 8;
#X obj 560 115 iterate 16;
#X obj 752 169 + 19;
#X obj 752 128 * 35;
#X msg 560 169 1;
#X obj 560 141 t b f;
#X obj 737 189 +;
#X obj 560 23 loadbang;
#X obj 560 93 t b f;
#X obj 769 217 + 16;
#X obj 1106 180 + 17;
#X obj 1293 165 + 18;
#X obj 752 148 t f f f f;
#X obj 857 249 t b f;
#X obj 1042 201 t b f;
#X obj 1293 236 t b f;
#X text 786 199 Mod;
#X text 906 191 Reps;
#X text 1147 169 BPM;
#X obj 1155 253 120;
#X obj 26 319 moses 16;
#X obj 377 408 moses 19;
#X text 624 69 Set Omit Pattern Const to 1;
#X obj 185 -21 t b b;
#X obj 337 184 print;
#X obj 322 160 pack;
#X msg 505 74 0;
#X obj 611 470 - 19;
#X msg 719 286 0;
#X msg 904 226 0;
#X obj 1107 24 table \$0-quaver-speed 19;
#X obj 1107 44 table \$0-quaver-speed-omit 16;
#X obj 1108 64 table \$0-quaver-speed-store 1024;
#X obj 15 187 tabwrite \$0-quaver-speed-store;
#X obj 277 211 tabwrite \$0-quaver-speed-store;
#X obj 15 103 tabread \$0-quaver-speed;
#X obj 277 125 tabread \$0-quaver-speed-omit;
#X obj 560 208 tabwrite \$0-quaver-speed-store;
#X obj 719 309 tabwrite \$0-quaver-speed-store;
#X obj 904 245 tabwrite \$0-quaver-speed-store;
#X obj 1155 300 tabwrite \$0-quaver-speed-store;
#X obj 25 371 tabread \$0-quaver-speed-store;
#X obj 25 431 tabwrite \$0-quaver-speed;
#X msg 417 296 \; \$1-quaver-speed-omit const 1;
#X obj 242 634 s quaver\$1-speed;
#X obj 287 595 s quaver\$1-vari;
#X obj 422 475 tabread \$0-quaver-speed-store;
#X obj 422 506 tabwrite \$0-quaver-speed-omit 16;
#X obj 287 574 tabread \$0-quaver-speed-store;
#X obj 332 531 tabread \$0-quaver-speed-store;
#X obj 242 614 tabread \$0-quaver-speed-store;
#X connect 0 0 10 0;
#X connect 1 0 70 1;
#X connect 2 0 72 0;
#X connect 2 1 1 0;
#X connect 4 0 11 0;
#X connect 5 0 78 0;
#X connect 6 0 32 0;
#X connect 7 0 57 0;
#X connect 7 1 79 1;
#X connect 9 0 8 0;
#X connect 10 1 26 0;
#X connect 11 1 28 0;
#X connect 12 0 14 0;
#X connect 12 1 13 0;
#X connect 13 0 15 0;
#X connect 13 1 58 0;
#X connect 14 0 87 0;
#X connect 15 0 85 0;
#X connect 16 0 86 0;
#X connect 18 0 23 0;
#X connect 19 0 62 1;
#X connect 19 0 71 1;
#X connect 20 0 73 0;
#X connect 20 1 19 0;
#X connect 21 0 60 0;
#X connect 22 0 20 0;
#X connect 23 1 27 0;
#X connect 24 0 2 0;
#X connect 25 0 19 1;
#X connect 26 0 1 1;
#X connect 27 0 25 0;
#X connect 28 0 5 1;
#X connect 28 0 14 1;
#X connect 28 0 15 1;
#X connect 28 0 16 1;
#X connect 28 0 30 1;
#X connect 29 0 7 0;
#X connect 30 0 83 0;
#X connect 31 0 30 0;
#X connect 31 1 64 0;
#X connect 32 0 29 0;
#X connect 32 1 33 0;
#X connect 33 0 80 0;
#X connect 34 0 33 0;
#X connect 35 0 45 0;
#X connect 36 0 35 0;
#X connect 37 0 35 0;
#X connect 38 0 42 0;
#X connect 38 0 43 0;
#X connect 39 0 43 1;
#X connect 40 0 49 0;
#X connect 41 0 74 0;
#X connect 42 0 41 0;
#X connect 43 0 74 1;
#X connect 44 0 37 0;
#X connect 45 0 38 0;
#X connect 45 1 40 0;
#X connect 46 0 50 0;
#X connect 47 0 51 0;
#X connect 48 0 52 0;
#X connect 49 0 39 0;
#X connect 49 1 46 0;
#X connect 49 2 47 0;
#X connect 49 3 48 0;
#X connect 50 0 65 0;
#X connect 50 1 75 1;
#X connect 51 0 66 0;
#X connect 51 1 76 1;
#X connect 52 0 56 0;
#X connect 52 1 77 1;
#X connect 56 0 77 0;
#X connect 57 0 5 0;
#X connect 57 1 12 0;
#X connect 58 0 16 0;
#X connect 58 1 31 0;
#X connect 60 0 22 0;
#X connect 60 1 24 0;
#X connect 62 0 61 0;
#X connect 63 0 27 0;
#X connect 64 0 84 1;
#X connect 65 0 75 0;
#X connect 66 0 76 0;
#X connect 72 0 70 0;
#X connect 73 0 62 0;
#X connect 73 0 71 0;
#X connect 78 0 79 0;
#X connect 83 0 84 0;
#X connect 85 0 82 0;
#X connect 86 0 17 0;
#X connect 87 0 81 0;
#X restore 42 18 pd quaver-speed;
#N canvas 65 54 1301 714 squaver-speed 0;
#X obj 178 30 r \$0-store-index;
#X obj 202 141 +;
#X obj 25 83 t f f;
#X text 286 -40 <----save;
#X obj 131 240 r \$0-store-index;
#X obj 36 349 +;
#X obj 36 238 r \$0-load;
#X obj 36 307 t f f;
#X obj 284 338 s \$0-update-grid;
#X msg 284 302 update;
#X obj 178 54 moses 0;
#X obj 131 282 moses 0;
#X obj 252 382 moses 17;
#X obj 298 401 moses 18;
#X obj 252 446 +;
#X obj 297 457 +;
#X obj 342 468 +;
#X obj 342 564 s \$0-BPM;
#X obj 440 52 r \$0-store-index;
#X obj 464 163 +;
#X obj 287 105 t f f;
#X obj 287 -24 r \$0-save;
#X obj 287 77 iterate 16;
#X obj 440 76 moses 0;
#X obj 25 55 iterate 19;
#X obj 479 138 + 19;
#X obj 217 113 * 35;
#X obj 479 119 * 35;
#X obj 170 332 * 35;
#X obj 36 285 iterate 35;
#X obj 432 464 +;
#X obj 432 440 t f f;
#X obj 36 261 t b b;
#X obj 427 278 \$0;
#X obj 419 256 bng 15 250 50 0 empty empty empty 17 7 0 10 -262144
-1 -1;
#X obj 570 83 iterate;
#X obj 631 36 r \$0-preset-sum;
#X msg 570 62 8;
#X obj 570 125 iterate 16;
#X obj 762 179 + 19;
#X obj 762 138 * 35;
#X msg 570 179 1;
#X obj 570 151 t b f;
#X obj 747 199 +;
#X obj 570 33 loadbang;
#X obj 570 103 t b f;
#X obj 779 227 + 16;
#X obj 1116 190 + 17;
#X obj 1303 175 + 18;
#X obj 762 158 t f f f f;
#X obj 867 259 t b f;
#X obj 1052 211 t b f;
#X obj 1303 246 t b f;
#X text 796 209 Mod;
#X text 916 201 Reps;
#X text 1157 179 BPM;
#X obj 1165 263 120;
#X obj 36 329 moses 16;
#X obj 387 418 moses 19;
#X text 634 79 Set Omit Pattern Const to 1;
#X obj 195 -11 t b b;
#X obj 347 194 print;
#X obj 332 170 pack;
#X msg 515 84 0;
#X obj 621 480 - 19;
#X msg 729 296 0;
#X msg 914 236 0;
#X obj 25 113 tabread \$0-squaver-speed;
#X obj 25 197 tabwrite \$0-squaver-speed-store;
#X obj 287 135 tabread \$0-squaver-speed-omit;
#X obj 287 221 tabwrite \$0-squaver-speed-store;
#X obj 570 218 tabwrite \$0-squaver-speed-store;
#X obj 729 319 tabwrite \$0-squaver-speed-store;
#X obj 914 255 tabwrite \$0-squaver-speed-store;
#X obj 1165 310 tabwrite \$0-squaver-speed-store;
#X obj 432 516 tabwrite \$0-squaver-speed-omit 16;
#X obj 432 485 tabread \$0-squaver-speed-store;
#X obj 36 381 tabread \$0-squaver-speed-store;
#X obj 36 441 tabwrite \$0-squaver-speed;
#X msg 427 306 \; \$1-squaver-speed-omit const 1;
#X obj 1117 34 table \$0-squaver-speed 19;
#X obj 1117 54 table \$0-squaver-speed-omit 16;
#X obj 1118 74 table \$0-squaver-speed-store 1024;
#X obj 342 541 tabread \$0-squaver-speed-store;
#X obj 297 584 tabread \$0-squaver-speed-store;
#X obj 252 624 tabread \$0-squaver-speed-store;
#X obj 297 605 s squaver\$1-vari;
#X obj 252 644 s squaver\$1-speed;
#X connect 0 0 10 0;
#X connect 1 0 68 1;
#X connect 2 0 67 0;
#X connect 2 1 1 0;
#X connect 4 0 11 0;
#X connect 5 0 77 0;
#X connect 6 0 32 0;
#X connect 7 0 57 0;
#X connect 7 1 78 1;
#X connect 9 0 8 0;
#X connect 10 1 26 0;
#X connect 11 1 28 0;
#X connect 12 0 14 0;
#X connect 12 1 13 0;
#X connect 13 0 15 0;
#X connect 13 1 58 0;
#X connect 14 0 85 0;
#X connect 15 0 84 0;
#X connect 16 0 83 0;
#X connect 18 0 23 0;
#X connect 19 0 62 1;
#X connect 19 0 70 1;
#X connect 20 0 69 0;
#X connect 20 1 19 0;
#X connect 21 0 60 0;
#X connect 22 0 20 0;
#X connect 23 1 27 0;
#X connect 24 0 2 0;
#X connect 25 0 19 1;
#X connect 26 0 1 1;
#X connect 27 0 25 0;
#X connect 28 0 5 1;
#X connect 28 0 14 1;
#X connect 28 0 15 1;
#X connect 28 0 16 1;
#X connect 28 0 30 1;
#X connect 29 0 7 0;
#X connect 30 0 76 0;
#X connect 31 0 30 0;
#X connect 31 1 64 0;
#X connect 32 0 29 0;
#X connect 32 1 33 0;
#X connect 33 0 79 0;
#X connect 34 0 33 0;
#X connect 35 0 45 0;
#X connect 36 0 35 0;
#X connect 37 0 35 0;
#X connect 38 0 42 0;
#X connect 38 0 43 0;
#X connect 39 0 43 1;
#X connect 40 0 49 0;
#X connect 41 0 71 0;
#X connect 42 0 41 0;
#X connect 43 0 71 1;
#X connect 44 0 37 0;
#X connect 45 0 38 0;
#X connect 45 1 40 0;
#X connect 46 0 50 0;
#X connect 47 0 51 0;
#X connect 48 0 52 0;
#X connect 49 0 39 0;
#X connect 49 1 46 0;
#X connect 49 2 47 0;
#X connect 49 3 48 0;
#X connect 50 0 65 0;
#X connect 50 1 72 1;
#X connect 51 0 66 0;
#X connect 51 1 73 1;
#X connect 52 0 56 0;
#X connect 52 1 74 1;
#X connect 56 0 74 0;
#X connect 57 0 5 0;
#X connect 57 1 12 0;
#X connect 58 0 16 0;
#X connect 58 1 31 0;
#X connect 60 0 22 0;
#X connect 60 1 24 0;
#X connect 62 0 61 0;
#X connect 63 0 27 0;
#X connect 64 0 75 1;
#X connect 65 0 72 0;
#X connect 66 0 73 0;
#X connect 67 0 68 0;
#X connect 69 0 62 0;
#X connect 69 0 70 0;
#X connect 76 0 75 0;
#X connect 77 0 78 0;
#X connect 83 0 17 0;
#X connect 84 0 86 0;
#X connect 85 0 87 0;
#X restore 42 37 pd squaver-speed;
#X restore 42 90 pd store;
#N canvas 105 282 1158 458 writeOut 0;
#X obj 54 24 savepanel;
#X obj 54 -22 r \$0-writeOut;
#X obj 54 47 pack s \$0 \$1;
#X msg 54 69 \$2 \$1 \$3;
#X msg 54 127 \; \$1-beat-pattern-store write \$2-\$3beat-pattern.txt
;
#X msg 54 163 \; \$1-quaver-pattern-store write \$2-\$3quaver-pattern.txt
;
#X msg 50 203 \; \$1-squaver-pattern-store write \$2-\$3squaver-pattern.txt
;
#X msg 48 241 \; \$1-beat-speed-store write \$2-\$3beat-speed.txt;
#X msg 50 288 \; \$1-quaver-speed-store write \$2-\$3quaver-speed.txt
;
#X msg 51 322 \; \$1-squaver-speed-store write \$2-\$3squaver-speed.txt
;
#X obj 438 29 savepanel;
#X text 149 -21 Write Out Pattern Sequence;
#X text 543 -19 Write Out Single Pattern;
#X obj 438 -19 r \$0-savePattern;
#X obj 496 8 bng 15 250 50 0 empty empty empty 17 7 0 10 -262144 -1
-1;
#X msg 438 111 \; \$1-beat-pattern write \$2-beat-seq.txt;
#X msg 446 150 \; \$1-quaver-pattern write \$2-quaver-seq.txt;
#X msg 455 187 \; \$1-squaver-pattern write \$2-squaver-seq.txt;
#X msg 798 111 \; \$1-beat-pattern-omit write \$2-beat-seq-omit.txt
;
#X msg 806 150 \; \$1-quaver-pattern-omit write \$2-quaver-seq-omit.txt
;
#X msg 815 187 \; \$1-squaver-pattern-omit write \$2-squaver-seq-omit.txt
;
#X msg 791 232 \; \$1-beat-speed-omit write \$2-beat-speed-omit.txt
;
#X msg 799 272 \; \$1-quaver-speed-omit write \$2-quaver-speed-omit.txt
;
#X msg 808 309 \; \$1-squaver-speed-omit write \$2-squaver-speed-omit.txt
;
#X obj 438 52 pack s \$0;
#X msg 438 74 \$2 \$1;
#X msg 431 232 \; \$1-beat-speed write \$2-beat-speed-seq.txt;
#X msg 439 271 \; \$1-quaver-speed write \$2-quaver-speed-seq.txt;
#X msg 447 309 \; \$1-squaver-speed write \$2-squaver-speed-seq.txt
;
#X connect 0 0 2 0;
#X connect 1 0 0 0;
#X connect 2 0 3 0;
#X connect 3 0 4 0;
#X connect 3 0 5 0;
#X connect 3 0 6 0;
#X connect 3 0 7 0;
#X connect 3 0 8 0;
#X connect 3 0 9 0;
#X connect 10 0 24 0;
#X connect 13 0 10 0;
#X connect 14 0 10 0;
#X connect 24 0 25 0;
#X connect 25 0 15 0;
#X connect 25 0 16 0;
#X connect 25 0 17 0;
#X connect 25 0 26 0;
#X connect 25 0 27 0;
#X connect 25 0 28 0;
#X connect 25 0 18 0;
#X connect 25 0 19 0;
#X connect 25 0 20 0;
#X connect 25 0 21 0;
#X connect 25 0 22 0;
#X connect 25 0 23 0;
#X restore 42 52 pd writeOut;
#N canvas 350 390 450 300 init 0;
#X obj 13 104 s \$0-beat-mod;
#X obj 13 133 s \$0-quaver-mod;
#X obj 13 166 s \$0-squaver-mod;
#X obj 13 188 s \$0-beat-speed-mod;
#X obj 14 217 s \$0-quaver-speed-mod;
#X obj 14 250 s \$0-squaver-speed-mod;
#X obj 13 13 t f b;
#X obj 13 -16 inlet;
#X connect 6 0 0 0;
#X connect 6 0 1 0;
#X connect 6 0 2 0;
#X connect 6 0 3 0;
#X connect 6 0 4 0;
#X connect 6 0 5 0;
#X connect 7 0 6 0;
#X restore 123 72 pd init;
#X obj 123 32 loadbang;
#X msg 123 52 16;
#X connect 5 0 6 0;
#X connect 6 0 4 0;
#X restore 428 79 pd grid-functions;
#N canvas 858 286 505 464 pattern 0;
#X obj 101 49 moses 8;
#X obj 101 -3 r \$0-beat;
#X obj 140 71 % 8;
#X obj 101 21 % 16;
#X obj 247 56 r \$0-update-grid;
#N canvas 299 387 450 300 mod 0;
#X msg 30 120 mod \$1;
#X obj 30 -16 inlet;
#X msg 91 196 mod \$1;
#X obj 163 109 % 8;
#X obj 30 147 outlet;
#X obj 91 216 outlet;
#X obj 30 32 moses 9;
#X obj 91 32 moses 8;
#X obj 130 68 sel 16;
#X msg 130 108 8;
#X msg 91 106 0;
#X obj 91 70 t b;
#X obj 49 94 8;
#X obj 49 68 t b;
#X connect 0 0 4 0;
#X connect 1 0 6 0;
#X connect 1 0 7 0;
#X connect 2 0 5 0;
#X connect 3 0 2 0;
#X connect 6 0 0 0;
#X connect 6 1 13 0;
#X connect 7 0 11 0;
#X connect 7 1 8 0;
#X connect 8 0 9 0;
#X connect 8 1 3 0;
#X connect 9 0 2 0;
#X connect 10 0 2 0;
#X connect 11 0 10 0;
#X connect 12 0 0 0;
#X connect 13 0 12 0;
#X restore 179 43 pd mod;
#X obj 179 21 r \$0-beat-speed-mod;
#X obj 101 305 s \$0-beat-pitch-seq;
#X obj 196 101 g_grid8x12 \$0-pattern 7;
#X obj 101 101 g_grid8x12 \$0-pattern 6;
#X obj 101 281 +;
#X obj 329 264 r \$0-beat-pitch;
#X connect 0 0 9 0;
#X connect 0 1 2 0;
#X connect 1 0 3 0;
#X connect 2 0 8 0;
#X connect 3 0 0 0;
#X connect 4 0 8 0;
#X connect 4 0 9 0;
#X connect 5 0 9 0;
#X connect 5 1 8 0;
#X connect 6 0 5 0;
#X connect 6 0 3 1;
#X connect 8 0 10 0;
#X connect 9 0 10 0;
#X connect 10 0 7 0;
#X connect 11 0 10 1;
#X coords 0 -1 1 1 193 160 1 100 100;
#X restore 205 -224 pd pattern;
#X text 12 -250 Slice;
#X text 205 -249 Pitch;
#X text 7 -116 Beat;
#X obj 512 -6 s \$0-clear-speed;
#X obj 512 -36 bng 15 250 50 0 empty empty empty 17 7 0 10 -262144
-1 -1;
#X obj 6 -98 nbx 5 14 -1e+37 1e+37 0 0 \$0-beat-mod \$0-beat-mod empty
0 -8 0 10 -262144 -1 -1 16 256;
#X obj 89 -98 nbx 5 14 -1e+37 1e+37 0 0 \$0-beat-speed-mod \$0-beat-speed-mod
Length 0 -8 0 10 -262144 -1 -1 16 256;
#X obj 211 -38 bng 30 250 50 0 empty empty empty 17 0 0 15 -4034 -1
-1;
#X obj 147 -98 nbx 5 14 -1e+37 1e+37 0 0 \$0-beat-pitch \$0-beat-pitch
Pitch 0 -8 0 10 -262144 -1 -1 2 256;
#X obj 297 -36 bng 30 250 50 0 empty empty empty 17 7 0 10 -204786
-1 -1;
#X obj 297 20 pack s \$0;
#X msg 297 41 \; \$2-pattern write \$1 \;;
#X obj 297 0 savepanel;
#N canvas 328 274 1079 591 store 0;
#X obj 14 56 r \$0-beat-mod;
#X obj 100 56 r \$0-quaver-mod;
#X obj 198 56 r \$0-squaver-mod;
#X obj 14 203 tabwrite \$0-pattern;
#X msg 125 182 192;
#X obj 14 165 t f b;
#X obj 100 162 tabwrite \$0-pattern;
#X obj 100 124 t f b;
#X msg 211 141 193;
#X obj 198 120 tabwrite \$0-pattern;
#X obj 198 82 t f b;
#X obj 469 57 r \$0-quaver-speed-mod;
#X obj 606 56 r \$0-squaver-speed-mod;
#X obj 347 57 r \$0-beat-speed-mod;
#X obj 347 217 tabwrite \$0-pattern;
#X obj 347 179 t f b;
#X obj 469 176 tabwrite \$0-pattern;
#X obj 469 138 t f b;
#X obj 606 134 tabwrite \$0-pattern;
#X obj 606 96 t f b;
#X msg 309 99 194;
#X msg 458 196 195;
#X msg 580 155 196;
#X msg 717 113 197;
#X text 22 5 Write these parameters to the \$0-pattern table;
#X obj 388 242 r \$0-BPM;
#X obj 448 243 r \$0-repeat-length;
#X obj 567 243 r \$0-trigger-delay;
#X obj 388 385 tabwrite \$0-pattern;
#X obj 388 347 t f b;
#X obj 448 341 tabwrite \$0-pattern;
#X obj 448 303 t f b;
#X obj 567 300 tabwrite \$0-pattern;
#X obj 567 262 t f b;
#X obj 14 240 r \$0-beat-pitch;
#X obj 117 242 r \$0-quaver-pitch;
#X obj 239 242 r \$0-squaver-pitch;
#X obj 14 385 tabwrite \$0-pattern;
#X obj 14 347 t f b;
#X obj 117 341 tabwrite \$0-pattern;
#X obj 117 303 t f b;
#X obj 239 300 tabwrite \$0-pattern;
#X obj 239 262 t f b;
#X msg 125 364 198;
#X msg 228 320 199;
#X msg 350 279 200;
#X msg 499 364 201;
#X msg 559 320 202;
#X msg 678 279 203;
#X obj 708 243 r \$0-clockMode;
#X obj 708 408 tabwrite \$0-pattern;
#X obj 708 361 t f b;
#X obj 803 243 r \$0-interrupt;
#X obj 901 243 r \$0-randomtrigger;
#X obj 803 264 t f b;
#X obj 901 262 t f b;
#X obj 803 354 tabwrite \$0-pattern;
#X msg 914 335 205;
#X msg 819 378 204;
#X obj 901 304 tabwrite \$0-pattern;
#X msg 1012 279 206;
#X obj 13 499 r \$0-beat-pan;
#X obj 177 500 r \$0-beat-pan-rnd;
#X obj 13 562 tabwrite \$0-pattern;
#X obj 13 524 t f b;
#X obj 178 566 tabwrite \$0-pattern;
#X obj 178 528 t f b;
#X msg 125 541 207;
#X msg 289 545 208;
#X obj 338 561 tabwrite \$0-pattern;
#X obj 338 523 t f b;
#X obj 503 565 tabwrite \$0-pattern;
#X obj 503 527 t f b;
#X obj 663 570 tabwrite \$0-pattern;
#X obj 663 532 t f b;
#X obj 828 574 tabwrite \$0-pattern;
#X obj 828 536 t f b;
#X obj 338 500 r \$0-quaver-pan;
#X obj 503 501 r \$0-quaver-pan-rnd;
#X obj 663 503 r \$0-squaver-pan;
#X obj 828 507 r \$0-squaver-pan-rnd;
#X msg 450 540 209;
#X msg 614 544 210;
#X msg 775 549 211;
#X msg 937 553 212;
#X connect 0 0 5 0;
#X connect 1 0 7 0;
#X connect 2 0 10 0;
#X connect 4 0 3 1;
#X connect 5 0 3 0;
#X connect 5 1 4 0;
#X connect 7 0 6 0;
#X connect 7 1 8 0;
#X connect 8 0 6 1;
#X connect 10 0 9 0;
#X connect 10 1 20 0;
#X connect 11 0 17 0;
#X connect 12 0 19 0;
#X connect 13 0 15 0;
#X connect 15 0 14 0;
#X connect 15 1 21 0;
#X connect 17 0 16 0;
#X connect 17 1 22 0;
#X connect 19 0 18 0;
#X connect 19 1 23 0;
#X connect 20 0 9 1;
#X connect 21 0 14 1;
#X connect 22 0 16 1;
#X connect 23 0 18 1;
#X connect 25 0 29 0;
#X connect 26 0 31 0;
#X connect 27 0 33 0;
#X connect 29 0 28 0;
#X connect 29 1 46 0;
#X connect 31 0 30 0;
#X connect 31 1 47 0;
#X connect 33 0 32 0;
#X connect 33 1 48 0;
#X connect 34 0 38 0;
#X connect 35 0 40 0;
#X connect 36 0 42 0;
#X connect 38 0 37 0;
#X connect 38 1 43 0;
#X connect 40 0 39 0;
#X connect 40 1 44 0;
#X connect 42 0 41 0;
#X connect 42 1 45 0;
#X connect 43 0 37 1;
#X connect 44 0 39 1;
#X connect 45 0 41 1;
#X connect 46 0 28 1;
#X connect 47 0 30 1;
#X connect 48 0 32 1;
#X connect 49 0 51 0;
#X connect 51 0 50 0;
#X connect 51 1 58 0;
#X connect 52 0 54 0;
#X connect 53 0 55 0;
#X connect 54 0 56 0;
#X connect 54 1 57 0;
#X connect 55 0 59 0;
#X connect 55 1 60 0;
#X connect 57 0 56 1;
#X connect 58 0 50 1;
#X connect 60 0 59 1;
#X connect 61 0 64 0;
#X connect 62 0 66 0;
#X connect 64 0 63 0;
#X connect 64 1 67 0;
#X connect 66 0 65 0;
#X connect 66 1 68 0;
#X connect 67 0 63 1;
#X connect 68 0 65 1;
#X connect 70 0 69 0;
#X connect 70 1 81 0;
#X connect 72 0 71 0;
#X connect 72 1 82 0;
#X connect 74 0 73 0;
#X connect 74 1 83 0;
#X connect 76 0 75 0;
#X connect 76 1 84 0;
#X connect 77 0 70 0;
#X connect 78 0 72 0;
#X connect 79 0 74 0;
#X connect 80 0 76 0;
#X connect 81 0 69 1;
#X connect 82 0 71 1;
#X connect 83 0 73 1;
#X connect 84 0 75 1;
#X restore 415 15 pd store;
#N canvas 65 87 1475 980 load 0;
#X obj -45 -12 inlet;
#X obj 156 263 + 192;
#X obj 156 293 tabread \$0-pattern;
#X obj 156 209 t f f;
#X obj 156 363 prepend;
#X obj 155 855 s \$0-beat-mod;
#X obj 176 825 s \$0-quaver-mod;
#X obj 188 805 s \$0-squaver-mod;
#X obj 203 782 s \$0-beat-speed-mod;
#X obj 216 757 s \$0-quaver-speed-mod;
#X obj 232 735 s \$0-squaver-speed-mod;
#X obj 248 710 s \$0-beat-pitch;
#X obj 263 686 s \$0-quaver-pitch;
#X obj 279 662 s \$0-squaver-pitch;
#X obj 294 641 s \$0-BPM;
#X obj 309 623 s \$0-repeat-length;
#X obj 324 604 s \$0-trigger-delay;
#X msg 382 85 \; \$2-pattern read \$1 \;;
#X obj 38 29 openpanel;
#X obj 38 49 pack s \$0;
#X obj 38 192 s \$0-update-grid;
#X msg 38 164 update;
#X obj 344 585 s \$0-clockMode;
#X obj 362 568 s \$0-interrupt;
#X obj 378 550 s \$0-randomtrigger;
#X obj -45 12 t b b;
#X obj 38 133 t b b;
#X obj 38 68 t b l;
#X obj 105 30 r \$0-read-pattern;
#X obj 393 531 s \$0-beat-pan;
#X obj 409 510 s \$0-beat-pan-rnd;
#X obj 423 486 s \$0-quaver-pan;
#X obj 441 467 s \$0-quaver-pan-rnd;
#X obj 467 447 s \$0-squaver-pan;
#X obj 483 430 s \$0-squaver-pan-rnd;
#X obj 155 406 route 0 1 2 3 4 5 6 7 8 9 10 11 12 13 14 15 16 17 18
19 20;
#X obj 156 177 iterate 21;
#X connect 0 0 25 0;
#X connect 1 0 2 0;
#X connect 2 0 4 0;
#X connect 3 0 1 0;
#X connect 3 1 4 1;
#X connect 4 0 35 0;
#X connect 18 0 19 0;
#X connect 19 0 27 0;
#X connect 21 0 20 0;
#X connect 25 1 18 0;
#X connect 26 0 21 0;
#X connect 26 1 36 0;
#X connect 27 0 26 0;
#X connect 27 1 17 0;
#X connect 28 0 19 0;
#X connect 35 0 5 0;
#X connect 35 1 6 0;
#X connect 35 2 7 0;
#X connect 35 3 8 0;
#X connect 35 4 9 0;
#X connect 35 5 10 0;
#X connect 35 6 11 0;
#X connect 35 7 12 0;
#X connect 35 8 13 0;
#X connect 35 9 14 0;
#X connect 35 10 15 0;
#X connect 35 11 16 0;
#X connect 35 12 22 0;
#X connect 35 13 23 0;
#X connect 35 14 24 0;
#X connect 35 15 29 0;
#X connect 35 16 30 0;
#X connect 35 17 31 0;
#X connect 35 18 32 0;
#X connect 35 19 33 0;
#X connect 35 20 34 0;
#X connect 36 0 3 0;
#X restore 211 5 pd load;
#X text 209 -57 Load;
#X text 293 -57 Save;
#X obj 6 -56 cnv 15 165 90 empty empty empty 20 12 0 14 -4034 -66577
0;
#N canvas 65 92 1301 714 mod 0;
#X obj 3 3 inlet;
#X obj 3 94 s \$0-beat-mod;
#X obj 3 123 s \$0-quaver-mod;
#X obj 3 156 s \$0-squaver-mod;
#X obj 3 178 s \$0-beat-speed-mod;
#X obj 4 207 s \$0-quaver-speed-mod;
#X obj 4 240 s \$0-squaver-speed-mod;
#X connect 0 0 1 0;
#X connect 0 0 2 0;
#X connect 0 0 3 0;
#X connect 0 0 4 0;
#X connect 0 0 5 0;
#X connect 0 0 6 0;
#X restore 11 43 pd mod;
#X obj 11 -37 nbx 5 14 -1e+37 1e+37 0 0 \$0-BPM \$0-BPM empty 0 -8
0 10 -262144 -1 -1 0 256;
#X obj 79 -37 nbx 5 14 -1e+37 1e+37 0 0 \$0-repeat-length \$0-repeat-length
empty 0 -8 0 10 -262144 -1 -1 0 256;
#X text 18 -56 BPM;
#X text 77 -56 Repeat-Length;
#X obj 11 13 nbx 5 14 -1e+37 1e+37 0 0 empty empty Global-Lenght 0
-8 0 10 -262144 -1 -1 0 256;
#X obj 94 13 nbx 5 14 -1e+37 1e+37 0 0 \$0-trigger-delay \$0-trigger-delay
Trigger-Delay 0 -8 0 10 -262144 -1 -1 0 256;
#X obj 7 -80 nbx 5 14 -45 45 0 0 \$0-beat-pan \$0-beat-pan empty 0
-8 0 10 -262144 -1 -1 0 256;
#X obj 88 -80 nbx 5 14 0 100 0 0 \$0-beat-pan-rnd \$0-beat-pan-rnd
empty 0 -8 0 10 -262144 -1 -1 0 256;
#X obj 412 -224 table \$0-pattern 213;
#X connect 2 0 1 0;
#X connect 9 0 8 0;
#X connect 12 0 19 0;
#X connect 14 0 17 0;
#X connect 15 0 16 0;
#X connect 17 0 15 0;
#X connect 28 0 23 0;
#X restore 77 -2 pd \$0-pattern;
#X obj 77 36 \$0;
#X msg 77 55 \; pd-\$1-pattern vis 1;
#N canvas 65 92 650 686 ticks 0;
#X obj 16 179 outlet;
#X obj 73 179 outlet;
#X obj 243 180 outlet;
#X text 15 199 beats;
#X text 70 200 quavers;
#X text 240 200 s.quavers;
#X obj 318 181 outlet;
#X text 317 200 roll;
#N canvas 314 480 244 247 rollswitch 0;
#X obj 24 9 inlet;
#X obj 24 184 outlet;
#X obj 137 183 outlet;
#X obj 24 157 spigot;
#X obj 57 67 & 31;
#X obj 24 37 t f f;
#X msg 57 124 1;
#X text 24 -10 ticks;
#X text 23 205 ticks;
#X text 133 203 roll bang;
#X text 163 38 from settings;
#X obj 100 98 sel 30;
#X msg 100 124 0;
#X floatatom 100 156 5 0 0 0 - - -;
#X obj 57 99 sel 0;
#X obj 78 38 r \$0-rollmask;
#X obj 133 67 r \$0-rollselect;
#X connect 0 0 5 0;
#X connect 3 0 1 0;
#X connect 4 0 11 0;
#X connect 4 0 14 0;
#X connect 5 0 3 0;
#X connect 5 1 4 0;
#X connect 6 0 3 1;
#X connect 6 0 13 0;
#X connect 11 0 12 0;
#X connect 11 0 2 0;
#X connect 12 0 13 0;
#X connect 12 0 3 1;
#X connect 14 0 6 0;
#X connect 15 0 4 1;
#X connect 16 0 11 1;
#X restore 243 137 pd rollswitch;
#X obj 139 -43 r ticklength;
#X obj 126 -71 r slicycle\$1-tickdelay;
#X obj 16 32 pipe 0;
#X obj 139 -13 t b f;
#X obj 126 15 *;
#X floatatom 126 44 5 0 0 0 - - -;
#N canvas 65 110 179 265 tick-offset 0;
#X obj 30 23 inlet;
#X obj 30 231 outlet;
#X obj 77 49 >> 1;
#X obj 92 106 f \$1;
#X obj 92 134 - 1;
#X obj 92 79 loadbang;
#X floatatom 106 159 5 0 0 0 - - -;
#X obj 77 158 *;
#X obj 30 175 +;
#X obj 30 203 & 255;
#X obj 77 24 r \$0-rollcycle;
#X connect 0 0 8 0;
#X connect 2 0 7 0;
#X connect 3 0 4 0;
#X connect 4 0 6 0;
#X connect 4 0 7 1;
#X connect 5 0 3 0;
#X connect 7 0 8 1;
#X connect 8 0 9 0;
#X connect 9 0 1 0;
#X connect 10 0 2 0;
#X restore 16 -29 pd tick-offset;
#X floatatom 71 49 5 0 0 0 - - -;
#N canvas 0 22 180 280 is-even 0;
#X obj 34 38 inlet;
#X obj 34 118 sel 0;
#X obj 34 144 f;
#X obj 34 67 t f f;
#X obj 34 93 & 1;
#X obj 34 172 >> 1;
#X obj 34 212 outlet;
#X connect 0 0 3 0;
#X connect 1 0 2 0;
#X connect 2 0 5 0;
#X connect 3 0 4 0;
#X connect 3 1 2 1;
#X connect 4 0 1 0;
#X connect 5 0 6 0;
#X restore 16 90 pd is-even;
#N canvas 0 22 180 280 is-beat 0;
#X obj 34 38 inlet;
#X obj 34 118 sel 0;
#X obj 34 144 f;
#X obj 34 67 t f f;
#X obj 34 93 & 1;
#X obj 34 172 >> 1;
#X obj 34 212 outlet;
#X connect 0 0 3 0;
#X connect 1 0 2 0;
#X connect 2 0 5 0;
#X connect 3 0 4 0;
#X connect 3 1 2 1;
#X connect 4 0 1 0;
#X connect 5 0 6 0;
#X restore 16 123 pd is-beat;
#X floatatom 93 107 5 0 0 0 - - -;
#X floatatom 93 140 5 0 0 0 - - -;
#X obj 114 -95 spigot;
#X obj 16 -96 spigot;
#X obj 218 -150 tgl 15 0 empty empty empty 17 7 0 10 -262144 -1 -1
1 1;
#X obj 218 -130 == 0;
#X obj 279 -314 r \$0-clockMode;
#X floatatom 293 -283 5 0 0 0 - - -;
#X msg 256 -181 0;
#X msg 356 -186 1;
#N canvas 912 455 375 310 internalClock 0;
#N canvas 617 219 442 492 generate-ticks 0;
#X obj 32 98 tgl 15 1 empty empty empty 17 7 0 10 -262144 -1 -1 0 1
;
#X obj 32 146 metro;
#N canvas 988 94 208 259 milliseconds 0;
#X obj 19 18 inlet;
#X obj 19 199 outlet;
#X obj 19 46 t b f;
#X obj 19 170 /;
#X msg 69 77 15000;
#X msg 113 77 20000;
#X obj 19 147 f 15000;
#X obj 69 103 t b f;
#X obj 69 43 sel 0 1;
#X text 19 225 1/16 or 1/12 note;
#X obj 69 17 r \$0-timesignature;
#X floatatom 96 135 5 0 0 0 - - -;
#X connect 0 0 2 0;
#X connect 2 0 6 0;
#X connect 2 1 3 1;
#X connect 3 0 1 0;
#X connect 4 0 7 0;
#X connect 5 0 7 0;
#X connect 6 0 3 0;
#X connect 7 0 6 0;
#X connect 7 1 11 0;
#X connect 7 1 6 1;
#X connect 8 0 4 0;
#X connect 8 1 5 0;
#X connect 10 0 8 0;
#X restore 59 107 pd milliseconds;
#X obj 32 193 +;
#X obj 32 416 outlet;
#X obj 32 170 f 1;
#N canvas 304 500 316 238 ticksort 0;
#X obj 27 60 t f f;
#X obj 27 27 inlet;
#X obj 27 117 pack;
#X text 25 6 ticks;
#X obj 27 88 & 3;
#X obj 27 143 route 0 1 2 3;
#X obj 27 175 outlet;
#X obj 73 175 outlet;
#X obj 122 175 outlet;
#X obj 170 175 outlet;
#X obj 242 175 outlet;
#X text 28 199 first;
#X text 72 199 second;
#X text 121 199 third;
#X text 168 199 fourth;
#X text 240 198 index;
#X connect 0 0 4 0;
#X connect 0 1 2 1;
#X connect 1 0 0 0;
#X connect 2 0 5 0;
#X connect 4 0 2 0;
#X connect 4 0 10 0;
#X connect 5 0 6 0;
#X connect 5 1 7 0;
#X connect 5 2 8 0;
#X connect 5 3 9 0;
#X restore 32 359 pd ticksort;
#N canvas 576 493 515 163 tickdelays 0;
#X obj 21 15 inlet;
#X obj 21 88 pipe;
#X obj 202 125 outlet;
#X obj 106 14 inlet;
#X obj 106 87 pipe;
#X obj 202 15 inlet;
#X obj 202 88 pipe;
#X obj 287 15 inlet;
#X obj 287 88 pipe;
#N canvas 698 484 303 226 sambagroove 0;
#X obj 32 7 r ticklength;
#X obj 181 28 sel 1;
#X msg 181 56 0;
#X obj 32 30 t b f;
#X obj 19 69 *;
#X obj 19 98 spigot;
#X obj 141 28 t b f;
#X obj 19 -17 r \$0-groove;
#X obj 141 -18 r \$0-groovetype;
#X obj 19 164 s \$0-tickdelay0;
#X obj 35 131 s \$0-tickdelay1;
#X obj 181 125 s \$0-tickdelay2;
#X obj 195 94 s \$0-tickdelay3;
#X connect 0 0 3 0;
#X connect 1 0 2 0;
#X connect 2 0 11 0;
#X connect 2 0 12 0;
#X connect 3 0 4 0;
#X connect 3 1 4 1;
#X connect 4 0 5 0;
#X connect 5 0 9 0;
#X connect 5 0 10 0;
#X connect 6 0 4 0;
#X connect 6 1 5 1;
#X connect 7 0 4 0;
#X connect 8 0 1 0;
#X connect 8 0 6 0;
#X restore 385 93 pd sambagroove;
#N canvas 823 242 346 186 tripletgroove 0;
#X obj 37 15 r ticklength;
#X msg 213 65 0;
#X obj 37 38 t b f;
#X obj 24 77 *;
#X obj 24 106 spigot;
#X obj 146 36 t b f;
#X obj 213 36 sel 0;
#X obj 173 65 == 0;
#X obj 24 -10 r \$0-groove;
#X obj 146 -10 r \$0-groovetype;
#X obj 24 153 s \$0-tickdelay1;
#X obj 44 131 s \$0-tickdelay3;
#X obj 213 134 s \$0-tickdelay0;
#X obj 225 101 s \$0-tickdelay2;
#X connect 0 0 2 0;
#X connect 1 0 12 0;
#X connect 1 0 13 0;
#X connect 2 0 3 0;
#X connect 2 1 3 1;
#X connect 3 0 4 0;
#X connect 4 0 10 0;
#X connect 4 0 11 0;
#X connect 5 0 3 0;
#X connect 5 1 7 0;
#X connect 6 0 1 0;
#X connect 7 0 4 1;
#X connect 8 0 3 0;
#X connect 9 0 5 0;
#X connect 9 0 6 0;
#X restore 386 21 pd tripletgroove;
#X floatatom 56 89 5 0 0 0 - - -;
#X floatatom 141 89 5 0 0 0 - - -;
#X floatatom 234 88 5 0 0 0 - - -;
#X floatatom 320 89 5 0 0 0 - - -;
#X obj 42 39 r \$0-tickdelay0;
#X obj 127 61 r \$0-tickdelay1;
#X obj 223 38 r \$0-tickdelay2;
#X obj 308 61 r \$0-tickdelay3;
#X connect 0 0 1 0;
#X connect 1 0 2 0;
#X connect 3 0 4 0;
#X connect 4 0 2 0;
#X connect 5 0 6 0;
#X connect 6 0 2 0;
#X connect 7 0 8 0;
#X connect 8 0 2 0;
#X connect 15 0 1 1;
#X connect 15 0 11 0;
#X connect 16 0 4 1;
#X connect 16 0 12 0;
#X connect 17 0 6 1;
#X connect 17 0 13 0;
#X connect 18 0 8 1;
#X connect 18 0 14 0;
#X restore 32 390 pd tickdelays;
#X obj 64 193 r \$0-set-one;
#X text 119 389 << groove;
#X obj 32 330 tabread \$0-commontime;
#X obj 264 225 symbol \$0-sixquavers;
#X msg 245 250 set \$1;
#X obj 245 202 symbol \$0-commontime;
#X obj 245 146 r \$0-timesignature;
#X obj 32 248 mod 192;
#X obj 59 15 inlet;
#X obj 245 175 sel 0 1;
#X text 68 41 if zero \, set metro off;
#X text 99 16 BPM;
#X obj 32 67 change;
#X obj 32 42 != 0;
#X msg 64 218 0;
#X obj 69 149 s \$0-ticklength;
#X floatatom 176 420 5 0 0 0 - - -;
#X msg 167 333 0;
#X obj 167 310 sel 191;
#X obj 228 23 r \$0-reset;
#X msg 228 66 1;
#X obj 228 42 t b b;
#X obj 32 272 t f f;
#X obj 167 289 spigot;
#X obj 143 192 r \$0-clockMode;
#X obj 143 239 sel 1 2 3;
#X msg 143 272 1;
#X msg 200 270 0;
#X obj 316 30 r \$0-clockMode;
#X msg 316 75 1;
#X obj 316 54 sel 3 1;
#X msg 351 76 0;
#X obj 229 293 r \$0-repeat-length;
#X connect 0 0 1 0;
#X connect 1 0 5 0;
#X connect 2 0 1 1;
#X connect 2 0 23 0;
#X connect 3 0 15 0;
#X connect 5 0 3 0;
#X connect 6 0 7 0;
#X connect 6 1 7 1;
#X connect 6 2 7 2;
#X connect 6 3 7 3;
#X connect 7 0 4 0;
#X connect 7 0 24 0;
#X connect 8 0 22 0;
#X connect 10 0 6 0;
#X connect 11 0 12 0;
#X connect 12 0 10 0;
#X connect 13 0 12 0;
#X connect 14 0 17 0;
#X connect 15 0 3 1;
#X connect 15 0 30 0;
#X connect 16 0 2 0;
#X connect 16 0 21 0;
#X connect 17 0 13 0;
#X connect 17 1 11 0;
#X connect 17 2 13 0;
#X connect 20 0 0 0;
#X connect 21 0 20 0;
#X connect 22 0 15 0;
#X connect 25 0 0 0;
#X connect 26 0 25 0;
#X connect 27 0 29 0;
#X connect 28 0 0 0;
#X connect 29 0 28 0;
#X connect 29 1 22 0;
#X connect 30 0 10 0;
#X connect 30 1 31 0;
#X connect 31 0 26 0;
#X connect 32 0 33 0;
#X connect 33 0 34 0;
#X connect 33 1 35 0;
#X connect 33 2 35 0;
#X connect 34 0 31 1;
#X connect 35 0 31 1;
#X connect 36 0 38 0;
#X connect 37 0 0 0;
#X connect 38 0 37 0;
#X connect 38 1 39 0;
#X connect 39 0 0 0;
#X connect 40 0 26 1;
#X restore 78 152 pd generate-ticks;
#N canvas 542 150 297 177 tick-tables 0;
#X obj 31 18 loadbang;
#N canvas 0 22 246 266 commontime 0;
#X obj 30 209 table \$0-commontime 256;
#X obj 31 175 tabwrite \$0-commontime;
#X obj 31 142 t f f;
#X obj 31 86 bng 15 250 50 0 empty empty empty 17 7 0 10 -262144 -1
-1;
#X obj 31 53 inlet;
#X obj 31 114 iterate 256;
#X connect 2 0 1 0;
#X connect 2 1 1 1;
#X connect 3 0 5 0;
#X connect 4 0 3 0;
#X connect 5 0 2 0;
#X restore 31 100 pd commontime;
#N canvas 748 33 413 471 sixquavers 0;
#X obj 27 38 inlet;
#X obj 27 66 bng 15 250 50 0 empty empty empty 17 7 0 10 -262144 -1
-1;
#X obj 27 272 tabwrite \$0-sixquavers;
#X obj 27 122 t b f;
#X obj 156 246 +;
#X obj 27 191 unpack;
#X obj 224 243 s \$0-sixquavers;
#X msg 224 215 arrayviewlistnew;
#X obj 171 221 * 12;
#X obj 27 245 +;
#X obj 42 220 * 16;
#X obj 224 272 table \$0-sixquavers 192;
#X msg 27 151 0 0 \, 1 1 \, 2 2 \, 4 3 \, 5 4 \, 6 5 \, 8 6 \, 9 7
\, 10 8 \, 12 9 \, 13 10 \, 14 11;
#X obj 27 364 hradio 15 1 0 3 empty empty empty 0 -8 0 10 -262144 -262144
-1 0;
#X obj 77 364 hradio 15 1 0 3 empty empty empty 0 -8 0 10 -262144 -262144
-1 0;
#X obj 126 364 hradio 15 1 0 3 empty empty empty 0 -8 0 10 -262144
-262144 -1 0;
#X obj 176 364 hradio 15 1 0 3 empty empty empty 0 -8 0 10 -262144
-262144 -1 0;
#X obj 28 391 hradio 15 1 0 1 empty empty empty 0 -8 0 10 -262144 -262144
-1 0;
#X obj 58 391 hradio 15 1 0 1 empty empty empty 0 -8 0 10 -262144 -262144
-1 0;
#X obj 77 391 hradio 15 1 0 1 empty empty empty 0 -8 0 10 -262144 -262144
-1 0;
#X obj 107 391 hradio 15 1 0 1 empty empty empty 0 -8 0 10 -262144
-262144 -1 0;
#X obj 127 391 hradio 15 1 0 1 empty empty empty 0 -8 0 10 -262144
-262144 -1 0;
#X obj 157 391 hradio 15 1 0 1 empty empty empty 0 -8 0 10 -262144
-262144 -1 0;
#X obj 176 391 hradio 15 1 0 1 empty empty empty 0 -8 0 10 -262144
-262144 -1 0;
#X obj 206 391 hradio 15 1 0 1 empty empty empty 0 -8 0 10 -262144
-262144 -1 0;
#X obj 28 417 hradio 15 1 0 1 empty empty empty 0 -8 0 10 -262144 -262144
-1 0;
#X obj 78 417 hradio 15 1 0 1 empty empty empty 0 -8 0 10 -262144 -262144
-1 0;
#X obj 127 416 hradio 15 1 0 1 empty empty empty 0 -8 0 10 -262144
-262144 -1 0;
#X obj 177 416 hradio 15 1 0 1 empty empty empty 0 -8 0 10 -262144
-262144 -1 0;
#X text 26 334 it is 12/16 really:;
#X text 245 361 semiquavers;
#X text 246 388 quavers;
#X text 247 415 beats;
#X obj 27 91 iterate 16;
#X connect 0 0 1 0;
#X connect 1 0 33 0;
#X connect 3 0 12 0;
#X connect 3 1 8 0;
#X connect 3 1 10 0;
#X connect 4 0 2 1;
#X connect 5 0 9 0;
#X connect 5 1 4 0;
#X connect 7 0 6 0;
#X connect 8 0 4 1;
#X connect 9 0 2 0;
#X connect 10 0 9 1;
#X connect 12 0 5 0;
#X connect 33 0 3 0;
#X restore 122 100 pd sixquavers;
#X connect 0 0 1 0;
#X connect 0 0 2 0;
#X restore 263 24 pd tick-tables;
#X obj 45 271 s \$0-groove;
#X obj 45 246 * 0.25;
#X obj 78 85 r \$0-BPM;
#X obj 78 221 s \$0-internal-clock;
#X connect 0 0 5 0;
#X connect 3 0 2 0;
#X connect 4 0 0 0;
#X restore 284 -70 pd internalClock;
#X obj 114 -181 r \$0-internal-clock;
#X obj 226 -43 r \$0-ticklength;
#X obj 279 -256 sel 0 1 2;
#X obj 16 -181 r globalticks;
#X floatatom 222 16 5 0 0 0 - - -;
#X connect 8 0 2 0;
#X connect 8 1 6 0;
#X connect 9 0 12 0;
#X connect 9 0 34 0;
#X connect 10 0 13 0;
#X connect 11 0 16 0;
#X connect 11 0 17 0;
#X connect 11 0 2 0;
#X connect 12 0 13 0;
#X connect 12 1 13 1;
#X connect 13 0 11 1;
#X connect 13 0 14 0;
#X connect 15 0 11 0;
#X connect 17 0 18 0;
#X connect 17 0 1 0;
#X connect 17 0 19 0;
#X connect 18 0 0 0;
#X connect 18 0 20 0;
#X connect 21 0 15 0;
#X connect 22 0 15 0;
#X connect 23 0 24 0;
#X connect 23 0 22 1;
#X connect 24 0 21 1;
#X connect 25 0 26 0;
#X connect 25 0 32 0;
#X connect 27 0 23 0;
#X connect 28 0 23 0;
#X connect 30 0 21 0;
#X connect 31 0 12 0;
#X connect 32 0 27 0;
#X connect 32 1 28 0;
#X connect 32 2 27 0;
#X connect 33 0 22 0;
#X restore 219 -1 pd ticks;
#X obj 219 37 s \$0-beat;
#X obj 280 38 s \$0-quaver;
#X obj 353 38 s \$0-squaver;
#X obj 210 105 hradio 15 1 0 2 \$0-clockMode empty empty 0 -8 0 10
-262144 -1 -1 1;
#N canvas 0 0 450 300 (subpatch) 0;
#X array \$0-sample-monitor 100 float 3;
#A 0 0 0 0 0 0 0 0 0 0 0 0 0 0 0 0 0 0 0 0 0 0 0 0 0 0 0 0 0 0 0 0
0 0 0 0 0 0 0 0 0 0 0 0 0 0 0 0 0 0 0 0 0 0 0 0 0 0 0 0 0 0 0 0 0 0
0 0 0 0 0 0 0 0 0 0 0 0 0 0 0 0 0 0 0 0 0 0 0 0 0 0 0 0 0 0 0 0 0 0
0;
#X coords 0 1 99 -1 100 60 1 0 0;
#X restore 105 103 graph;
#X floatatom 210 124 5 0 0 0 - - #0-BPM;
#X obj 212 143 bng 23 250 50 0 \$0-pattern-vis empty Pat 3 12 0 10
-260097 -1 -1;
#X obj 552 178 catch~ \$0-out;
#X obj 552 200 *~ 1;
#X obj 553 225 outlet~;
#X obj 538 115 load ../samples/\$1 \$0-table;
#X obj 434 134 table \$0-table1;
#X obj 434 154 table \$0-table2;
#X obj 434 174 table \$0-table3;
#X obj 434 193 table \$0-table4;
#X obj 434 213 table \$0-table5;
#X obj 434 233 table \$0-table6;
#X obj 434 253 table \$0-table7;
#X obj 434 273 table \$0-table8;
#N canvas 417 82 928 686 dsp 0;
#X obj 106 575 throw~ \$0-out;
#X obj 107 540 *~ 1;
#X obj 99 32 r \$0-beat-seq;
#X obj 191 31 r \$0-beat-pitch-seq;
#X obj 118 124 f;
#X obj 237 272 pack f \$0;
#X msg 237 302 buffer \$2-table\$1;
#X obj 237 250 + 1;
#X obj 993 396 pack f \$0;
#X msg 964 433 buffer \$2-table\$1;
#X obj 251 397 tgl 15 0 empty empty empty 17 7 0 10 -262144 -1 -1 1
1;
#X msg 226 436 metroON \$1;
#X obj 107 462 s_graincloud gra1;
#X msg 252 344 grainsize \$1;
#X floatatom 322 323 5 0 0 0 - - -;
#X obj 106 503 *~;
#X obj 96 414 bng 15 250 50 0 empty empty empty 17 7 0 10 -262144 -1
-1;
#X msg 311 434 grainvoices 2;
#X obj 99 98 t b b f;
#X msg 145 181 pitch \$1;
#X floatatom 180 142 5 0 0 0 - - -;
#N canvas 798 342 450 425 playthrough 0;
#X obj 28 371 vline~;
#X msg 30 322 0 \, 0 \, 1 \$1 0;
#X obj 30 243 f;
#X obj 139 251 del;
#X obj 134 359 vline~;
#X msg 134 326 0 0 \, 1 5;
#X obj 30 160 t b b;
#X msg 147 304 1 0 \, 0 5;
#X obj 28 126 inlet;
#X obj 28 402 outlet~;
#X obj 134 382 outlet~;
#X obj 169 15 inlet;
#X obj 154 195 *;
#X obj 154 -4 r \$0-playback-speed;
#X obj 169 159 arraysize;
#X obj 169 179 / 44.1;
#X obj 169 37 route buffer;
#X obj 196 107 prepend set;
#X obj 169 59 t b a;
#X connect 0 0 9 0;
#X connect 1 0 0 0;
#X connect 2 0 1 0;
#X connect 3 0 7 0;
#X connect 4 0 10 0;
#X connect 5 0 4 0;
#X connect 6 0 2 0;
#X connect 6 1 3 0;
#X connect 6 1 5 0;
#X connect 7 0 4 0;
#X connect 8 0 6 0;
#X connect 11 0 16 0;
#X connect 12 0 2 1;
#X connect 12 0 3 1;
#X connect 13 0 12 0;
#X connect 14 0 15 0;
#X connect 15 0 12 1;
#X connect 16 0 18 0;
#X connect 17 0 14 0;
#X connect 18 0 14 0;
#X connect 18 1 17 0;
#X restore 41 356 pd playthrough;
#X obj 435 242 loadbang;
#X msg 452 310 100;
#X connect 1 0 0 0;
#X connect 2 0 18 0;
#X connect 3 0 4 1;
#X connect 4 0 19 0;
#X connect 4 0 20 0;
#X connect 5 0 6 0;
#X connect 6 0 12 3;
#X connect 6 0 21 1;
#X connect 7 0 5 0;
#X connect 8 0 9 0;
#X connect 10 0 11 0;
#X connect 11 0 12 3;
#X connect 12 0 15 0;
#X connect 13 0 12 3;
#X connect 14 0 13 0;
#X connect 15 0 1 0;
#X connect 16 0 12 0;
#X connect 17 0 12 3;
#X connect 18 0 21 0;
#X connect 18 1 4 0;
#X connect 18 2 7 0;
#X connect 19 0 12 3;
#X connect 21 0 12 1;
#X connect 21 1 15 1;
#X connect 22 0 23 0;
#X connect 23 0 13 0;
#X restore 116 238 pd dsp;
#N canvas 0 0 450 300 (subpatch) 0;
#X array \$0-playback 100 float 3;
#A 0 1.06155 1.0154 1.0154 1.0154 1.0154 0.0307878 0.0692491 0.0769414
0.0923259 0.0974541 0.102582 0.10771 0.123095 0.13848 0.13848 0.153864
0.158992 0.16412 0.169249 0.174377 0.179505 0.184633 0.200018 0.211556
0.223094 0.234633 0.246171 0.253863 0.261556 0.27694 0.284633 0.292325
0.307709 0.323094 0.33335 0.343607 0.353863 0.353863 0.353863 0.353863
0.358991 0.364119 0.369247 0.369247 0.369247 0.369247 0.369247 0.373094
0.37694 0.380786 0.384632 0.387709 0.390786 0.393863 0.39694 0.400016
0.403863 0.407709 0.411555 0.415401 0.419247 0.423093 0.426939 0.430786
0.434632 0.438478 0.442324 0.44617 0.451298 0.456426 0.461555 0.469247
0.476939 0.484631 0.492324 0.500016 0.507708 0.538477 0.550785 0.563092
0.5754 0.587708 0.600015 0.619246 0.638477 0.657707 0.676938 0.698092
0.719245 0.740399 0.761553 0.782707 0.80386 0.825014 0.846168 0.866681
0.887193 0.907706 0.946167 0.984629;
#X coords 0 1 99 -0 70 65 1 0 0;
#X restore 283 104 graph;
#X obj 251 104 vsl 15 61 -0 10 0 0 \$0-playback-speed empty empty 0
-9 0 10 -262144 -1 -1 5300 1;
#X connect 0 0 2 0;
#X connect 2 0 3 0;
#X connect 4 0 5 0;
#X connect 4 1 6 0;
#X connect 4 2 7 0;
#X connect 12 0 13 0;
#X connect 13 0 14 0;
#X coords 0 -1 1 1 180 70 1 100 100;
