#N canvas 775 87 927 998 10;
#X floatatom 377 131 5 0 0 0 - - -;
#X floatatom 488 119 5 0 0 0 - - -;
#X obj 114 88 metro;
#X floatatom 597 120 5 0 0 0 - - -;
#X msg 715 19 hanning;
#X msg 728 39 none;
#X msg 739 58 decay;
#X msg 751 77 attack;
#X obj 706 197 tgl 15 0 empty empty empty 17 7 0 10 -262144 -1 -1 0
1;
#X text 739 198 1 == backwards;
#N canvas 65 92 927 998 voice1 0;
#X obj 14 73 t f f;
#X obj 14 98 + 1;
#X obj 14 53 * 2;
#X obj 15 126 t f f;
#X obj 42 186 % 2;
#X obj 15 236 spigot;
#X obj 79 237 spigot;
#X obj 42 214 == 0;
#X obj 112 215 == 1;
#X floatatom 15 268 5 0 0 0 - - -;
#X floatatom 79 282 7 0 0 0 - - -;
#X obj 15 591 vline~;
#X obj 79 301 t f f;
#N canvas 613 445 204 191 interval-to-ratio 0;
#X obj 10 73 t b f;
#X msg 10 102 2;
#X obj 10 127 pow;
#X obj 10 46 / 12;
#X obj 10 17 inlet;
#X obj 10 153 outlet;
#X text 60 154 speed ratio;
#X text 51 17 midinote;
#X connect 0 0 1 0;
#X connect 0 1 2 1;
#X connect 1 0 2 0;
#X connect 2 0 5 0;
#X connect 3 0 0 0;
#X connect 4 0 3 0;
#X restore 118 647 pd interval-to-ratio;
#X obj 74 625 sig~;
#X obj 15 329 t b f;
#X obj 15 393 f;
#X obj 13 772 +~;
#X obj 325 512 -;
#X obj 74 476 * 44.1;
#N canvas 65 102 1366 702 envelope 0;
#X obj 123 28 inlet~;
#X obj 73 285 outlet~;
#X obj 123 109 cos~;
#X obj 123 131 *~ 0.5;
#X obj 124 160 +~ 0.5;
#X obj 124 67 +~ 0.5;
#X obj 124 88 wrap~;
#X obj 179 115 sig~ 1;
#X obj 179 143 -~;
#X text 221 112 Ramp down;
#X text 173 66 hanning shaper;
#N canvas 270 162 785 300 multiplexer 0;
#X obj 25 114 *~;
#X obj 72 115 *~;
#X obj 115 116 *~;
#X obj 26 -34 inlet~;
#X obj 71 -34 inlet~;
#X obj 116 -33 inlet~;
#X obj 40 80 sig~;
#X obj 86 80 sig~;
#X obj 131 80 sig~;
#X obj 24 154 outlet~;
#X obj 223 -72 inlet;
#X obj 165 116 *~;
#X obj 166 -33 inlet~;
#X obj 181 80 sig~;
#X obj 223 63 unpack f f f f;
#X msg 254 38 0 0 0 1;
#X msg 223 -26 1 0 0 0;
#X msg 240 -4 0 1 0 0;
#X msg 257 18 0 0 1 0;
#X obj 223 -48 sel 0 1 2 3;
#X connect 0 0 9 0;
#X connect 1 0 9 0;
#X connect 2 0 9 0;
#X connect 3 0 0 0;
#X connect 4 0 1 0;
#X connect 5 0 2 0;
#X connect 6 0 0 1;
#X connect 7 0 1 1;
#X connect 8 0 2 1;
#X connect 10 0 19 0;
#X connect 11 0 9 0;
#X connect 12 0 11 0;
#X connect 13 0 11 1;
#X connect 14 0 6 0;
#X connect 14 1 7 0;
#X connect 14 2 8 0;
#X connect 14 3 13 0;
#X connect 15 0 14 0;
#X connect 16 0 14 0;
#X connect 17 0 14 0;
#X connect 18 0 14 0;
#X connect 19 0 16 0;
#X connect 19 1 17 0;
#X connect 19 2 18 0;
#X connect 19 3 15 0;
#X restore 124 233 pd multiplexer;
#X msg 307 172 0;
#X msg 308 192 1;
#X msg 309 216 2;
#X obj 307 121 inlet;
#X obj 74 258 *~;
#X obj 73 29 inlet~;
#X obj 185 194 sig~ 1;
#X obj 307 146 route hanning decay attack none;
#X msg 362 229 3;
#X connect 0 0 5 0;
#X connect 0 0 8 1;
#X connect 0 0 11 2;
#X connect 2 0 3 0;
#X connect 3 0 4 0;
#X connect 4 0 11 0;
#X connect 5 0 6 0;
#X connect 6 0 2 0;
#X connect 7 0 8 0;
#X connect 8 0 11 1;
#X connect 11 0 16 1;
#X connect 12 0 11 4;
#X connect 13 0 11 4;
#X connect 14 0 11 4;
#X connect 15 0 19 0;
#X connect 16 0 1 0;
#X connect 17 0 16 0;
#X connect 18 0 11 3;
#X connect 19 0 12 0;
#X connect 19 1 13 0;
#X connect 19 2 14 0;
#X connect 19 3 20 0;
#X connect 20 0 11 4;
#X restore 12 860 pd envelope;
#X msg 15 566 0 0 \, 1 \$1 0;
#X obj 15 427 t f f;
#X obj 15 670 *~;
#X obj 14 693 *~;
#X obj 309 687 samphold~;
#X obj 325 575 -;
#X obj 310 662 *~;
#N canvas 302 92 712 427 direction 0;
#X obj 259 105 inlet~;
#X obj 206 248 outlet~;
#X obj 243 205 *~;
#X obj 207 171 -~;
#X obj 203 136 sig~ 1;
#X floatatom 300 129 5 0 0 0 - - -;
#X obj 206 204 *~;
#X obj 320 188 == 0;
#X obj 318 155 r \$1-grain-direction;
#X connect 0 0 3 1;
#X connect 0 0 2 0;
#X connect 2 0 1 0;
#X connect 3 0 6 0;
#X connect 4 0 3 0;
#X connect 6 0 1 0;
#X connect 7 0 2 1;
#X connect 8 0 7 0;
#X connect 8 0 6 1;
#X restore 15 647 pd direction;
#X obj 13 728 +~;
#X obj 14 8 inlet;
#X floatatom 128 283 8 0 0 0 - - -;
#X obj 358 543 * 44.1;
#X obj 13 894 outlet~;
#X obj 75 836 r \$1-envelope;
#X obj 12 808 tabread4~ \$2-rec;
#X obj 310 620 receive~ \$0-gran-position;
#X obj 358 515 r \$1-grain-length;
#X obj 118 599 r \$1-grain-pitch;
#X obj 30 366 r \$1-grain-length;
#X obj 15 160 tabread \$2-cuepoints;
#X obj 118 693 samphold~;
#X obj 118 667 sig~;
#X connect 0 0 1 0;
#X connect 0 1 3 0;
#X connect 1 0 3 0;
#X connect 2 0 0 0;
#X connect 3 0 40 0;
#X connect 3 1 4 0;
#X connect 4 0 7 0;
#X connect 4 0 8 0;
#X connect 5 0 9 0;
#X connect 6 0 10 0;
#X connect 7 0 5 1;
#X connect 8 0 6 1;
#X connect 9 0 15 0;
#X connect 9 0 18 1;
#X connect 10 0 12 0;
#X connect 11 0 20 1;
#X connect 11 0 25 1;
#X connect 11 0 28 0;
#X connect 11 0 41 1;
#X connect 12 0 18 0;
#X connect 13 0 42 0;
#X connect 14 0 23 1;
#X connect 15 0 16 0;
#X connect 15 1 29 1;
#X connect 16 0 22 0;
#X connect 17 0 35 0;
#X connect 18 0 26 0;
#X connect 19 0 14 0;
#X connect 20 0 33 0;
#X connect 21 0 11 0;
#X connect 22 0 21 0;
#X connect 22 1 19 0;
#X connect 23 0 24 0;
#X connect 24 0 29 0;
#X connect 25 0 17 1;
#X connect 26 0 27 1;
#X connect 27 0 25 0;
#X connect 28 0 23 0;
#X connect 29 0 17 0;
#X connect 30 0 2 0;
#X connect 32 0 26 1;
#X connect 34 0 20 2;
#X connect 35 0 20 0;
#X connect 36 0 27 0;
#X connect 37 0 32 0;
#X connect 38 0 13 0;
#X connect 39 0 16 1;
#X connect 40 0 5 0;
#X connect 40 0 6 0;
#X connect 41 0 24 1;
#X connect 42 0 41 0;
#X restore 114 274 pd voice1;
#X obj 114 161 f;
#X floatatom 185 147 5 0 0 0 - - -;
#X obj 235 130 f;
#X obj 263 129 + 1;
#X obj 292 129 % 4;
#X obj 114 113 t b b;
#X obj 114 182 pack f f;
#X obj 114 226 route 0 1 2 3;
#X msg 114 203 \$2 \$1;
#X obj 141 66 / 4;
#X floatatom 222 93 5 0 0 0 - - -;
#X obj 406 240 phasor~;
#N canvas 578 196 450 300 init 0;
#X obj 50 8 loadbang;
#X obj 50 30 symbol \$1;
#X msg 49 66 \; \$1-grain-direction 0 \; \$1-grain-pitch 0 \; \$1-envelope
hanning \; \$1-grain-length 40 \; \$1-play-speed 0.1 \; \$1-metro 0
\;;
#X connect 0 0 1 0;
#X connect 1 0 2 0;
#X restore 113 -58 pd init;
#X obj 141 44 r \$1-grain-length;
#X obj 197 65 r \$1-slices_snd;
#X obj 114 19 r \$1-metro;
#X obj 406 210 r \$1-play-speed;
#X obj 377 150 s \$1-grain-length;
#X obj 488 150 s \$1-play-speed;
#X obj 597 151 s \$1-grain-pitch;
#X obj 715 150 s \$1-envelope;
#X obj 706 230 s \$1-grain-direction;
#X obj 113 335 outlet~;
#X obj 406 260 send~ \$0-gran-position;
#N canvas 65 92 927 998 voice1 0;
#X obj 14 73 t f f;
#X obj 14 98 + 1;
#X obj 14 53 * 2;
#X obj 15 126 t f f;
#X obj 42 186 % 2;
#X obj 15 236 spigot;
#X obj 79 237 spigot;
#X obj 42 214 == 0;
#X obj 112 215 == 1;
#X floatatom 15 268 5 0 0 0 - - -;
#X floatatom 79 282 7 0 0 0 - - -;
#X obj 15 591 vline~;
#X obj 79 301 t f f;
#N canvas 613 445 204 191 interval-to-ratio 0;
#X obj 10 73 t b f;
#X msg 10 102 2;
#X obj 10 127 pow;
#X obj 10 46 / 12;
#X obj 10 17 inlet;
#X obj 10 153 outlet;
#X text 60 154 speed ratio;
#X text 51 17 midinote;
#X connect 0 0 1 0;
#X connect 0 1 2 1;
#X connect 1 0 2 0;
#X connect 2 0 5 0;
#X connect 3 0 0 0;
#X connect 4 0 3 0;
#X restore 118 647 pd interval-to-ratio;
#X obj 74 625 sig~;
#X obj 15 329 t b f;
#X obj 15 393 f;
#X obj 13 772 +~;
#X obj 325 512 -;
#X obj 74 476 * 44.1;
#N canvas 65 102 1366 702 envelope 0;
#X obj 123 28 inlet~;
#X obj 73 285 outlet~;
#X obj 123 109 cos~;
#X obj 123 131 *~ 0.5;
#X obj 124 160 +~ 0.5;
#X obj 124 67 +~ 0.5;
#X obj 124 88 wrap~;
#X obj 179 115 sig~ 1;
#X obj 179 143 -~;
#X text 221 112 Ramp down;
#X text 173 66 hanning shaper;
#N canvas 270 162 785 300 multiplexer 0;
#X obj 25 114 *~;
#X obj 72 115 *~;
#X obj 115 116 *~;
#X obj 26 -34 inlet~;
#X obj 71 -34 inlet~;
#X obj 116 -33 inlet~;
#X obj 40 80 sig~;
#X obj 86 80 sig~;
#X obj 131 80 sig~;
#X obj 24 154 outlet~;
#X obj 223 -72 inlet;
#X obj 165 116 *~;
#X obj 166 -33 inlet~;
#X obj 181 80 sig~;
#X obj 223 63 unpack f f f f;
#X msg 254 38 0 0 0 1;
#X msg 223 -26 1 0 0 0;
#X msg 240 -4 0 1 0 0;
#X msg 257 18 0 0 1 0;
#X obj 223 -48 sel 0 1 2 3;
#X connect 0 0 9 0;
#X connect 1 0 9 0;
#X connect 2 0 9 0;
#X connect 3 0 0 0;
#X connect 4 0 1 0;
#X connect 5 0 2 0;
#X connect 6 0 0 1;
#X connect 7 0 1 1;
#X connect 8 0 2 1;
#X connect 10 0 19 0;
#X connect 11 0 9 0;
#X connect 12 0 11 0;
#X connect 13 0 11 1;
#X connect 14 0 6 0;
#X connect 14 1 7 0;
#X connect 14 2 8 0;
#X connect 14 3 13 0;
#X connect 15 0 14 0;
#X connect 16 0 14 0;
#X connect 17 0 14 0;
#X connect 18 0 14 0;
#X connect 19 0 16 0;
#X connect 19 1 17 0;
#X connect 19 2 18 0;
#X connect 19 3 15 0;
#X restore 124 233 pd multiplexer;
#X msg 307 172 0;
#X msg 308 192 1;
#X msg 309 216 2;
#X obj 307 121 inlet;
#X obj 74 258 *~;
#X obj 73 29 inlet~;
#X obj 185 194 sig~ 1;
#X obj 307 146 route hanning decay attack none;
#X msg 362 229 3;
#X connect 0 0 5 0;
#X connect 0 0 8 1;
#X connect 0 0 11 2;
#X connect 2 0 3 0;
#X connect 3 0 4 0;
#X connect 4 0 11 0;
#X connect 5 0 6 0;
#X connect 6 0 2 0;
#X connect 7 0 8 0;
#X connect 8 0 11 1;
#X connect 11 0 16 1;
#X connect 12 0 11 4;
#X connect 13 0 11 4;
#X connect 14 0 11 4;
#X connect 15 0 19 0;
#X connect 16 0 1 0;
#X connect 17 0 16 0;
#X connect 18 0 11 3;
#X connect 19 0 12 0;
#X connect 19 1 13 0;
#X connect 19 2 14 0;
#X connect 19 3 20 0;
#X connect 20 0 11 4;
#X restore 12 860 pd envelope;
#X msg 15 566 0 0 \, 1 \$1 0;
#X obj 15 427 t f f;
#X obj 15 670 *~;
#X obj 14 693 *~;
#X obj 309 687 samphold~;
#X obj 325 575 -;
#X obj 310 662 *~;
#N canvas 302 92 712 427 direction 0;
#X obj 259 105 inlet~;
#X obj 206 248 outlet~;
#X obj 243 205 *~;
#X obj 207 171 -~;
#X obj 203 136 sig~ 1;
#X floatatom 300 129 5 0 0 0 - - -;
#X obj 206 204 *~;
#X obj 320 188 == 0;
#X obj 318 155 r \$1-grain-direction;
#X connect 0 0 3 1;
#X connect 0 0 2 0;
#X connect 2 0 1 0;
#X connect 3 0 6 0;
#X connect 4 0 3 0;
#X connect 6 0 1 0;
#X connect 7 0 2 1;
#X connect 8 0 7 0;
#X connect 8 0 6 1;
#X restore 15 647 pd direction;
#X obj 13 728 +~;
#X obj 14 8 inlet;
#X floatatom 128 283 8 0 0 0 - - -;
#X obj 358 543 * 44.1;
#X obj 13 894 outlet~;
#X obj 75 836 r \$1-envelope;
#X obj 12 808 tabread4~ \$2-rec;
#X obj 310 620 receive~ \$0-gran-position;
#X obj 358 515 r \$1-grain-length;
#X obj 118 599 r \$1-grain-pitch;
#X obj 30 366 r \$1-grain-length;
#X obj 15 160 tabread \$2-cuepoints;
#X obj 118 693 samphold~;
#X obj 118 667 sig~;
#X connect 0 0 1 0;
#X connect 0 1 3 0;
#X connect 1 0 3 0;
#X connect 2 0 0 0;
#X connect 3 0 40 0;
#X connect 3 1 4 0;
#X connect 4 0 7 0;
#X connect 4 0 8 0;
#X connect 5 0 9 0;
#X connect 6 0 10 0;
#X connect 7 0 5 1;
#X connect 8 0 6 1;
#X connect 9 0 15 0;
#X connect 9 0 18 1;
#X connect 10 0 12 0;
#X connect 11 0 20 1;
#X connect 11 0 25 1;
#X connect 11 0 28 0;
#X connect 11 0 41 1;
#X connect 12 0 18 0;
#X connect 13 0 42 0;
#X connect 14 0 23 1;
#X connect 15 0 16 0;
#X connect 15 1 29 1;
#X connect 16 0 22 0;
#X connect 17 0 35 0;
#X connect 18 0 26 0;
#X connect 19 0 14 0;
#X connect 20 0 33 0;
#X connect 21 0 11 0;
#X connect 22 0 21 0;
#X connect 22 1 19 0;
#X connect 23 0 24 0;
#X connect 24 0 29 0;
#X connect 25 0 17 1;
#X connect 26 0 27 1;
#X connect 27 0 25 0;
#X connect 28 0 23 0;
#X connect 29 0 17 0;
#X connect 30 0 2 0;
#X connect 32 0 26 1;
#X connect 34 0 20 2;
#X connect 35 0 20 0;
#X connect 36 0 27 0;
#X connect 37 0 32 0;
#X connect 38 0 13 0;
#X connect 39 0 16 1;
#X connect 40 0 5 0;
#X connect 40 0 6 0;
#X connect 41 0 24 1;
#X connect 42 0 41 0;
#X restore 183 274 pd voice1;
#N canvas 65 92 927 998 voice1 0;
#X obj 14 73 t f f;
#X obj 14 98 + 1;
#X obj 14 53 * 2;
#X obj 15 126 t f f;
#X obj 42 186 % 2;
#X obj 15 236 spigot;
#X obj 79 237 spigot;
#X obj 42 214 == 0;
#X obj 112 215 == 1;
#X floatatom 15 268 5 0 0 0 - - -;
#X floatatom 79 282 7 0 0 0 - - -;
#X obj 15 591 vline~;
#X obj 79 301 t f f;
#N canvas 613 445 204 191 interval-to-ratio 0;
#X obj 10 73 t b f;
#X msg 10 102 2;
#X obj 10 127 pow;
#X obj 10 46 / 12;
#X obj 10 17 inlet;
#X obj 10 153 outlet;
#X text 60 154 speed ratio;
#X text 51 17 midinote;
#X connect 0 0 1 0;
#X connect 0 1 2 1;
#X connect 1 0 2 0;
#X connect 2 0 5 0;
#X connect 3 0 0 0;
#X connect 4 0 3 0;
#X restore 118 647 pd interval-to-ratio;
#X obj 74 625 sig~;
#X obj 15 329 t b f;
#X obj 15 393 f;
#X obj 13 772 +~;
#X obj 325 512 -;
#X obj 74 476 * 44.1;
#N canvas 65 102 1366 702 envelope 0;
#X obj 123 28 inlet~;
#X obj 73 285 outlet~;
#X obj 123 109 cos~;
#X obj 123 131 *~ 0.5;
#X obj 124 160 +~ 0.5;
#X obj 124 67 +~ 0.5;
#X obj 124 88 wrap~;
#X obj 179 115 sig~ 1;
#X obj 179 143 -~;
#X text 221 112 Ramp down;
#X text 173 66 hanning shaper;
#N canvas 270 162 785 300 multiplexer 0;
#X obj 25 114 *~;
#X obj 72 115 *~;
#X obj 115 116 *~;
#X obj 26 -34 inlet~;
#X obj 71 -34 inlet~;
#X obj 116 -33 inlet~;
#X obj 40 80 sig~;
#X obj 86 80 sig~;
#X obj 131 80 sig~;
#X obj 24 154 outlet~;
#X obj 223 -72 inlet;
#X obj 165 116 *~;
#X obj 166 -33 inlet~;
#X obj 181 80 sig~;
#X obj 223 63 unpack f f f f;
#X msg 254 38 0 0 0 1;
#X msg 223 -26 1 0 0 0;
#X msg 240 -4 0 1 0 0;
#X msg 257 18 0 0 1 0;
#X obj 223 -48 sel 0 1 2 3;
#X connect 0 0 9 0;
#X connect 1 0 9 0;
#X connect 2 0 9 0;
#X connect 3 0 0 0;
#X connect 4 0 1 0;
#X connect 5 0 2 0;
#X connect 6 0 0 1;
#X connect 7 0 1 1;
#X connect 8 0 2 1;
#X connect 10 0 19 0;
#X connect 11 0 9 0;
#X connect 12 0 11 0;
#X connect 13 0 11 1;
#X connect 14 0 6 0;
#X connect 14 1 7 0;
#X connect 14 2 8 0;
#X connect 14 3 13 0;
#X connect 15 0 14 0;
#X connect 16 0 14 0;
#X connect 17 0 14 0;
#X connect 18 0 14 0;
#X connect 19 0 16 0;
#X connect 19 1 17 0;
#X connect 19 2 18 0;
#X connect 19 3 15 0;
#X restore 124 233 pd multiplexer;
#X msg 307 172 0;
#X msg 308 192 1;
#X msg 309 216 2;
#X obj 307 121 inlet;
#X obj 74 258 *~;
#X obj 73 29 inlet~;
#X obj 185 194 sig~ 1;
#X obj 307 146 route hanning decay attack none;
#X msg 362 229 3;
#X connect 0 0 5 0;
#X connect 0 0 8 1;
#X connect 0 0 11 2;
#X connect 2 0 3 0;
#X connect 3 0 4 0;
#X connect 4 0 11 0;
#X connect 5 0 6 0;
#X connect 6 0 2 0;
#X connect 7 0 8 0;
#X connect 8 0 11 1;
#X connect 11 0 16 1;
#X connect 12 0 11 4;
#X connect 13 0 11 4;
#X connect 14 0 11 4;
#X connect 15 0 19 0;
#X connect 16 0 1 0;
#X connect 17 0 16 0;
#X connect 18 0 11 3;
#X connect 19 0 12 0;
#X connect 19 1 13 0;
#X connect 19 2 14 0;
#X connect 19 3 20 0;
#X connect 20 0 11 4;
#X restore 12 860 pd envelope;
#X msg 15 566 0 0 \, 1 \$1 0;
#X obj 15 427 t f f;
#X obj 15 670 *~;
#X obj 14 693 *~;
#X obj 309 687 samphold~;
#X obj 325 575 -;
#X obj 310 662 *~;
#N canvas 302 92 712 427 direction 0;
#X obj 259 105 inlet~;
#X obj 206 248 outlet~;
#X obj 243 205 *~;
#X obj 207 171 -~;
#X obj 203 136 sig~ 1;
#X floatatom 300 129 5 0 0 0 - - -;
#X obj 206 204 *~;
#X obj 320 188 == 0;
#X obj 318 155 r \$1-grain-direction;
#X connect 0 0 3 1;
#X connect 0 0 2 0;
#X connect 2 0 1 0;
#X connect 3 0 6 0;
#X connect 4 0 3 0;
#X connect 6 0 1 0;
#X connect 7 0 2 1;
#X connect 8 0 7 0;
#X connect 8 0 6 1;
#X restore 15 647 pd direction;
#X obj 13 728 +~;
#X obj 14 8 inlet;
#X floatatom 128 283 8 0 0 0 - - -;
#X obj 358 543 * 44.1;
#X obj 13 894 outlet~;
#X obj 75 836 r \$1-envelope;
#X obj 12 808 tabread4~ \$2-rec;
#X obj 310 620 receive~ \$0-gran-position;
#X obj 358 515 r \$1-grain-length;
#X obj 118 599 r \$1-grain-pitch;
#X obj 30 366 r \$1-grain-length;
#X obj 15 160 tabread \$2-cuepoints;
#X obj 118 693 samphold~;
#X obj 118 667 sig~;
#X connect 0 0 1 0;
#X connect 0 1 3 0;
#X connect 1 0 3 0;
#X connect 2 0 0 0;
#X connect 3 0 40 0;
#X connect 3 1 4 0;
#X connect 4 0 7 0;
#X connect 4 0 8 0;
#X connect 5 0 9 0;
#X connect 6 0 10 0;
#X connect 7 0 5 1;
#X connect 8 0 6 1;
#X connect 9 0 15 0;
#X connect 9 0 18 1;
#X connect 10 0 12 0;
#X connect 11 0 20 1;
#X connect 11 0 25 1;
#X connect 11 0 28 0;
#X connect 11 0 41 1;
#X connect 12 0 18 0;
#X connect 13 0 42 0;
#X connect 14 0 23 1;
#X connect 15 0 16 0;
#X connect 15 1 29 1;
#X connect 16 0 22 0;
#X connect 17 0 35 0;
#X connect 18 0 26 0;
#X connect 19 0 14 0;
#X connect 20 0 33 0;
#X connect 21 0 11 0;
#X connect 22 0 21 0;
#X connect 22 1 19 0;
#X connect 23 0 24 0;
#X connect 24 0 29 0;
#X connect 25 0 17 1;
#X connect 26 0 27 1;
#X connect 27 0 25 0;
#X connect 28 0 23 0;
#X connect 29 0 17 0;
#X connect 30 0 2 0;
#X connect 32 0 26 1;
#X connect 34 0 20 2;
#X connect 35 0 20 0;
#X connect 36 0 27 0;
#X connect 37 0 32 0;
#X connect 38 0 13 0;
#X connect 39 0 16 1;
#X connect 40 0 5 0;
#X connect 40 0 6 0;
#X connect 41 0 24 1;
#X connect 42 0 41 0;
#X restore 247 276 pd voice1;
#N canvas 65 92 927 998 voice1 0;
#X obj 14 73 t f f;
#X obj 14 98 + 1;
#X obj 14 53 * 2;
#X obj 15 126 t f f;
#X obj 42 186 % 2;
#X obj 15 236 spigot;
#X obj 79 237 spigot;
#X obj 42 214 == 0;
#X obj 112 215 == 1;
#X floatatom 15 268 5 0 0 0 - - -;
#X floatatom 79 282 7 0 0 0 - - -;
#X obj 15 591 vline~;
#X obj 79 301 t f f;
#N canvas 613 445 204 191 interval-to-ratio 0;
#X obj 10 73 t b f;
#X msg 10 102 2;
#X obj 10 127 pow;
#X obj 10 46 / 12;
#X obj 10 17 inlet;
#X obj 10 153 outlet;
#X text 60 154 speed ratio;
#X text 51 17 midinote;
#X connect 0 0 1 0;
#X connect 0 1 2 1;
#X connect 1 0 2 0;
#X connect 2 0 5 0;
#X connect 3 0 0 0;
#X connect 4 0 3 0;
#X restore 118 647 pd interval-to-ratio;
#X obj 74 625 sig~;
#X obj 15 329 t b f;
#X obj 15 393 f;
#X obj 13 772 +~;
#X obj 325 512 -;
#X obj 74 476 * 44.1;
#N canvas 65 102 1366 702 envelope 0;
#X obj 123 28 inlet~;
#X obj 73 285 outlet~;
#X obj 123 109 cos~;
#X obj 123 131 *~ 0.5;
#X obj 124 160 +~ 0.5;
#X obj 124 67 +~ 0.5;
#X obj 124 88 wrap~;
#X obj 179 115 sig~ 1;
#X obj 179 143 -~;
#X text 221 112 Ramp down;
#X text 173 66 hanning shaper;
#N canvas 270 162 785 300 multiplexer 0;
#X obj 25 114 *~;
#X obj 72 115 *~;
#X obj 115 116 *~;
#X obj 26 -34 inlet~;
#X obj 71 -34 inlet~;
#X obj 116 -33 inlet~;
#X obj 40 80 sig~;
#X obj 86 80 sig~;
#X obj 131 80 sig~;
#X obj 24 154 outlet~;
#X obj 223 -72 inlet;
#X obj 165 116 *~;
#X obj 166 -33 inlet~;
#X obj 181 80 sig~;
#X obj 223 63 unpack f f f f;
#X msg 254 38 0 0 0 1;
#X msg 223 -26 1 0 0 0;
#X msg 240 -4 0 1 0 0;
#X msg 257 18 0 0 1 0;
#X obj 223 -48 sel 0 1 2 3;
#X connect 0 0 9 0;
#X connect 1 0 9 0;
#X connect 2 0 9 0;
#X connect 3 0 0 0;
#X connect 4 0 1 0;
#X connect 5 0 2 0;
#X connect 6 0 0 1;
#X connect 7 0 1 1;
#X connect 8 0 2 1;
#X connect 10 0 19 0;
#X connect 11 0 9 0;
#X connect 12 0 11 0;
#X connect 13 0 11 1;
#X connect 14 0 6 0;
#X connect 14 1 7 0;
#X connect 14 2 8 0;
#X connect 14 3 13 0;
#X connect 15 0 14 0;
#X connect 16 0 14 0;
#X connect 17 0 14 0;
#X connect 18 0 14 0;
#X connect 19 0 16 0;
#X connect 19 1 17 0;
#X connect 19 2 18 0;
#X connect 19 3 15 0;
#X restore 124 233 pd multiplexer;
#X msg 307 172 0;
#X msg 308 192 1;
#X msg 309 216 2;
#X obj 307 121 inlet;
#X obj 74 258 *~;
#X obj 73 29 inlet~;
#X obj 185 194 sig~ 1;
#X obj 307 146 route hanning decay attack none;
#X msg 362 229 3;
#X connect 0 0 5 0;
#X connect 0 0 8 1;
#X connect 0 0 11 2;
#X connect 2 0 3 0;
#X connect 3 0 4 0;
#X connect 4 0 11 0;
#X connect 5 0 6 0;
#X connect 6 0 2 0;
#X connect 7 0 8 0;
#X connect 8 0 11 1;
#X connect 11 0 16 1;
#X connect 12 0 11 4;
#X connect 13 0 11 4;
#X connect 14 0 11 4;
#X connect 15 0 19 0;
#X connect 16 0 1 0;
#X connect 17 0 16 0;
#X connect 18 0 11 3;
#X connect 19 0 12 0;
#X connect 19 1 13 0;
#X connect 19 2 14 0;
#X connect 19 3 20 0;
#X connect 20 0 11 4;
#X restore 12 860 pd envelope;
#X msg 15 566 0 0 \, 1 \$1 0;
#X obj 15 427 t f f;
#X obj 15 670 *~;
#X obj 14 693 *~;
#X obj 309 687 samphold~;
#X obj 325 575 -;
#X obj 310 662 *~;
#N canvas 302 92 712 427 direction 0;
#X obj 259 105 inlet~;
#X obj 206 248 outlet~;
#X obj 243 205 *~;
#X obj 207 171 -~;
#X obj 203 136 sig~ 1;
#X floatatom 300 129 5 0 0 0 - - -;
#X obj 206 204 *~;
#X obj 320 188 == 0;
#X obj 318 155 r \$1-grain-direction;
#X connect 0 0 3 1;
#X connect 0 0 2 0;
#X connect 2 0 1 0;
#X connect 3 0 6 0;
#X connect 4 0 3 0;
#X connect 6 0 1 0;
#X connect 7 0 2 1;
#X connect 8 0 7 0;
#X connect 8 0 6 1;
#X restore 15 647 pd direction;
#X obj 13 728 +~;
#X obj 14 8 inlet;
#X floatatom 128 283 8 0 0 0 - - -;
#X obj 358 543 * 44.1;
#X obj 13 894 outlet~;
#X obj 75 836 r \$1-envelope;
#X obj 12 808 tabread4~ \$2-rec;
#X obj 310 620 receive~ \$0-gran-position;
#X obj 358 515 r \$1-grain-length;
#X obj 118 599 r \$1-grain-pitch;
#X obj 30 366 r \$1-grain-length;
#X obj 15 160 tabread \$2-cuepoints;
#X obj 118 693 samphold~;
#X obj 118 667 sig~;
#X connect 0 0 1 0;
#X connect 0 1 3 0;
#X connect 1 0 3 0;
#X connect 2 0 0 0;
#X connect 3 0 40 0;
#X connect 3 1 4 0;
#X connect 4 0 7 0;
#X connect 4 0 8 0;
#X connect 5 0 9 0;
#X connect 6 0 10 0;
#X connect 7 0 5 1;
#X connect 8 0 6 1;
#X connect 9 0 15 0;
#X connect 9 0 18 1;
#X connect 10 0 12 0;
#X connect 11 0 20 1;
#X connect 11 0 25 1;
#X connect 11 0 28 0;
#X connect 11 0 41 1;
#X connect 12 0 18 0;
#X connect 13 0 42 0;
#X connect 14 0 23 1;
#X connect 15 0 16 0;
#X connect 15 1 29 1;
#X connect 16 0 22 0;
#X connect 17 0 35 0;
#X connect 18 0 26 0;
#X connect 19 0 14 0;
#X connect 20 0 33 0;
#X connect 21 0 11 0;
#X connect 22 0 21 0;
#X connect 22 1 19 0;
#X connect 23 0 24 0;
#X connect 24 0 29 0;
#X connect 25 0 17 1;
#X connect 26 0 27 1;
#X connect 27 0 25 0;
#X connect 28 0 23 0;
#X connect 29 0 17 0;
#X connect 30 0 2 0;
#X connect 32 0 26 1;
#X connect 34 0 20 2;
#X connect 35 0 20 0;
#X connect 36 0 27 0;
#X connect 37 0 32 0;
#X connect 38 0 13 0;
#X connect 39 0 16 1;
#X connect 40 0 5 0;
#X connect 40 0 6 0;
#X connect 41 0 24 1;
#X connect 42 0 41 0;
#X restore 316 274 pd voice1;
#X connect 0 0 28 0;
#X connect 1 0 29 0;
#X connect 2 0 16 0;
#X connect 3 0 30 0;
#X connect 4 0 31 0;
#X connect 5 0 31 0;
#X connect 6 0 31 0;
#X connect 7 0 31 0;
#X connect 8 0 32 0;
#X connect 10 0 33 0;
#X connect 11 0 17 0;
#X connect 12 0 11 1;
#X connect 13 0 14 0;
#X connect 13 0 17 1;
#X connect 14 0 15 0;
#X connect 15 0 13 1;
#X connect 16 0 11 0;
#X connect 16 1 13 0;
#X connect 17 0 19 0;
#X connect 18 0 10 0;
#X connect 18 1 35 0;
#X connect 18 2 36 0;
#X connect 18 3 37 0;
#X connect 19 0 18 0;
#X connect 20 0 2 1;
#X connect 21 0 11 1;
#X connect 22 0 34 0;
#X connect 24 0 20 0;
#X connect 25 0 21 0;
#X connect 26 0 2 0;
#X connect 27 0 22 0;
#X connect 35 0 33 0;
#X connect 36 0 33 0;
#X connect 37 0 33 0;
