#N canvas 685 87 650 686 10;
#X obj 124 205 textfile;
#X msg 330 166 bang;
#X msg 365 167 rewind;
#X obj 91 301 list length;
#X obj 91 282 gate 2;
#X msg 364 265 1;
#X obj 56 147 until;
#X msg 56 167 bang;
#X msg 135 55 2;
#X obj 108 564 soundfiler;
#X obj 330 40 loadbang;
#X obj 330 68 symbol \$1;
#X msg 330 92 read \$1/samples.txt;
#X obj 435 53 bng 15 250 50 0 empty empty empty 17 7 0 10 -262144 -1
-1;
#X obj 330 122 t b b b a;
#X obj 197 328 f;
#X obj 197 351 + 1;
#X floatatom 197 372 5 0 0 0 - - -;
#X msg 151 31 0;
#X obj 152 457 sprintf %s%i;
#X obj 152 435 symbol \$2;
#X obj 197 394 t b f;
#X obj 108 513 pack s s;
#X obj 119 79 symbol \$1;
#X msg 119 100 read \$1/samples.txt cr;
#X msg 95 120 rewind;
#X obj 88 4 t f b b b b;
#X obj 169 299 t a b;
#X obj 108 403 prepend symbol;
#X obj 152 479 prepend symbol;
#X obj 108 632 tabwrite \$2-samples;
#X obj 360 569 table \$2-samples;
#X text 406 122 Check how many elemts are in the textfile;
#X text 142 136 Read all lines of txt.;
#X text 160 146 sequentially;
#X obj 108 359 symbol \$1;
#X obj 108 338 t b a;
#X obj 108 380 sprintf %s/%s;
#X obj 244 634 outlet;
#X msg 108 541 read -resize \$1 \$2;
#X floatatom 39 47 5 0 0 0 - - -;
#X connect 0 0 4 1;
#X connect 1 0 0 0;
#X connect 2 0 0 0;
#X connect 3 0 26 0;
#X connect 4 0 3 0;
#X connect 4 1 27 0;
#X connect 5 0 4 0;
#X connect 6 0 7 0;
#X connect 7 0 0 0;
#X connect 8 0 4 0;
#X connect 9 0 30 0;
#X connect 10 0 11 0;
#X connect 11 0 12 0;
#X connect 12 0 14 0;
#X connect 13 0 11 0;
#X connect 14 0 1 0;
#X connect 14 1 2 0;
#X connect 14 2 5 0;
#X connect 14 3 0 0;
#X connect 15 0 16 0;
#X connect 16 0 15 1;
#X connect 16 0 17 0;
#X connect 17 0 21 0;
#X connect 18 0 15 1;
#X connect 19 0 29 0;
#X connect 20 0 19 0;
#X connect 21 0 20 0;
#X connect 21 1 19 1;
#X connect 21 1 30 1;
#X connect 22 0 39 0;
#X connect 23 0 24 0;
#X connect 24 0 0 0;
#X connect 25 0 0 0;
#X connect 26 0 6 0;
#X connect 26 0 40 0;
#X connect 26 1 25 0;
#X connect 26 2 23 0;
#X connect 26 3 8 0;
#X connect 26 4 18 0;
#X connect 27 0 36 0;
#X connect 27 0 38 0;
#X connect 27 1 15 0;
#X connect 28 0 22 0;
#X connect 29 0 22 1;
#X connect 35 0 37 0;
#X connect 36 0 35 0;
#X connect 36 1 37 1;
#X connect 37 0 28 0;
#X connect 39 0 9 0;
