#N canvas 522 116 814 636 10;
#N canvas 0 50 450 300 (subpatch) 0;
#X array \$0-sample-monitor 100 float 3;
#A 0 0 0 0 0 0 0 0 0 0 0 0 0 0 0 0 0 0 0 0 0 0 0 0 0 0 0 0 0 0 0 0
0 0 0 0 0 0 0 0 0 0 0 0 0 0 0 0 0 0 0 0 0 0 0 0 0 0 0 0 0 0 0 0 0 0
0 0 0 0 0 0 0 0 0 0 0 0 0 0 0 0 0 0 0 0 0 0 0 0 0 0 0 0 0 0 0 0 0 0
0;
#X coords 0 1 99 -1 100 60 1 0 0;
#X restore 105 105 graph;
#X obj 552 178 catch~ \$0-out;
#X obj 552 265 outlet~;
#X obj 434 134 table \$0-table1;
#X obj 434 154 table \$0-table2;
#X obj 434 174 table \$0-table3;
#X obj 434 193 table \$0-table4;
#X obj 434 213 table \$0-table5;
#X obj 434 233 table \$0-table6;
#X obj 434 253 table \$0-table7;
#X obj 434 273 table \$0-table8;
#X obj 546 134 load ../samples/\$1 \$0-table;
#X obj 254 106 vsl 15 62 0 1 0 0 \$0-vol empty empty 0 -9 0 10 -262144
-1 -1 6100 1;
#X obj 254 57 loadbang;
#X msg 254 79 1;
#N canvas 65 85 450 300 init 0;
#X restore 434 115 pd init;
#X obj 553 226 *~ 1;
#X obj 613 209 r \$0-vol;
#N canvas 676 105 651 687 voice1 0;
#X obj 107 462 s_simpler;
#X obj 106 575 throw~ \$0-out;
#X obj 107 550 *~ 1;
#X obj 158 402 pack f \$0;
#X msg 158 426 buffer \$2-table\$1;
#X obj 158 340 + 1;
#X msg 279 426 loop \$1;
#X obj 107 167 r \$0-event-seq1;
#X obj 279 394 r \$0-loop1;
#X obj 107 194 unpack f f f;
#X obj 107 236 pack f f;
#X obj 107 215 + 0;
#X obj 201 216 r \$0-mainpitch;
#X msg 371 428 interrupt \$1;
#X obj 371 357 r \$0-interrupt;
#X connect 0 0 2 0;
#X connect 2 0 1 0;
#X connect 3 0 4 0;
#X connect 4 0 0 1;
#X connect 5 0 3 0;
#X connect 6 0 0 1;
#X connect 7 0 9 0;
#X connect 8 0 6 0;
#X connect 9 0 11 0;
#X connect 9 1 10 1;
#X connect 9 2 5 0;
#X connect 10 0 0 0;
#X connect 11 0 10 0;
#X connect 12 0 11 1;
#X connect 13 0 0 1;
#X connect 14 0 13 0;
#X restore 98 194 pd voice1;
#N canvas 65 89 450 300 trigger 0;
#X obj 49 29 inlet;
#X obj 81 81 f;
#X obj 109 81 + 1;
#X obj 138 81 % 4;
#X obj 49 58 t l b;
#X obj 49 149 s;
#X obj 81 106 pack f \$0;
#X msg 81 130 symbol \$2-event-seq\$1;
#X connect 0 0 4 0;
#X connect 1 0 2 0;
#X connect 2 0 3 0;
#X connect 2 0 6 0;
#X connect 3 0 1 1;
#X connect 4 0 5 0;
#X connect 4 1 1 0;
#X connect 6 0 7 0;
#X connect 7 0 5 1;
#X restore 94 53 pd trigger;
#X obj 94 30 inlet;
#N canvas 685 93 651 687 voice2 0;
#X obj 106 575 throw~ \$0-out;
#X obj 107 550 *~ 1;
#X obj 158 402 pack f \$0;
#X msg 158 426 buffer \$2-table\$1;
#X obj 158 340 + 1;
#X msg 279 426 loop \$1;
#X obj 279 394 r \$0-loop1;
#X obj 107 194 unpack f f f;
#X obj 107 236 pack f f;
#X obj 107 167 r \$0-event-seq2;
#X obj 107 215 + 0;
#X obj 201 216 r \$0-mainpitch;
#X obj 107 462 s_simpler;
#X msg 371 428 interrupt \$1;
#X obj 371 357 r \$0-interrupt;
#X connect 1 0 0 0;
#X connect 2 0 3 0;
#X connect 3 0 12 1;
#X connect 4 0 2 0;
#X connect 5 0 12 1;
#X connect 6 0 5 0;
#X connect 7 0 10 0;
#X connect 7 1 8 1;
#X connect 7 2 4 0;
#X connect 8 0 12 0;
#X connect 9 0 7 0;
#X connect 10 0 8 0;
#X connect 11 0 10 1;
#X connect 12 0 1 0;
#X connect 13 0 12 1;
#X connect 14 0 13 0;
#X restore 98 213 pd voice2;
#N canvas 688 89 651 687 voice3 0;
#X obj 106 575 throw~ \$0-out;
#X obj 107 550 *~ 1;
#X obj 158 402 pack f \$0;
#X msg 158 426 buffer \$2-table\$1;
#X obj 158 340 + 1;
#X msg 279 426 loop \$1;
#X obj 279 394 r \$0-loop1;
#X obj 107 194 unpack f f f;
#X obj 107 236 pack f f;
#X obj 107 168 r \$0-event-seq3;
#X obj 107 215 + 0;
#X obj 201 216 r \$0-mainpitch;
#X obj 107 462 s_simpler;
#X msg 371 428 interrupt \$1;
#X obj 371 357 r \$0-interrupt;
#X connect 1 0 0 0;
#X connect 2 0 3 0;
#X connect 3 0 12 1;
#X connect 4 0 2 0;
#X connect 5 0 12 1;
#X connect 6 0 5 0;
#X connect 7 0 10 0;
#X connect 7 1 8 1;
#X connect 7 2 4 0;
#X connect 8 0 12 0;
#X connect 9 0 7 0;
#X connect 10 0 8 0;
#X connect 11 0 10 1;
#X connect 12 0 1 0;
#X connect 13 0 12 1;
#X connect 14 0 13 0;
#X restore 98 232 pd voice3;
#N canvas 691 85 651 687 voice4 0;
#X obj 106 575 throw~ \$0-out;
#X obj 107 550 *~ 1;
#X obj 158 402 pack f \$0;
#X msg 158 426 buffer \$2-table\$1;
#X obj 158 340 + 1;
#X msg 279 426 loop \$1;
#X obj 279 394 r \$0-loop1;
#X obj 107 194 unpack f f f;
#X obj 107 236 pack f f;
#X obj 107 167 r \$0-event-seq4;
#X obj 107 215 + 0;
#X obj 201 216 r \$0-mainpitch;
#X obj 107 462 s_simpler;
#X msg 371 428 interrupt \$1;
#X obj 371 395 r \$0-interrupt;
#X connect 1 0 0 0;
#X connect 2 0 3 0;
#X connect 3 0 12 1;
#X connect 4 0 2 0;
#X connect 5 0 12 1;
#X connect 6 0 5 0;
#X connect 7 0 10 0;
#X connect 7 1 8 1;
#X connect 7 2 4 0;
#X connect 8 0 12 0;
#X connect 9 0 7 0;
#X connect 10 0 8 0;
#X connect 11 0 10 1;
#X connect 12 0 1 0;
#X connect 13 0 12 1;
#X connect 14 0 13 0;
#X restore 98 251 pd voice4;
#X floatatom 210 116 5 0 0 2 Pitch - #0-mainpitch, f 5;
#X obj 211 133 tgl 15 0 \$0-interrupt empty empty 17 7 0 10 -262144
-1 -1 0 1;
#X obj 386 13 inlet;
#X obj 386 36 route loop interrupt;
#X obj 386 82 s \$0-loop1;
#X obj 454 61 s \$0-interrupt;
#X connect 1 0 16 0;
#X connect 13 0 14 0;
#X connect 14 0 12 0;
#X connect 16 0 2 0;
#X connect 17 0 16 1;
#X connect 20 0 19 0;
#X connect 26 0 27 0;
#X connect 27 0 28 0;
#X connect 27 1 29 0;
#X coords 0 -1 1 1 173 73 1 100 100;
