#N canvas 1653 449 965 709 10;
#N canvas 2538 397 650 686 pattern 0;
#X obj 101 49 moses 8;
#X obj 145 71 % 8;
#X obj 281 73 r \$0-update-grid;
#N canvas 296 392 450 300 mod 0;
#X msg 30 120 mod \$1;
#X obj 30 -16 inlet;
#X msg 91 196 mod \$1;
#X obj 163 109 % 8;
#X obj 30 147 outlet;
#X obj 91 216 outlet;
#X obj 30 32 moses 9;
#X obj 91 32 moses 8;
#X obj 130 68 sel 16;
#X msg 130 108 8;
#X msg 91 106 0;
#X obj 91 70 t b;
#X obj 49 94 8;
#X obj 49 68 t b;
#X connect 0 0 4 0;
#X connect 1 0 6 0;
#X connect 1 0 7 0;
#X connect 2 0 5 0;
#X connect 3 0 2 0;
#X connect 6 0 0 0;
#X connect 6 1 13 0;
#X connect 7 0 11 0;
#X connect 7 1 8 0;
#X connect 8 0 9 0;
#X connect 8 1 3 0;
#X connect 9 0 2 0;
#X connect 10 0 2 0;
#X connect 11 0 10 0;
#X connect 12 0 0 0;
#X connect 13 0 12 0;
#X restore 161 41 pd mod;
#X obj 101 100 g_grid8x8 \$0-pattern 0;
#X obj 196 100 g_grid8x8 \$0-pattern 1;
#X msg 35 37 update;
#X obj 290 -57 r \$0-move;
#X floatatom 336 -104 5 0 0 0 - - -, f 5;
#X floatatom 336 -120 5 0 0 0 - - -, f 5;
#X obj 217 -121 r \$0-shift;
#X obj 161 -36 r \$0-beat-mod;
#X obj 101 -122 r \$0-event-grid;
#X floatatom 115 -80 5 0 0 0 - - -, f 5;
#X obj 101 268 s \$1-event-seq;
#X connect 0 0 4 0;
#X connect 0 1 1 0;
#X connect 1 0 5 0;
#X connect 2 0 4 0;
#X connect 2 0 5 0;
#X connect 3 0 4 0;
#X connect 3 1 5 0;
#X connect 4 0 14 0;
#X connect 5 0 14 0;
#X connect 6 0 4 0;
#X connect 6 0 5 0;
#X connect 11 0 3 0;
#X connect 12 0 0 0;
#X connect 12 0 13 0;
#X coords 0 -1 1 1 193 110 1 100 100;
#X restore 7 -224 pd pattern;
#X obj 411 -123 s \$0-clear-all;
#X obj 411 -150 bng 15 250 50 0 empty empty empty 17 7 0 10 -262144
-1 -1;
#N canvas 2250 438 916 651 pattern 0;
#X obj 100 49 moses 8;
#X obj 139 71 % 8;
#X obj 246 56 r \$0-update-grid;
#N canvas 299 387 450 300 mod 0;
#X msg 30 120 mod \$1;
#X obj 30 -16 inlet;
#X msg 91 196 mod \$1;
#X obj 163 109 % 8;
#X obj 30 147 outlet;
#X obj 91 216 outlet;
#X obj 30 32 moses 9;
#X obj 91 32 moses 8;
#X obj 130 68 sel 16;
#X msg 130 108 8;
#X msg 91 106 0;
#X obj 91 70 t b;
#X obj 49 94 8;
#X obj 49 68 t b;
#X connect 0 0 4 0;
#X connect 1 0 6 0;
#X connect 1 0 7 0;
#X connect 2 0 5 0;
#X connect 3 0 2 0;
#X connect 6 0 0 0;
#X connect 6 1 13 0;
#X connect 7 0 11 0;
#X connect 7 1 8 0;
#X connect 8 0 9 0;
#X connect 8 1 3 0;
#X connect 9 0 2 0;
#X connect 10 0 2 0;
#X connect 11 0 10 0;
#X connect 12 0 0 0;
#X connect 13 0 12 0;
#X restore 178 43 pd mod;
#X obj 100 281 +;
#X obj 197 101 g_grid8x12 \$0-pattern 3;
#X obj 100 101 g_grid8x12 \$0-pattern 2;
#X obj 100 -5 r \$0-pitch-grid;
#X obj 131 281 r \$0-beat-pitch;
#X obj 178 21 r \$0-beat-speed-mod;
#X obj 100 305 s \$1-pitch-seq;
#X connect 0 0 6 0;
#X connect 0 1 1 0;
#X connect 1 0 5 0;
#X connect 2 0 5 0;
#X connect 2 0 6 0;
#X connect 3 0 6 0;
#X connect 3 1 5 0;
#X connect 4 0 10 0;
#X connect 5 0 4 0;
#X connect 6 0 4 0;
#X connect 7 0 0 0;
#X connect 8 0 4 1;
#X connect 9 0 3 0;
#X coords 0 -1 1 1 193 160 1 100 100;
#X restore 205 -224 pd pattern;
#X text 12 -250 Slice;
#X text 205 -249 Pitch;
#X text 7 -116 Beat;
#X obj 517 -123 s \$0-clear-speed;
#X obj 517 -153 bng 15 250 50 0 empty empty empty 17 7 0 10 -262144
-1 -1;
#X obj 6 -98 nbx 5 14 -1e+37 1e+37 0 0 \$0-beat-mod \$0-beat-mod empty
0 -8 0 10 -262144 -1 -1 8 256;
#X obj 89 -98 nbx 5 14 -1e+37 1e+37 0 0 \$0-beat-speed-mod \$0-beat-speed-mod
Length 0 -8 0 10 -262144 -1 -1 4 256;
#X obj 568 -218 bng 30 250 50 0 empty empty empty 17 0 0 15 -4034 -1
-1;
#X obj 147 -98 nbx 5 14 -1e+37 1e+37 0 0 \$0-beat-pitch \$0-beat-pitch
Pitch 0 -8 0 10 -262144 -1 -1 0 256;
#X obj 545 -100 bng 30 250 50 0 empty empty empty 17 7 0 10 -204786
-1 -1;
#X obj 545 -44 pack s \$0;
#X msg 545 -23 \; \$2-pattern write \$1 \;;
#X obj 545 -64 savepanel;
#N canvas 1431 100 928 999 store 1;
#X obj 7 203 tabwrite \$0-pattern;
#X msg 118 182 192;
#X obj 7 165 t f b;
#X obj 151 205 tabwrite \$0-pattern;
#X obj 151 167 t f b;
#X obj 335 207 tabwrite \$0-pattern;
#X obj 335 169 t f b;
#X obj 483 206 tabwrite \$0-pattern;
#X obj 483 168 t f b;
#X msg 262 184 195;
#X msg 446 186 196;
#X msg 594 185 197;
#X text 22 5 Write these parameters to the \$0-pattern table;
#X obj 632 207 tabwrite \$0-pattern;
#X obj 632 169 t f b;
#X obj 744 125 t f b;
#X obj 9 385 tabwrite \$0-pattern;
#X obj 9 347 t f b;
#X obj 277 389 tabwrite \$0-pattern;
#X obj 277 351 t f b;
#X obj 399 348 tabwrite \$0-pattern;
#X obj 399 310 t f b;
#X msg 120 364 198;
#X msg 388 368 199;
#X msg 510 327 200;
#X msg 743 186 201;
#X obj 9 240 r \$0-beat-pitch1;
#X floatatom 19 279 5 0 0 0 - - -, f 5;
#X floatatom 655 111 5 0 0 0 - - -, f 5;
#X obj 7 56 r \$0-beat-mod;
#X obj 151 57 r \$0-beat-speed-mod;
#X obj 335 58 r \$0-move;
#X obj 483 58 r \$0-shift;
#X obj 632 64 r \$0-timing;
#X obj 277 241 r \$0-speed-move;
#X obj 399 241 r \$0-speed-shift;
#X connect 1 0 0 1;
#X connect 2 0 0 0;
#X connect 2 1 1 0;
#X connect 4 0 3 0;
#X connect 4 1 9 0;
#X connect 6 0 5 0;
#X connect 6 1 10 0;
#X connect 8 0 7 0;
#X connect 8 1 11 0;
#X connect 9 0 3 1;
#X connect 10 0 5 1;
#X connect 11 0 7 1;
#X connect 14 0 13 0;
#X connect 14 1 25 0;
#X connect 17 0 16 0;
#X connect 17 1 22 0;
#X connect 19 0 18 0;
#X connect 19 1 23 0;
#X connect 21 0 20 0;
#X connect 21 1 24 0;
#X connect 22 0 16 1;
#X connect 23 0 18 1;
#X connect 24 0 20 1;
#X connect 25 0 13 1;
#X connect 26 0 17 0;
#X connect 26 0 27 0;
#X connect 29 0 2 0;
#X connect 30 0 4 0;
#X connect 31 0 6 0;
#X connect 32 0 8 0;
#X connect 33 0 14 0;
#X connect 33 0 28 0;
#X connect 34 0 19 0;
#X connect 35 0 21 0;
#X restore 411 -102 pd store;
#N canvas 2352 104 928 999 load 0;
#X obj -45 -12 inlet;
#X obj 156 263 + 192;
#X obj 156 293 tabread \$0-pattern;
#X obj 156 209 t f f;
#X obj 156 363 prepend;
#X msg 382 85 \; \$2-pattern read \$1 \;;
#X obj 38 29 openpanel;
#X obj 38 49 pack s \$0;
#X obj 38 192 s \$0-update-grid;
#X msg 38 164 update;
#X obj -45 12 t b b;
#X obj 38 68 t b l;
#X obj 130 30 r \$0-read-pattern;
#X obj 155 855 s \$0-beat-mod1;
#X obj 188 805 s \$0-beat-mod3;
#X obj 176 825 s \$0-beat-mod2;
#X obj 203 782 s \$0-beat-speed-mod1;
#X obj 216 757 s \$0-beat-speed-mod2;
#X obj 232 735 s \$0-beat-speed-mod3;
#X obj 248 710 s \$0-beat-pitch1;
#X obj 263 686 s \$0-beat-pitch2;
#X obj 279 662 s \$0-beat-pitch3;
#X obj 294 641 s \$0-timing1;
#X obj 309 623 s \$0-timing2;
#X obj 324 604 s \$0-timing3;
#X obj 156 407 route 0 1 2 3 4 5 6 7 8 9 10 11;
#X obj 306 172 u_iterate 16;
#X obj 38 133 t b b b b b;
#X obj 439 160 u_iterate 16;
#X obj 582 162 u_iterate 16;
#X obj 306 227 + 204;
#X obj 306 254 tabread \$0-pattern;
#X obj 306 280 prepend;
#X obj 306 194 t f f;
#X obj 306 309 s \$0-loop-pattern1;
#X obj 439 254 tabread \$0-pattern;
#X obj 439 280 prepend;
#X obj 439 194 t f f;
#X obj 582 256 tabread \$0-pattern;
#X obj 582 282 prepend;
#X obj 582 196 t f f;
#X obj 242 367 prepend;
#X obj 239 328 t f f;
#X obj 330 374 print index;
#X obj 156 177 u_iterate 12;
#X obj 439 309 s \$0-loop-pattern2;
#X obj 582 311 s \$0-loop-pattern3;
#X obj 439 227 + 220;
#X obj 582 229 + 236;
#X connect 0 0 10 0;
#X connect 1 0 42 0;
#X connect 2 0 4 0;
#X connect 2 0 41 0;
#X connect 3 0 1 0;
#X connect 3 1 4 1;
#X connect 4 0 25 0;
#X connect 6 0 7 0;
#X connect 7 0 11 0;
#X connect 9 0 8 0;
#X connect 10 1 6 0;
#X connect 11 0 27 0;
#X connect 11 1 5 0;
#X connect 12 0 7 0;
#X connect 25 0 13 0;
#X connect 25 1 15 0;
#X connect 25 2 14 0;
#X connect 25 3 16 0;
#X connect 25 4 17 0;
#X connect 25 5 18 0;
#X connect 25 6 19 0;
#X connect 25 7 20 0;
#X connect 25 8 21 0;
#X connect 25 9 22 0;
#X connect 25 10 23 0;
#X connect 25 11 24 0;
#X connect 26 0 33 0;
#X connect 27 0 9 0;
#X connect 27 1 44 0;
#X connect 27 2 26 0;
#X connect 27 3 28 0;
#X connect 27 4 29 0;
#X connect 28 0 37 0;
#X connect 29 0 40 0;
#X connect 30 0 31 0;
#X connect 31 0 32 0;
#X connect 32 0 34 0;
#X connect 33 0 30 0;
#X connect 33 1 32 1;
#X connect 35 0 36 0;
#X connect 36 0 45 0;
#X connect 37 0 47 0;
#X connect 37 1 36 1;
#X connect 38 0 39 0;
#X connect 39 0 46 0;
#X connect 40 0 48 0;
#X connect 40 1 39 1;
#X connect 41 0 43 0;
#X connect 42 0 2 0;
#X connect 42 1 41 1;
#X connect 44 0 3 0;
#X connect 47 0 35 0;
#X connect 48 0 38 0;
#X restore 568 -175 pd load;
#X obj 412 -176 s \$0-update-grid;
#X msg 412 -204 update;
#N canvas 2265 431 450 300 timing 0;
#X obj 305 41 bng 15 250 50 0 empty empty empty 17 7 0 10 -262144 -1
-1;
#X obj 103 102 bng 15 250 50 0 empty empty 4 4 7 0 10 -262144 -1 -1
;
#X obj 118 102 bng 15 250 50 0 empty empty 8 4 7 0 10 -262144 -1 -1
;
#X obj 133 102 bng 15 250 50 0 empty empty 16 2 8 0 10 -262144 -1 -1
;
#X msg 103 134 0;
#X msg 139 134 1;
#X msg 173 134 2;
#X obj 173 101 loadbang;
#X obj 103 181 s \$0-timing;
#X connect 1 0 4 0;
#X connect 2 0 5 0;
#X connect 3 0 6 0;
#X connect 4 0 8 0;
#X connect 5 0 8 0;
#X connect 6 0 8 0;
#X connect 7 0 6 0;
#X coords 0 -1 1 1 53 20 2 100 100;
#X restore 6 -80 pd timing;
#N canvas 1448 245 967 511 loopie 0;
#X obj 100 101 tgl 13 0 empty empty empty 17 7 0 10 -262144 -1 -1 0
1;
#X obj 113 101 tgl 13 0 empty empty empty 17 7 0 10 -262144 -1 -1 0
1;
#X obj 127 101 tgl 13 0 empty empty empty 17 7 0 10 -262144 -1 -1 0
1;
#X obj 140 101 tgl 13 0 empty empty empty 17 7 0 10 -262144 -1 -1 0
1;
#X obj 153 101 tgl 13 0 empty empty empty 17 7 0 10 -262144 -1 -1 0
1;
#X obj 166 101 tgl 13 0 empty empty empty 17 7 0 10 -262144 -1 -1 0
1;
#X obj 180 101 tgl 13 0 empty empty empty 17 7 0 10 -262144 -1 -1 0
1;
#X obj 193 101 tgl 13 0 empty empty empty 17 7 0 10 -262144 -1 -1 0
1;
#X obj 207 101 tgl 13 0 empty empty empty 17 7 0 10 -262144 -1 -1 0
1;
#X obj 220 101 tgl 13 0 empty empty empty 17 7 0 10 -262144 -1 -1 0
1;
#X obj 234 101 tgl 13 0 empty empty empty 17 7 0 10 -262144 -1 -1 0
1;
#X obj 247 101 tgl 13 0 empty empty empty 17 7 0 10 -262144 -1 -1 0
1;
#X obj 260 101 tgl 13 0 empty empty empty 17 7 0 10 -262144 -1 -1 0
1;
#X obj 273 101 tgl 13 0 empty empty empty 17 7 0 10 -262144 -1 -1 0
1;
#X obj 287 101 tgl 13 0 empty empty empty 17 7 0 10 -262144 -1 -1 0
1;
#X obj 298 101 tgl 13 0 empty empty empty 17 7 0 10 -262144 -1 -1 0
1;
#X obj 27 404 t f b;
#X obj 49 378 t f b;
#X obj 90 356 t f b;
#X obj 121 331 t f b;
#X msg 157 441 0;
#X msg 167 417 1;
#X msg 177 384 2;
#X msg 175 347 3;
#X obj 128 305 t f b;
#X obj 150 279 t f b;
#X obj 191 257 t f b;
#X obj 222 232 t f b;
#X msg 258 342 4;
#X msg 268 318 5;
#X msg 278 285 6;
#X msg 276 249 7;
#X obj 309 336 t f b;
#X obj 331 310 t f b;
#X obj 372 288 t f b;
#X obj 403 263 t f b;
#X obj 410 237 t f b;
#X obj 432 211 t f b;
#X obj 473 189 t f b;
#X obj 504 164 t f b;
#X msg 439 373 8;
#X msg 449 350 9;
#X msg 459 316 10;
#X msg 457 279 11;
#X msg 540 274 12;
#X msg 550 250 13;
#X msg 560 218 14;
#X msg 558 181 15;
#X obj 610 307 % 16;
#X obj 610 363 tabread \$0-pattern;
#X obj 610 277 r \$0-local-clock1;
#X obj 27 500 tabwrite \$0-pattern;
#X obj 105 -44 r \$0-loop-pattern1;
#X obj 101 -22 route 0 1 2 3 4 5 6 7 8 9 10 11 12 13 14 15;
#X obj 150 479 + 64;
#X obj 610 337 + 64;
#X obj 610 424 s \$1-toogle-seq;
#X connect 0 0 16 0;
#X connect 1 0 17 0;
#X connect 2 0 18 0;
#X connect 3 0 19 0;
#X connect 4 0 24 0;
#X connect 5 0 25 0;
#X connect 6 0 26 0;
#X connect 7 0 27 0;
#X connect 8 0 32 0;
#X connect 9 0 33 0;
#X connect 10 0 34 0;
#X connect 11 0 35 0;
#X connect 12 0 36 0;
#X connect 13 0 37 0;
#X connect 14 0 38 0;
#X connect 15 0 39 0;
#X connect 16 0 51 0;
#X connect 16 1 20 0;
#X connect 17 0 51 0;
#X connect 17 1 21 0;
#X connect 18 0 51 0;
#X connect 18 1 22 0;
#X connect 19 0 51 0;
#X connect 19 1 23 0;
#X connect 20 0 54 0;
#X connect 21 0 54 0;
#X connect 22 0 54 0;
#X connect 23 0 54 0;
#X connect 24 0 51 0;
#X connect 24 1 28 0;
#X connect 25 0 51 0;
#X connect 25 1 29 0;
#X connect 26 0 51 0;
#X connect 26 1 30 0;
#X connect 27 0 51 0;
#X connect 27 1 31 0;
#X connect 28 0 54 0;
#X connect 29 0 54 0;
#X connect 30 0 54 0;
#X connect 31 0 54 0;
#X connect 32 0 51 0;
#X connect 32 1 40 0;
#X connect 33 0 51 0;
#X connect 33 1 41 0;
#X connect 34 0 51 0;
#X connect 34 1 42 0;
#X connect 35 0 51 0;
#X connect 35 1 43 0;
#X connect 36 0 51 0;
#X connect 36 1 44 0;
#X connect 37 0 51 0;
#X connect 37 1 45 0;
#X connect 38 0 51 0;
#X connect 38 1 46 0;
#X connect 39 0 51 0;
#X connect 39 1 47 0;
#X connect 40 0 54 0;
#X connect 41 0 54 0;
#X connect 42 0 54 0;
#X connect 43 0 54 0;
#X connect 44 0 54 0;
#X connect 45 0 54 0;
#X connect 46 0 54 0;
#X connect 47 0 54 0;
#X connect 48 0 55 0;
#X connect 49 0 56 0;
#X connect 50 0 48 0;
#X connect 52 0 53 0;
#X connect 53 0 0 0;
#X connect 53 1 1 0;
#X connect 53 2 2 0;
#X connect 53 3 3 0;
#X connect 53 4 4 0;
#X connect 53 5 5 0;
#X connect 53 6 6 0;
#X connect 53 7 7 0;
#X connect 53 8 8 0;
#X connect 53 9 9 0;
#X connect 53 10 10 0;
#X connect 53 11 11 0;
#X connect 53 12 12 0;
#X connect 53 13 13 0;
#X connect 53 14 14 0;
#X connect 53 15 15 0;
#X connect 54 0 51 1;
#X connect 55 0 49 0;
#X coords 0 -1 1 1 212 14 2 100 100;
#X restore 206 -59 pd loopie;
#N canvas 2369 430 828 645 vol 0;
#X obj 103 104 vsl 13 90 0 127 0 0 \$0-vol-slider0-out \$0-vol-slider0-in
empty 0 -9 0 10 -262144 -1 -1 8900 1;
#X obj 116 104 vsl 13 90 0 127 0 0 \$0-vol-slider1-out \$0-vol-slider1-in
empty 0 -9 0 10 -262144 -1 -1 8900 1;
#X obj 129 104 vsl 13 90 0 127 0 0 \$0-vol-slider2-out \$0-vol-slider2-in
empty 0 -9 0 10 -262144 -1 -1 8900 1;
#X obj 142 104 vsl 13 90 0 127 0 0 \$0-vol-slider3-out \$0-vol-slider3-in
empty 0 -9 0 10 -262144 -1 -1 8900 1;
#X obj 155 104 vsl 13 90 0 127 0 0 \$0-vol-slider4-out \$0-vol-slider4-in
empty 0 -9 0 10 -262144 -1 -1 8900 1;
#X obj 168 104 vsl 13 90 0 127 0 0 \$0-vol-slider5-out \$0-vol-slider5-in
empty 0 -9 0 10 -262144 -1 -1 8900 1;
#X obj 181 104 vsl 13 90 0 127 0 0 \$0-vol-slider6-out \$0-vol-slider6-in
empty 0 -9 0 10 -262144 -1 -1 8900 1;
#X obj 194 104 vsl 13 90 0 127 0 0 \$0-vol-slider7-out \$0-vol-slider7-in
empty 0 -9 0 10 -262144 -1 -1 8900 1;
#X obj 207 104 vsl 13 90 0 127 0 0 \$0-vol-slider8-out \$0-vol-slider8-in
empty 0 -9 0 10 -262144 -1 -1 8900 1;
#X obj 220 104 vsl 13 90 0 127 0 0 \$0-vol-slider9-out \$0-vol-slider9-in
empty 0 -9 0 10 -262144 -1 -1 8900 1;
#X obj 233 104 vsl 13 90 0 127 0 0 \$0-vol-slider10-out \$0-vol-slider10-in
empty 0 -9 0 10 -262144 -1 -1 8900 1;
#X obj 246 104 vsl 13 90 0 127 0 0 \$0-vol-slider11-out \$0-vol-slider11-in
empty 0 -9 0 10 -262144 -1 -1 200 1;
#X obj 259 104 vsl 13 90 0 127 0 0 \$0-vol-slider12-out \$0-vol-slider12-in
empty 0 -9 0 10 -262144 -1 -1 8900 1;
#X obj 272 104 vsl 13 90 0 127 0 0 \$0-vol-slider13-out \$0-vol-slider13-in
empty 0 -9 0 10 -262144 -1 -1 8900 1;
#X obj 285 104 vsl 13 90 0 127 0 0 \$0-vol-slider14-out \$0-vol-slider14-in
empty 0 -9 0 10 -262144 -1 -1 0 1;
#X obj 298 104 vsl 13 90 0 127 0 0 \$0-vol-slider15-out \$0-vol-slider15-in
empty 0 -9 0 10 -262144 -1 -1 0 1;
#N canvas 2305 293 981 783 populate 0;
#X obj 1 -59 t f b;
#X msg 98 -64 0;
#X obj 166 -84 r \$0-vol-slider1-out;
#X obj 166 -59 t f b;
#X obj 326 -59 t f b;
#X obj 486 -59 t f b;
#X obj 1 31 t f b;
#X obj 166 31 t f b;
#X obj 326 31 t f b;
#X obj 486 31 t f b;
#X obj 1 121 t f b;
#X obj 166 121 t f b;
#X obj 326 121 t f b;
#X obj 486 121 t f b;
#X obj 1 210 t f b;
#X obj 166 210 t f b;
#X obj 326 210 t f b;
#X obj 486 210 t f b;
#X msg 258 -58 1;
#X msg 428 -62 2;
#X msg 563 -66 3;
#X msg 56 36 4;
#X msg 217 33 5;
#X msg 386 34 6;
#X msg 572 34 7;
#X msg 58 123 8, f 1;
#X msg 213 123 9;
#X msg 377 127 10;
#X msg 544 126 11;
#X msg 55 209 12;
#X msg 219 214 13;
#X msg 379 215 14;
#X msg 543 211 15;
#X obj 1 -84 r \$0-vol-slider0-out;
#X obj 326 -84 r \$0-vol-slider2-out;
#X obj 486 -84 r \$0-vol-slider3-out;
#X obj 1 6 r \$0-vol-slider4-out;
#X obj 166 6 r \$0-vol-slider5-out;
#X obj 326 6 r \$0-vol-slider6-out;
#X obj 486 6 r \$0-vol-slider7-out;
#X obj 1 96 r \$0-vol-slider8-out;
#X obj 166 96 r \$0-vol-slider9-out;
#X obj 326 96 r \$0-vol-slider10-out;
#X obj 486 96 r \$0-vol-slider11-out;
#X obj 1 185 r \$0-vol-slider12-out;
#X obj 166 185 r \$0-vol-slider13-out;
#X obj 326 185 r \$0-vol-slider14-out;
#X obj 486 185 r \$0-vol-slider15-out;
#X obj 98 -43 +;
#X obj 295 -49 +;
#X obj 439 -40 +;
#X obj 615 -49 +;
#X obj 99 35 +;
#X obj 270 32 +;
#X obj 435 30 +;
#X obj 617 39 +;
#X obj 93 121 +;
#X obj 252 122 +;
#X obj 417 118 +;
#X obj 597 122 +;
#X obj 94 209 +;
#X obj 279 207 +;
#X obj 435 211 +;
#X obj 594 211 +;
#X obj 717 -5 loadbang;
#X msg 717 19 80;
#X obj 1 -18 tabwrite \$0-pattern;
#X obj 166 -18 tabwrite \$0-pattern;
#X obj 326 -18 tabwrite \$0-pattern;
#X obj 486 -18 tabwrite \$0-pattern;
#X obj 1 72 tabwrite \$0-pattern;
#X obj 166 72 tabwrite \$0-pattern;
#X obj 326 72 tabwrite \$0-pattern;
#X obj 486 72 tabwrite \$0-pattern;
#X obj 1 162 tabwrite \$0-pattern;
#X obj 166 162 tabwrite \$0-pattern;
#X obj 326 162 tabwrite \$0-pattern;
#X obj 486 162 tabwrite \$0-pattern;
#X obj 1 251 tabwrite \$0-pattern;
#X obj 166 251 tabwrite \$0-pattern;
#X obj 326 251 tabwrite \$0-pattern;
#X obj 486 251 tabwrite \$0-pattern;
#X connect 0 0 66 0;
#X connect 0 1 1 0;
#X connect 1 0 48 0;
#X connect 2 0 3 0;
#X connect 3 0 67 0;
#X connect 3 1 18 0;
#X connect 4 0 68 0;
#X connect 4 1 19 0;
#X connect 5 0 69 0;
#X connect 5 1 20 0;
#X connect 6 0 70 0;
#X connect 6 1 21 0;
#X connect 7 0 71 0;
#X connect 7 1 22 0;
#X connect 8 0 72 0;
#X connect 8 1 23 0;
#X connect 9 0 73 0;
#X connect 9 1 24 0;
#X connect 10 0 74 0;
#X connect 10 1 25 0;
#X connect 11 0 75 0;
#X connect 11 1 26 0;
#X connect 12 0 76 0;
#X connect 12 1 27 0;
#X connect 13 0 77 0;
#X connect 13 1 28 0;
#X connect 14 0 78 0;
#X connect 14 1 29 0;
#X connect 15 0 79 0;
#X connect 15 1 30 0;
#X connect 16 0 80 0;
#X connect 16 1 31 0;
#X connect 17 0 81 0;
#X connect 17 1 32 0;
#X connect 18 0 49 0;
#X connect 19 0 50 0;
#X connect 20 0 51 0;
#X connect 21 0 52 0;
#X connect 22 0 53 0;
#X connect 23 0 54 0;
#X connect 24 0 55 0;
#X connect 25 0 56 0;
#X connect 26 0 57 0;
#X connect 27 0 58 0;
#X connect 28 0 59 0;
#X connect 29 0 60 0;
#X connect 30 0 61 0;
#X connect 31 0 62 0;
#X connect 32 0 63 0;
#X connect 33 0 0 0;
#X connect 34 0 4 0;
#X connect 35 0 5 0;
#X connect 36 0 6 0;
#X connect 37 0 7 0;
#X connect 38 0 8 0;
#X connect 39 0 9 0;
#X connect 40 0 10 0;
#X connect 41 0 11 0;
#X connect 42 0 12 0;
#X connect 43 0 13 0;
#X connect 44 0 14 0;
#X connect 45 0 15 0;
#X connect 46 0 16 0;
#X connect 47 0 17 0;
#X connect 48 0 66 1;
#X connect 49 0 67 1;
#X connect 50 0 68 1;
#X connect 51 0 69 1;
#X connect 52 0 70 1;
#X connect 53 0 71 1;
#X connect 54 0 72 1;
#X connect 55 0 73 1;
#X connect 56 0 74 1;
#X connect 57 0 75 1;
#X connect 58 0 76 1;
#X connect 59 0 77 1;
#X connect 60 0 78 1;
#X connect 61 0 79 1;
#X connect 62 0 80 1;
#X connect 63 0 81 1;
#X connect 64 0 65 0;
#X connect 65 0 48 1;
#X connect 65 0 49 1;
#X connect 65 0 50 1;
#X connect 65 0 51 1;
#X connect 65 0 52 1;
#X connect 65 0 53 1;
#X connect 65 0 54 1;
#X connect 65 0 55 1;
#X connect 65 0 56 1;
#X connect 65 0 57 1;
#X connect 65 0 58 1;
#X connect 65 0 59 1;
#X connect 65 0 60 1;
#X connect 65 0 61 1;
#X connect 65 0 62 1;
#X connect 65 0 63 1;
#X restore 373 88 pd populate;
#X obj 461 88 r \$0-local-clock;
#X obj 461 191 / 127;
#N canvas 1650 435 450 300 init 0;
#X msg 89 98 127;
#X obj 89 50 t b f;
#X obj 89 171 s;
#X obj 121 76 pack f \$0;
#X msg 122 116 \$2-vol-slider\$1-in;
#X obj 89 0 loadbang;
#X obj 89 22 u_iterate 16;
#X obj 107 147 symbol;
#X connect 0 0 2 0;
#X connect 1 0 0 0;
#X connect 1 1 3 0;
#X connect 3 0 4 0;
#X connect 4 0 7 0;
#X connect 5 0 6 0;
#X connect 6 0 1 0;
#X connect 7 0 2 1;
#X restore 373 108 pd init;
#X obj 461 166 tabread \$0-pattern;
#X obj 461 132 + 80;
#X obj 461 216 s \$1-slider-seq;
#X connect 17 0 21 0;
#X connect 18 0 22 0;
#X connect 20 0 18 0;
#X connect 21 0 20 0;
#X coords 0 -1 1 1 213 100 1 100 100;
#X restore 643 -235 pd vol;
#N canvas 2675 457 450 397 init 0;
#X obj 167 107 \$0;
#X obj 167 76 loadbang;
#X msg 167 139 \; \$1-beat-mod 16 \; \$1-beat-speed-mod 16 \; \$1-beat-pitch
0 \; \$1-timing 2 \; \$1-move 0 \; \$1-shift 0 \; \$1-clockMode 1 \;
;
#X connect 0 0 2 0;
#X connect 1 0 0 0;
#X restore 425 -59 pd init;
#X obj 90 -79 nbx 5 14 -1e+37 1e+37 0 0 \$0-shift \$0-shift empty 0
-8 0 10 -262144 -1 -1 0 256;
#X obj 148 -78 nbx 5 14 -1e+37 1e+37 0 0 \$0-move \$0-move empty 0
-8 0 10 -262144 -1 -1 0 256;
#N canvas 2552 465 650 686 ticks 0;
#N canvas 65 110 180 280 is-even 0;
#X obj 34 38 inlet;
#X obj 34 118 sel 0;
#X obj 34 144 f;
#X obj 34 67 t f f;
#X obj 34 93 & 1;
#X obj 34 172 >> 1;
#X obj 34 212 outlet;
#X connect 0 0 3 0;
#X connect 1 0 2 0;
#X connect 2 0 5 0;
#X connect 3 0 4 0;
#X connect 3 1 2 1;
#X connect 4 0 1 0;
#X connect 5 0 6 0;
#X restore 16 -16 pd is-even;
#N canvas 1832 553 180 280 is-beat 0;
#X obj 34 38 inlet;
#X obj 34 118 sel 0;
#X obj 34 144 f;
#X obj 34 67 t f f;
#X obj 34 93 & 1;
#X obj 34 172 >> 1;
#X obj 34 212 outlet;
#X connect 0 0 3 0;
#X connect 1 0 2 0;
#X connect 2 0 5 0;
#X connect 3 0 4 0;
#X connect 3 1 2 1;
#X connect 4 0 1 0;
#X connect 5 0 6 0;
#X restore 16 43 pd is-beat;
#X obj 114 -95 spigot;
#X obj 16 -96 spigot;
#X obj 218 -150 tgl 15 0 empty empty empty 17 7 0 10 -262144 -1 -1
1 1;
#X obj 218 -130 == 0;
#X obj 279 -314 r \$0-clockMode;
#X msg 256 -181 0;
#X msg 356 -186 1;
#N canvas 906 435 375 310 internalClock 0;
#N canvas 617 219 442 492 generate-ticks 0;
#X obj 32 98 tgl 15 1 empty empty empty 17 7 0 10 -262144 -1 -1 0 1
;
#X obj 32 146 metro;
#N canvas 988 94 208 259 milliseconds 0;
#X obj 19 18 inlet;
#X obj 19 199 outlet;
#X obj 19 46 t b f;
#X obj 19 170 /;
#X msg 69 77 15000;
#X msg 113 77 20000;
#X obj 19 147 f 15000;
#X obj 69 103 t b f;
#X obj 69 43 sel 0 1;
#X text 19 225 1/16 or 1/12 note;
#X obj 69 17 r \$0-timesignature;
#X floatatom 96 135 5 0 0 0 - - -, f 5;
#X connect 0 0 2 0;
#X connect 2 0 6 0;
#X connect 2 1 3 1;
#X connect 3 0 1 0;
#X connect 4 0 7 0;
#X connect 5 0 7 0;
#X connect 6 0 3 0;
#X connect 7 0 6 0;
#X connect 7 1 11 0;
#X connect 7 1 6 1;
#X connect 8 0 4 0;
#X connect 8 1 5 0;
#X connect 10 0 8 0;
#X restore 59 107 pd milliseconds;
#X obj 32 193 +;
#X obj 32 416 outlet;
#X obj 32 170 f 1;
#N canvas 304 500 316 238 ticksort 0;
#X obj 27 60 t f f;
#X obj 27 27 inlet;
#X obj 27 117 pack;
#X text 25 6 ticks;
#X obj 27 88 & 3;
#X obj 27 143 route 0 1 2 3;
#X obj 27 175 outlet;
#X obj 73 175 outlet;
#X obj 122 175 outlet;
#X obj 170 175 outlet;
#X obj 242 175 outlet;
#X text 28 199 first;
#X text 72 199 second;
#X text 121 199 third;
#X text 168 199 fourth;
#X text 240 198 index;
#X connect 0 0 4 0;
#X connect 0 1 2 1;
#X connect 1 0 0 0;
#X connect 2 0 5 0;
#X connect 4 0 2 0;
#X connect 4 0 10 0;
#X connect 5 0 6 0;
#X connect 5 1 7 0;
#X connect 5 2 8 0;
#X connect 5 3 9 0;
#X restore 32 359 pd ticksort;
#N canvas 576 493 515 163 tickdelays 0;
#X obj 21 15 inlet;
#X obj 21 88 pipe;
#X obj 202 125 outlet;
#X obj 106 14 inlet;
#X obj 106 87 pipe;
#X obj 202 15 inlet;
#X obj 202 88 pipe;
#X obj 287 15 inlet;
#X obj 287 88 pipe;
#N canvas 698 484 303 226 sambagroove 0;
#X obj 32 7 r ticklength;
#X obj 181 28 sel 1;
#X msg 181 56 0;
#X obj 32 30 t b f;
#X obj 19 69 *;
#X obj 19 98 spigot;
#X obj 141 28 t b f;
#X obj 19 -17 r \$0-groove;
#X obj 141 -18 r \$0-groovetype;
#X obj 19 164 s \$0-tickdelay0;
#X obj 35 131 s \$0-tickdelay1;
#X obj 181 125 s \$0-tickdelay2;
#X obj 195 94 s \$0-tickdelay3;
#X connect 0 0 3 0;
#X connect 1 0 2 0;
#X connect 2 0 11 0;
#X connect 2 0 12 0;
#X connect 3 0 4 0;
#X connect 3 1 4 1;
#X connect 4 0 5 0;
#X connect 5 0 9 0;
#X connect 5 0 10 0;
#X connect 6 0 4 0;
#X connect 6 1 5 1;
#X connect 7 0 4 0;
#X connect 8 0 1 0;
#X connect 8 0 6 0;
#X restore 385 93 pd sambagroove;
#N canvas 823 242 346 186 tripletgroove 0;
#X obj 37 15 r ticklength;
#X msg 213 65 0;
#X obj 37 38 t b f;
#X obj 24 77 *;
#X obj 24 106 spigot;
#X obj 146 36 t b f;
#X obj 213 36 sel 0;
#X obj 173 65 == 0;
#X obj 24 -10 r \$0-groove;
#X obj 146 -10 r \$0-groovetype;
#X obj 24 153 s \$0-tickdelay1;
#X obj 44 131 s \$0-tickdelay3;
#X obj 213 134 s \$0-tickdelay0;
#X obj 225 101 s \$0-tickdelay2;
#X connect 0 0 2 0;
#X connect 1 0 12 0;
#X connect 1 0 13 0;
#X connect 2 0 3 0;
#X connect 2 1 3 1;
#X connect 3 0 4 0;
#X connect 4 0 10 0;
#X connect 4 0 11 0;
#X connect 5 0 3 0;
#X connect 5 1 7 0;
#X connect 6 0 1 0;
#X connect 7 0 4 1;
#X connect 8 0 3 0;
#X connect 9 0 5 0;
#X connect 9 0 6 0;
#X restore 386 21 pd tripletgroove;
#X floatatom 56 89 5 0 0 0 - - -, f 5;
#X floatatom 141 89 5 0 0 0 - - -, f 5;
#X floatatom 234 88 5 0 0 0 - - -, f 5;
#X floatatom 320 89 5 0 0 0 - - -, f 5;
#X obj 42 39 r \$0-tickdelay0;
#X obj 127 61 r \$0-tickdelay1;
#X obj 223 38 r \$0-tickdelay2;
#X obj 308 61 r \$0-tickdelay3;
#X connect 0 0 1 0;
#X connect 1 0 2 0;
#X connect 3 0 4 0;
#X connect 4 0 2 0;
#X connect 5 0 6 0;
#X connect 6 0 2 0;
#X connect 7 0 8 0;
#X connect 8 0 2 0;
#X connect 15 0 1 1;
#X connect 15 0 11 0;
#X connect 16 0 4 1;
#X connect 16 0 12 0;
#X connect 17 0 6 1;
#X connect 17 0 13 0;
#X connect 18 0 8 1;
#X connect 18 0 14 0;
#X restore 32 390 pd tickdelays;
#X obj 64 193 r \$0-set-one;
#X text 119 389 << groove;
#X obj 32 330 tabread \$0-commontime;
#X obj 264 225 symbol \$0-sixquavers;
#X msg 245 250 set \$1;
#X obj 245 202 symbol \$0-commontime;
#X obj 245 146 r \$0-timesignature;
#X obj 32 248 mod 192;
#X obj 59 15 inlet;
#X obj 245 175 sel 0 1;
#X text 68 41 if zero \, set metro off;
#X text 99 16 BPM;
#X obj 32 67 change;
#X obj 32 42 != 0;
#X msg 64 218 0;
#X obj 69 149 s \$0-ticklength;
#X floatatom 176 420 5 0 0 0 - - -, f 5;
#X msg 167 333 0;
#X obj 167 310 sel 191;
#X obj 228 23 r \$0-reset;
#X msg 228 66 1;
#X obj 228 42 t b b;
#X obj 32 272 t f f;
#X obj 167 289 spigot;
#X obj 143 192 r \$0-clockMode;
#X obj 143 239 sel 1 2 3;
#X msg 143 272 1;
#X msg 200 270 0;
#X obj 316 30 r \$0-clockMode;
#X msg 316 75 1;
#X obj 316 54 sel 3 1;
#X msg 351 76 0;
#X obj 229 293 r \$0-repeat-length;
#X connect 0 0 1 0;
#X connect 1 0 5 0;
#X connect 2 0 1 1;
#X connect 2 0 23 0;
#X connect 3 0 15 0;
#X connect 5 0 3 0;
#X connect 6 0 7 0;
#X connect 6 1 7 1;
#X connect 6 2 7 2;
#X connect 6 3 7 3;
#X connect 7 0 4 0;
#X connect 7 0 24 0;
#X connect 8 0 22 0;
#X connect 10 0 6 0;
#X connect 11 0 12 0;
#X connect 12 0 10 0;
#X connect 13 0 12 0;
#X connect 14 0 17 0;
#X connect 15 0 3 1;
#X connect 15 0 30 0;
#X connect 16 0 2 0;
#X connect 16 0 21 0;
#X connect 17 0 13 0;
#X connect 17 1 11 0;
#X connect 17 2 13 0;
#X connect 20 0 0 0;
#X connect 21 0 20 0;
#X connect 22 0 15 0;
#X connect 25 0 0 0;
#X connect 26 0 25 0;
#X connect 27 0 29 0;
#X connect 28 0 0 0;
#X connect 29 0 28 0;
#X connect 29 1 22 0;
#X connect 30 0 10 0;
#X connect 30 1 31 0;
#X connect 31 0 26 0;
#X connect 32 0 33 0;
#X connect 33 0 34 0;
#X connect 33 1 35 0;
#X connect 33 2 35 0;
#X connect 34 0 31 1;
#X connect 35 0 31 1;
#X connect 36 0 38 0;
#X connect 37 0 0 0;
#X connect 38 0 37 0;
#X connect 38 1 39 0;
#X connect 39 0 0 0;
#X connect 40 0 26 1;
#X restore 78 152 pd generate-ticks;
#N canvas 542 150 297 177 tick-tables 0;
#X obj 31 18 loadbang;
#N canvas 0 50 246 266 commontime 0;
#X obj 30 209 table \$0-commontime 256;
#X obj 31 175 tabwrite \$0-commontime;
#X obj 31 142 t f f;
#X obj 31 86 bng 15 250 50 0 empty empty empty 17 7 0 10 -262144 -1
-1;
#X obj 31 53 inlet;
#X obj 31 114 iterate 256;
#X connect 2 0 1 0;
#X connect 2 1 1 1;
#X connect 3 0 5 0;
#X connect 4 0 3 0;
#X connect 5 0 2 0;
#X restore 31 100 pd commontime;
#N canvas 748 50 413 471 sixquavers 0;
#X obj 27 38 inlet;
#X obj 27 66 bng 15 250 50 0 empty empty empty 17 7 0 10 -262144 -1
-1;
#X obj 27 272 tabwrite \$0-sixquavers;
#X obj 27 122 t b f;
#X obj 156 246 +;
#X obj 27 191 unpack;
#X obj 224 243 s \$0-sixquavers;
#X msg 224 215 arrayviewlistnew;
#X obj 171 221 * 12;
#X obj 27 245 +;
#X obj 42 220 * 16;
#X obj 224 272 table \$0-sixquavers 192;
#X msg 27 151 0 0 \, 1 1 \, 2 2 \, 4 3 \, 5 4 \, 6 5 \, 8 6 \, 9 7
\, 10 8 \, 12 9 \, 13 10 \, 14 11;
#X obj 27 364 hradio 15 1 0 3 empty empty empty 0 -8 0 10 -262144 -262144
-1 0;
#X obj 77 364 hradio 15 1 0 3 empty empty empty 0 -8 0 10 -262144 -262144
-1 0;
#X obj 126 364 hradio 15 1 0 3 empty empty empty 0 -8 0 10 -262144
-262144 -1 0;
#X obj 176 364 hradio 15 1 0 3 empty empty empty 0 -8 0 10 -262144
-262144 -1 0;
#X obj 28 391 hradio 15 1 0 1 empty empty empty 0 -8 0 10 -262144 -262144
-1 0;
#X obj 58 391 hradio 15 1 0 1 empty empty empty 0 -8 0 10 -262144 -262144
-1 0;
#X obj 77 391 hradio 15 1 0 1 empty empty empty 0 -8 0 10 -262144 -262144
-1 0;
#X obj 107 391 hradio 15 1 0 1 empty empty empty 0 -8 0 10 -262144
-262144 -1 0;
#X obj 127 391 hradio 15 1 0 1 empty empty empty 0 -8 0 10 -262144
-262144 -1 0;
#X obj 157 391 hradio 15 1 0 1 empty empty empty 0 -8 0 10 -262144
-262144 -1 0;
#X obj 176 391 hradio 15 1 0 1 empty empty empty 0 -8 0 10 -262144
-262144 -1 0;
#X obj 206 391 hradio 15 1 0 1 empty empty empty 0 -8 0 10 -262144
-262144 -1 0;
#X obj 28 417 hradio 15 1 0 1 empty empty empty 0 -8 0 10 -262144 -262144
-1 0;
#X obj 78 417 hradio 15 1 0 1 empty empty empty 0 -8 0 10 -262144 -262144
-1 0;
#X obj 127 416 hradio 15 1 0 1 empty empty empty 0 -8 0 10 -262144
-262144 -1 0;
#X obj 177 416 hradio 15 1 0 1 empty empty empty 0 -8 0 10 -262144
-262144 -1 0;
#X text 26 334 it is 12/16 really:;
#X text 245 361 semiquavers;
#X text 246 388 quavers;
#X text 247 415 beats;
#X obj 27 91 iterate 16;
#X connect 0 0 1 0;
#X connect 1 0 33 0;
#X connect 3 0 12 0;
#X connect 3 1 8 0;
#X connect 3 1 10 0;
#X connect 4 0 2 1;
#X connect 5 0 9 0;
#X connect 5 1 4 0;
#X connect 7 0 6 0;
#X connect 8 0 4 1;
#X connect 9 0 2 0;
#X connect 10 0 9 1;
#X connect 12 0 5 0;
#X connect 33 0 3 0;
#X restore 122 100 pd sixquavers;
#X connect 0 0 1 0;
#X connect 0 0 2 0;
#X restore 263 24 pd tick-tables;
#X obj 45 271 s \$0-groove;
#X obj 45 246 * 0.25;
#X obj 78 85 r \$0-BPM;
#X obj 78 221 s \$0-internal-clock;
#X connect 0 0 5 0;
#X connect 3 0 2 0;
#X connect 4 0 0 0;
#X restore 256 -129 pd internalClock;
#X obj 114 -181 r \$0-internal-clock;
#X obj 279 -256 sel 0 1 2;
#X obj 16 -181 r globalticks;
#N canvas 65 81 450 300 thru 0;
#X obj 91 97 inlet;
#X obj 91 125 outlet;
#X connect 0 0 1 0;
#X restore 16 -61 pd thru;
#X text 79 -60 Dummy to join globaltick and internalticks;
#X obj 16 142 spigot;
#X obj 66 142 spigot;
#X obj 110 142 spigot;
#X obj 108 87 == 0;
#X obj 139 86 == 1;
#X obj 171 87 == 2;
#X obj 108 64 t f f f;
#X obj 16 223 s \$0-event-grid;
#N canvas 2617 594 603 461 counter-pitch-grid 0;
#X obj 71 36 inlet;
#X obj 71 309 outlet;
#X obj 137 143 % 16;
#X obj 71 262 + 0;
#X obj 71 283 % 16;
#X obj 71 60 t b;
#X obj 71 144 f;
#X obj 103 145 + 1;
#X obj 71 170 + 0;
#X obj 71 191 % 16;
#X obj 89 237 r \$0-speed-move;
#X obj 162 110 r \$0-beat-speed-mod;
#X obj 174 175 r \$0-speed-shift;
#X connect 0 0 5 0;
#X connect 2 0 6 1;
#X connect 3 0 4 0;
#X connect 4 0 1 0;
#X connect 5 0 6 0;
#X connect 6 0 7 0;
#X connect 6 0 8 0;
#X connect 7 0 2 0;
#X connect 8 0 9 0;
#X connect 9 0 3 0;
#X connect 10 0 3 1;
#X connect 11 0 2 1;
#X connect 11 0 9 1;
#X connect 12 0 8 1;
#X restore 180 199 pd counter-pitch-grid;
#N canvas 2309 531 603 461 counter-event-grid 0;
#X obj 71 36 inlet;
#X obj 71 309 outlet;
#X obj 137 143 % 16;
#X obj 71 262 + 0;
#X obj 89 237 r \$0-move;
#X obj 71 283 % 16;
#X obj 71 60 t b;
#X obj 71 144 f;
#X obj 103 145 + 1;
#X obj 71 170 + 0;
#X obj 71 191 % 16;
#X obj 162 114 r \$0-beat-mod;
#X obj 174 175 r \$0-shift;
#X connect 0 0 6 0;
#X connect 2 0 7 1;
#X connect 3 0 5 0;
#X connect 4 0 3 1;
#X connect 5 0 1 0;
#X connect 6 0 7 0;
#X connect 7 0 8 0;
#X connect 7 0 9 0;
#X connect 8 0 2 0;
#X connect 9 0 10 0;
#X connect 10 0 3 0;
#X connect 11 0 2 1;
#X connect 11 0 10 1;
#X connect 12 0 9 1;
#X restore 16 199 pd counter-event-grid;
#X obj 108 44 r \$0-timing;
#X obj 180 223 s \$0-pitch-grid;
#X connect 0 0 1 0;
#X connect 0 0 16 0;
#X connect 1 0 15 0;
#X connect 2 0 13 0;
#X connect 3 0 13 0;
#X connect 4 0 5 0;
#X connect 4 0 3 1;
#X connect 5 0 2 1;
#X connect 6 0 11 0;
#X connect 7 0 4 0;
#X connect 8 0 4 0;
#X connect 10 0 2 0;
#X connect 11 0 7 0;
#X connect 11 1 8 0;
#X connect 11 2 7 0;
#X connect 12 0 3 0;
#X connect 13 0 0 0;
#X connect 13 0 17 0;
#X connect 15 0 24 0;
#X connect 15 0 23 0;
#X connect 16 0 24 0;
#X connect 16 0 23 0;
#X connect 17 0 24 0;
#X connect 17 0 23 0;
#X connect 18 0 15 1;
#X connect 19 0 16 1;
#X connect 20 0 17 1;
#X connect 21 0 18 0;
#X connect 21 1 19 0;
#X connect 21 2 20 0;
#X connect 23 0 26 0;
#X connect 24 0 22 0;
#X connect 25 0 21 0;
#X restore 424 -38 pd ticks;
#X obj 412 -224 table \$0-pattern 96;
#X connect 2 0 1 0;
#X connect 8 0 7 0;
#X connect 11 0 18 0;
#X connect 13 0 16 0;
#X connect 14 0 15 0;
#X connect 16 0 14 0;
#X connect 20 0 19 0;
