#N canvas 65 81 450 300 10;
#N canvas 2615 397 650 686 pattern 0;
#X obj 101 49 moses 8;
#X obj 101 -193 r \$0-beat;
#X obj 145 71 % 8;
#X obj 101 21 % 16;
#X obj 281 73 r \$0-update-grid;
#N canvas 296 392 450 300 mod 0;
#X msg 30 120 mod \$1;
#X obj 30 -16 inlet;
#X msg 91 196 mod \$1;
#X obj 163 109 % 8;
#X obj 30 147 outlet;
#X obj 91 216 outlet;
#X obj 30 32 moses 9;
#X obj 91 32 moses 8;
#X obj 130 68 sel 16;
#X msg 130 108 8;
#X msg 91 106 0;
#X obj 91 70 t b;
#X obj 49 94 8;
#X obj 49 68 t b;
#X connect 0 0 4 0;
#X connect 1 0 6 0;
#X connect 1 0 7 0;
#X connect 2 0 5 0;
#X connect 3 0 2 0;
#X connect 6 0 0 0;
#X connect 6 1 13 0;
#X connect 7 0 11 0;
#X connect 7 1 8 0;
#X connect 8 0 9 0;
#X connect 8 1 3 0;
#X connect 9 0 2 0;
#X connect 10 0 2 0;
#X connect 11 0 10 0;
#X connect 12 0 0 0;
#X connect 13 0 12 0;
#X restore 161 41 pd mod;
#X obj 101 100 g_grid8x8 \$0-pattern 0;
#X obj 196 100 g_grid8x8 \$0-pattern 1;
#X obj 101 -90 spigot;
#X obj 147 -91 spigot;
#X obj 191 -91 spigot;
#X obj 166 -193 r \$0-quaver;
#X obj 250 -193 r \$0-squaver;
#X obj 237 -123 == 0;
#X obj 268 -124 == 1;
#X obj 300 -123 == 2;
#X obj 237 -146 t f f f;
#X obj 281 287 print;
#X msg 35 37 update;
#X obj 237 -166 r \$0-timing1;
#X obj 308 -73 s \$0-local-clock1;
#X obj 161 19 r \$0-beat-mod1;
#X obj 101 268 s \$0-event-seq1;
#X obj 101 -34 + 0;
#X obj 172 -51 r \$0-shift1;
#X connect 0 0 6 0;
#X connect 0 1 2 0;
#X connect 1 0 8 0;
#X connect 2 0 7 0;
#X connect 3 0 0 0;
#X connect 4 0 6 0;
#X connect 4 0 7 0;
#X connect 5 0 6 0;
#X connect 5 1 7 0;
#X connect 6 0 17 0;
#X connect 6 0 22 0;
#X connect 7 0 17 0;
#X connect 7 0 22 0;
#X connect 8 0 20 0;
#X connect 8 0 23 0;
#X connect 9 0 20 0;
#X connect 9 0 23 0;
#X connect 10 0 20 0;
#X connect 10 0 23 0;
#X connect 11 0 9 0;
#X connect 12 0 10 0;
#X connect 13 0 8 1;
#X connect 14 0 9 1;
#X connect 15 0 10 1;
#X connect 16 0 13 0;
#X connect 16 1 14 0;
#X connect 16 2 15 0;
#X connect 18 0 6 0;
#X connect 18 0 7 0;
#X connect 19 0 16 0;
#X connect 21 0 5 0;
#X connect 21 0 3 1;
#X connect 23 0 3 0;
#X connect 24 0 23 1;
#X coords 0 -1 1 1 193 110 1 100 100;
#X restore 7 -224 pd pattern;
#X obj 411 -123 s \$0-clear-all;
#X obj 411 -150 bng 15 250 50 0 empty empty empty 17 7 0 10 -262144
-1 -1;
#N canvas 2259 426 916 651 pattern 0;
#X obj 100 49 moses 8;
#X obj 139 71 % 8;
#X obj 100 21 % 16;
#X obj 246 56 r \$0-update-grid;
#N canvas 299 387 450 300 mod 0;
#X msg 30 120 mod \$1;
#X obj 30 -16 inlet;
#X msg 91 196 mod \$1;
#X obj 163 109 % 8;
#X obj 30 147 outlet;
#X obj 91 216 outlet;
#X obj 30 32 moses 9;
#X obj 91 32 moses 8;
#X obj 130 68 sel 16;
#X msg 130 108 8;
#X msg 91 106 0;
#X obj 91 70 t b;
#X obj 49 94 8;
#X obj 49 68 t b;
#X connect 0 0 4 0;
#X connect 1 0 6 0;
#X connect 1 0 7 0;
#X connect 2 0 5 0;
#X connect 3 0 2 0;
#X connect 6 0 0 0;
#X connect 6 1 13 0;
#X connect 7 0 11 0;
#X connect 7 1 8 0;
#X connect 8 0 9 0;
#X connect 8 1 3 0;
#X connect 9 0 2 0;
#X connect 10 0 2 0;
#X connect 11 0 10 0;
#X connect 12 0 0 0;
#X connect 13 0 12 0;
#X restore 178 43 pd mod;
#X obj 100 281 +;
#X obj 100 -144 r \$0-beat;
#X obj 100 -41 spigot;
#X obj 146 -42 spigot;
#X obj 190 -42 spigot;
#X obj 165 -144 r \$0-quaver;
#X obj 251 -145 r \$0-squaver;
#X obj 236 -74 == 0;
#X obj 267 -75 == 1;
#X obj 299 -74 == 2;
#X obj 236 -97 t f f f;
#X obj 197 101 g_grid8x12 \$0-pattern 3;
#X obj 178 21 r \$0-beat-speed-mod1;
#X obj 100 305 s \$0-pitch-seq1;
#X obj 100 101 g_grid8x12 \$0-pattern 2;
#X obj 236 -117 r \$0-timing1;
#X connect 0 0 19 0;
#X connect 0 1 1 0;
#X connect 1 0 16 0;
#X connect 2 0 0 0;
#X connect 3 0 16 0;
#X connect 3 0 19 0;
#X connect 4 0 19 0;
#X connect 4 1 16 0;
#X connect 5 0 18 0;
#X connect 6 0 7 0;
#X connect 7 0 2 0;
#X connect 8 0 2 0;
#X connect 9 0 2 0;
#X connect 10 0 8 0;
#X connect 11 0 9 0;
#X connect 12 0 7 1;
#X connect 13 0 8 1;
#X connect 14 0 9 1;
#X connect 15 0 12 0;
#X connect 15 1 13 0;
#X connect 15 2 14 0;
#X connect 16 0 5 0;
#X connect 17 0 4 0;
#X connect 17 0 2 1;
#X connect 19 0 5 0;
#X connect 20 0 15 0;
#X coords 0 -1 1 1 193 160 1 100 100;
#X restore 205 -224 pd pattern;
#X text 12 -250 Slice;
#X text 205 -249 Pitch;
#X text 7 -116 Beat;
#X obj 517 -123 s \$0-clear-speed;
#X obj 517 -153 bng 15 250 50 0 empty empty empty 17 7 0 10 -262144
-1 -1;
#X obj 6 -98 nbx 5 14 -1e+37 1e+37 0 0 \$0-beat-mod1 \$0-beat-mod1
empty 0 -8 0 10 -262144 -1 -1 16 256;
#X obj 89 -98 nbx 5 14 -1e+37 1e+37 0 0 \$0-beat-speed-mod1 \$0-beat-speed-mod1
Length 0 -8 0 10 -262144 -1 -1 16 256;
#X obj 568 -218 bng 30 250 50 0 empty empty empty 17 0 0 15 -4034 -1
-1;
#X obj 147 -98 nbx 5 14 -1e+37 1e+37 0 0 \$0-beat-pitch1 \$0-beat-pitch1
Pitch 0 -8 0 10 -262144 -1 -1 0 256;
#X obj 545 -100 bng 30 250 50 0 empty empty empty 17 7 0 10 -204786
-1 -1;
#X obj 545 -44 pack s \$0;
#X msg 545 -23 \; \$2-pattern write \$1 \;;
#X obj 545 -64 savepanel;
#N canvas 1431 50 928 999 store 0;
#X obj 7 203 tabwrite \$0-pattern;
#X msg 118 182 192;
#X obj 7 165 t f b;
#X obj 112 162 tabwrite \$0-pattern;
#X obj 112 124 t f b;
#X msg 223 141 193;
#X obj 216 120 tabwrite \$0-pattern;
#X obj 216 82 t f b;
#X obj 357 217 tabwrite \$0-pattern;
#X obj 357 179 t f b;
#X obj 519 176 tabwrite \$0-pattern;
#X obj 519 138 t f b;
#X obj 674 135 tabwrite \$0-pattern;
#X obj 674 97 t f b;
#X msg 327 99 194;
#X msg 468 196 195;
#X msg 630 155 196;
#X msg 785 114 197;
#X text 22 5 Write these parameters to the \$0-pattern table;
#X obj 418 385 tabwrite \$0-pattern;
#X obj 418 347 t f b;
#X obj 530 340 tabwrite \$0-pattern;
#X obj 530 303 t f b;
#X obj 679 299 tabwrite \$0-pattern;
#X obj 679 261 t f b;
#X obj 9 385 tabwrite \$0-pattern;
#X obj 9 347 t f b;
#X obj 127 339 tabwrite \$0-pattern;
#X obj 127 301 t f b;
#X obj 249 298 tabwrite \$0-pattern;
#X obj 249 260 t f b;
#X msg 120 364 198;
#X msg 238 318 199;
#X msg 360 277 200;
#X msg 529 364 201;
#X msg 641 319 202;
#X msg 788 279 203;
#X obj 112 56 r \$0-beat-mod2;
#X obj 7 56 r \$0-beat-mod1;
#X obj 357 57 r \$0-beat-speed-mod1;
#X obj 519 57 r \$0-beat-speed-mod2;
#X obj 674 57 r \$0-beat-speed-mod3;
#X obj 127 240 r \$0-beat-pitch2;
#X obj 9 240 r \$0-beat-pitch1;
#X obj 249 240 r \$0-beat-pitch3;
#X obj 418 242 r \$0-timing1;
#X obj 530 242 r \$0-timing2;
#X obj 679 242 r \$0-timing3;
#X obj 216 56 r \$0-beat-mod3;
#X floatatom 415 88 5 0 0 0 - - -, f 5;
#X floatatom 567 87 5 0 0 0 - - -, f 5;
#X floatatom 722 82 5 0 0 0 - - -, f 5;
#X floatatom 19 279 5 0 0 0 - - -, f 5;
#X floatatom 162 272 5 0 0 0 - - -, f 5;
#X floatatom 323 262 5 0 0 0 - - -, f 5;
#X floatatom 441 289 5 0 0 0 - - -, f 5;
#X floatatom 556 276 5 0 0 0 - - -, f 5;
#X floatatom 788 256 5 0 0 0 - - -, f 5;
#X connect 1 0 0 1;
#X connect 2 0 0 0;
#X connect 2 1 1 0;
#X connect 4 0 3 0;
#X connect 4 1 5 0;
#X connect 5 0 3 1;
#X connect 7 0 6 0;
#X connect 7 1 14 0;
#X connect 9 0 8 0;
#X connect 9 1 15 0;
#X connect 11 0 10 0;
#X connect 11 1 16 0;
#X connect 13 0 12 0;
#X connect 13 1 17 0;
#X connect 14 0 6 1;
#X connect 15 0 8 1;
#X connect 16 0 10 1;
#X connect 17 0 12 1;
#X connect 20 0 19 0;
#X connect 20 1 34 0;
#X connect 22 0 21 0;
#X connect 22 1 35 0;
#X connect 24 0 23 0;
#X connect 24 1 36 0;
#X connect 26 0 25 0;
#X connect 26 1 31 0;
#X connect 28 0 27 0;
#X connect 28 1 32 0;
#X connect 30 0 29 0;
#X connect 30 1 33 0;
#X connect 31 0 25 1;
#X connect 32 0 27 1;
#X connect 33 0 29 1;
#X connect 34 0 19 1;
#X connect 35 0 21 1;
#X connect 36 0 23 1;
#X connect 37 0 4 0;
#X connect 38 0 2 0;
#X connect 39 0 9 0;
#X connect 39 0 49 0;
#X connect 40 0 11 0;
#X connect 40 0 50 0;
#X connect 41 0 13 0;
#X connect 41 0 51 0;
#X connect 42 0 28 0;
#X connect 42 0 53 0;
#X connect 43 0 26 0;
#X connect 43 0 52 0;
#X connect 44 0 30 0;
#X connect 44 0 54 0;
#X connect 45 0 20 0;
#X connect 45 0 55 0;
#X connect 46 0 22 0;
#X connect 46 0 56 0;
#X connect 47 0 24 0;
#X connect 47 0 57 0;
#X connect 48 0 7 0;
#X restore 411 -102 pd store;
#N canvas 2352 104 928 999 load 0;
#X obj -45 -12 inlet;
#X obj 156 263 + 192;
#X obj 156 293 tabread \$0-pattern;
#X obj 156 209 t f f;
#X obj 156 363 prepend;
#X msg 382 85 \; \$2-pattern read \$1 \;;
#X obj 38 29 openpanel;
#X obj 38 49 pack s \$0;
#X obj 38 192 s \$0-update-grid;
#X msg 38 164 update;
#X obj -45 12 t b b;
#X obj 38 68 t b l;
#X obj 130 30 r \$0-read-pattern;
#X obj 155 855 s \$0-beat-mod1;
#X obj 188 805 s \$0-beat-mod3;
#X obj 176 825 s \$0-beat-mod2;
#X obj 203 782 s \$0-beat-speed-mod1;
#X obj 216 757 s \$0-beat-speed-mod2;
#X obj 232 735 s \$0-beat-speed-mod3;
#X obj 248 710 s \$0-beat-pitch1;
#X obj 263 686 s \$0-beat-pitch2;
#X obj 279 662 s \$0-beat-pitch3;
#X obj 294 641 s \$0-timing1;
#X obj 309 623 s \$0-timing2;
#X obj 324 604 s \$0-timing3;
#X obj 156 407 route 0 1 2 3 4 5 6 7 8 9 10 11;
#X obj 306 172 u_iterate 16;
#X obj 38 133 t b b b b b;
#X obj 439 160 u_iterate 16;
#X obj 582 162 u_iterate 16;
#X obj 306 227 + 204;
#X obj 306 254 tabread \$0-pattern;
#X obj 306 280 prepend;
#X obj 306 194 t f f;
#X obj 306 309 s \$0-loop-pattern1;
#X obj 439 254 tabread \$0-pattern;
#X obj 439 280 prepend;
#X obj 439 194 t f f;
#X obj 582 256 tabread \$0-pattern;
#X obj 582 282 prepend;
#X obj 582 196 t f f;
#X obj 242 367 prepend;
#X obj 239 328 t f f;
#X obj 330 374 print index;
#X obj 156 177 u_iterate 12;
#X obj 439 309 s \$0-loop-pattern2;
#X obj 582 311 s \$0-loop-pattern3;
#X obj 439 227 + 220;
#X obj 582 229 + 236;
#X connect 0 0 10 0;
#X connect 1 0 42 0;
#X connect 2 0 4 0;
#X connect 2 0 41 0;
#X connect 3 0 1 0;
#X connect 3 1 4 1;
#X connect 4 0 25 0;
#X connect 6 0 7 0;
#X connect 7 0 11 0;
#X connect 9 0 8 0;
#X connect 10 1 6 0;
#X connect 11 0 27 0;
#X connect 11 1 5 0;
#X connect 12 0 7 0;
#X connect 25 0 13 0;
#X connect 25 1 15 0;
#X connect 25 2 14 0;
#X connect 25 3 16 0;
#X connect 25 4 17 0;
#X connect 25 5 18 0;
#X connect 25 6 19 0;
#X connect 25 7 20 0;
#X connect 25 8 21 0;
#X connect 25 9 22 0;
#X connect 25 10 23 0;
#X connect 25 11 24 0;
#X connect 26 0 33 0;
#X connect 27 0 9 0;
#X connect 27 1 44 0;
#X connect 27 2 26 0;
#X connect 27 3 28 0;
#X connect 27 4 29 0;
#X connect 28 0 37 0;
#X connect 29 0 40 0;
#X connect 30 0 31 0;
#X connect 31 0 32 0;
#X connect 32 0 34 0;
#X connect 33 0 30 0;
#X connect 33 1 32 1;
#X connect 35 0 36 0;
#X connect 36 0 45 0;
#X connect 37 0 47 0;
#X connect 37 1 36 1;
#X connect 38 0 39 0;
#X connect 39 0 46 0;
#X connect 40 0 48 0;
#X connect 40 1 39 1;
#X connect 41 0 43 0;
#X connect 42 0 2 0;
#X connect 42 1 41 1;
#X connect 44 0 3 0;
#X connect 47 0 35 0;
#X connect 48 0 38 0;
#X restore 568 -175 pd load;
#X obj 412 -176 s \$0-update-grid;
#X msg 412 -204 update;
#N canvas 2268 427 450 300 timing 0;
#X obj 305 41 bng 15 250 50 0 empty empty empty 17 7 0 10 -262144 -1
-1;
#X obj 103 102 bng 15 250 50 0 empty empty 4 4 7 0 10 -262144 -1 -1
;
#X obj 118 102 bng 15 250 50 0 empty empty 8 4 7 0 10 -262144 -1 -1
;
#X obj 133 102 bng 15 250 50 0 empty empty 16 2 8 0 10 -262144 -1 -1
;
#X msg 103 134 0;
#X msg 139 134 1;
#X msg 173 134 2;
#X obj 173 101 loadbang;
#X obj 103 181 s \$0-timing1;
#X connect 1 0 4 0;
#X connect 2 0 5 0;
#X connect 3 0 6 0;
#X connect 4 0 8 0;
#X connect 5 0 8 0;
#X connect 6 0 8 0;
#X connect 7 0 6 0;
#X coords 0 -1 1 1 53 20 2 100 100;
#X restore 6 -80 pd timing;
#N canvas 1463 225 967 511 loopie 0;
#X obj 100 101 tgl 13 0 empty empty empty 17 7 0 10 -262144 -1 -1 0
1;
#X obj 113 101 tgl 13 0 empty empty empty 17 7 0 10 -262144 -1 -1 0
1;
#X obj 127 101 tgl 13 0 empty empty empty 17 7 0 10 -262144 -1 -1 0
1;
#X obj 140 101 tgl 13 0 empty empty empty 17 7 0 10 -262144 -1 -1 0
1;
#X obj 153 101 tgl 13 0 empty empty empty 17 7 0 10 -262144 -1 -1 0
1;
#X obj 166 101 tgl 13 0 empty empty empty 17 7 0 10 -262144 -1 -1 0
1;
#X obj 180 101 tgl 13 0 empty empty empty 17 7 0 10 -262144 -1 -1 0
1;
#X obj 193 101 tgl 13 0 empty empty empty 17 7 0 10 -262144 -1 -1 0
1;
#X obj 207 101 tgl 13 0 empty empty empty 17 7 0 10 -262144 -1 -1 0
1;
#X obj 220 101 tgl 13 0 empty empty empty 17 7 0 10 -262144 -1 -1 0
1;
#X obj 234 101 tgl 13 0 empty empty empty 17 7 0 10 -262144 -1 -1 0
1;
#X obj 247 101 tgl 13 0 empty empty empty 17 7 0 10 -262144 -1 -1 0
1;
#X obj 260 101 tgl 13 0 empty empty empty 17 7 0 10 -262144 -1 -1 0
1;
#X obj 273 101 tgl 13 0 empty empty empty 17 7 0 10 -262144 -1 -1 0
1;
#X obj 287 101 tgl 13 0 empty empty empty 17 7 0 10 -262144 -1 -1 0
1;
#X obj 298 101 tgl 13 0 empty empty empty 17 7 0 10 -262144 -1 -1 0
1;
#X obj 27 404 t f b;
#X obj 49 378 t f b;
#X obj 90 356 t f b;
#X obj 121 331 t f b;
#X msg 157 441 0;
#X msg 167 417 1;
#X msg 177 384 2;
#X msg 175 347 3;
#X obj 128 305 t f b;
#X obj 150 279 t f b;
#X obj 191 257 t f b;
#X obj 222 232 t f b;
#X msg 258 342 4;
#X msg 268 318 5;
#X msg 278 285 6;
#X msg 276 249 7;
#X obj 309 336 t f b;
#X obj 331 310 t f b;
#X obj 372 288 t f b;
#X obj 403 263 t f b;
#X obj 410 237 t f b;
#X obj 432 211 t f b;
#X obj 473 189 t f b;
#X obj 504 164 t f b;
#X msg 439 373 8;
#X msg 449 350 9;
#X msg 459 316 10;
#X msg 457 279 11;
#X msg 540 274 12;
#X msg 550 250 13;
#X msg 560 218 14;
#X msg 558 181 15;
#X obj 610 307 % 16;
#X obj 610 363 tabread \$0-pattern;
#X obj 150 479 + 204;
#X obj 610 277 r \$0-local-clock1;
#X obj 610 337 + 204;
#X obj 27 500 tabwrite \$0-pattern;
#X obj 105 -44 r \$0-loop-pattern1;
#X obj 101 -22 route 0 1 2 3 4 5 6 7 8 9 10 11 12 13 14 15;
#X obj 610 424 s \$0-loop1;
#X connect 0 0 16 0;
#X connect 1 0 17 0;
#X connect 2 0 18 0;
#X connect 3 0 19 0;
#X connect 4 0 24 0;
#X connect 5 0 25 0;
#X connect 6 0 26 0;
#X connect 7 0 27 0;
#X connect 8 0 32 0;
#X connect 9 0 33 0;
#X connect 10 0 34 0;
#X connect 11 0 35 0;
#X connect 12 0 36 0;
#X connect 13 0 37 0;
#X connect 14 0 38 0;
#X connect 15 0 39 0;
#X connect 16 0 53 0;
#X connect 16 1 20 0;
#X connect 17 0 53 0;
#X connect 17 1 21 0;
#X connect 18 0 53 0;
#X connect 18 1 22 0;
#X connect 19 0 53 0;
#X connect 19 1 23 0;
#X connect 20 0 50 0;
#X connect 21 0 50 0;
#X connect 22 0 50 0;
#X connect 23 0 50 0;
#X connect 24 0 53 0;
#X connect 24 1 28 0;
#X connect 25 0 53 0;
#X connect 25 1 29 0;
#X connect 26 0 53 0;
#X connect 26 1 30 0;
#X connect 27 0 53 0;
#X connect 27 1 31 0;
#X connect 28 0 50 0;
#X connect 29 0 50 0;
#X connect 30 0 50 0;
#X connect 31 0 50 0;
#X connect 32 0 53 0;
#X connect 32 1 40 0;
#X connect 33 0 53 0;
#X connect 33 1 41 0;
#X connect 34 0 53 0;
#X connect 34 1 42 0;
#X connect 35 0 53 0;
#X connect 35 1 43 0;
#X connect 36 0 53 0;
#X connect 36 1 44 0;
#X connect 37 0 53 0;
#X connect 37 1 45 0;
#X connect 38 0 53 0;
#X connect 38 1 46 0;
#X connect 39 0 53 0;
#X connect 39 1 47 0;
#X connect 40 0 50 0;
#X connect 41 0 50 0;
#X connect 42 0 50 0;
#X connect 43 0 50 0;
#X connect 44 0 50 0;
#X connect 45 0 50 0;
#X connect 46 0 50 0;
#X connect 47 0 50 0;
#X connect 48 0 52 0;
#X connect 49 0 56 0;
#X connect 50 0 53 1;
#X connect 51 0 48 0;
#X connect 52 0 49 0;
#X connect 54 0 55 0;
#X connect 55 0 0 0;
#X connect 55 1 1 0;
#X connect 55 2 2 0;
#X connect 55 3 3 0;
#X connect 55 4 4 0;
#X connect 55 5 5 0;
#X connect 55 6 6 0;
#X connect 55 7 7 0;
#X connect 55 8 8 0;
#X connect 55 9 9 0;
#X connect 55 10 10 0;
#X connect 55 11 11 0;
#X connect 55 12 12 0;
#X connect 55 13 13 0;
#X connect 55 14 14 0;
#X connect 55 15 15 0;
#X coords 0 -1 1 1 212 14 2 100 100;
#X restore 206 -59 pd loopie;
#N canvas 2121 391 604 456 vol 0;
#X obj 103 104 vsl 13 90 0 127 0 0 \$0-vol-slider0-out \$0-vol-slider0-in
empty 0 -9 0 10 -262144 -1 -1 8900 1;
#X obj 116 104 vsl 13 90 0 127 0 0 \$0-vol-slider1-out \$0-vol-slider1-in
empty 0 -9 0 10 -262144 -1 -1 8900 1;
#X obj 129 104 vsl 13 90 0 127 0 0 \$0-vol-slider2-out \$0-vol-slider2-in
empty 0 -9 0 10 -262144 -1 -1 8900 1;
#X obj 142 104 vsl 13 90 0 127 0 0 \$0-vol-slider3-out \$0-vol-slider3-in
empty 0 -9 0 10 -262144 -1 -1 8900 1;
#X obj 155 104 vsl 13 90 0 127 0 0 \$0-vol-slider4-out \$0-vol-slider4-in
empty 0 -9 0 10 -262144 -1 -1 8900 1;
#X obj 168 104 vsl 13 90 0 127 0 0 \$0-vol-slider5-out \$0-vol-slider5-in
empty 0 -9 0 10 -262144 -1 -1 8900 1;
#X obj 181 104 vsl 13 90 0 127 0 0 \$0-vol-slider6-out \$0-vol-slider6-in
empty 0 -9 0 10 -262144 -1 -1 8900 1;
#X obj 194 104 vsl 13 90 0 127 0 0 \$0-vol-slider7-out \$0-vol-slider7-in
empty 0 -9 0 10 -262144 -1 -1 8900 1;
#X obj 207 104 vsl 13 90 0 127 0 0 \$0-vol-slider8-out \$0-vol-slider8-in
empty 0 -9 0 10 -262144 -1 -1 8900 1;
#X obj 220 104 vsl 13 90 0 127 0 0 \$0-vol-slider9-out \$0-vol-slider9-in
empty 0 -9 0 10 -262144 -1 -1 8900 1;
#X obj 233 104 vsl 13 90 0 127 0 0 \$0-vol-slider10-out \$0-vol-slider10-in
empty 0 -9 0 10 -262144 -1 -1 8900 1;
#X obj 246 104 vsl 13 90 0 127 0 0 \$0-vol-slider11-out \$0-vol-slider11-in
empty 0 -9 0 10 -262144 -1 -1 8900 1;
#X obj 259 104 vsl 13 90 0 127 0 0 \$0-vol-slider12-out \$0-vol-slider12-in
empty 0 -9 0 10 -262144 -1 -1 8900 1;
#X obj 272 104 vsl 13 90 0 127 0 0 \$0-vol-slider13-out \$0-vol-slider13-in
empty 0 -9 0 10 -262144 -1 -1 8900 1;
#X obj 285 104 vsl 13 90 0 127 0 0 \$0-vol-slider14-out \$0-vol-slider14-in
empty 0 -9 0 10 -262144 -1 -1 8900 1;
#X obj 298 104 vsl 13 90 0 127 0 0 \$0-vol-slider15-out \$0-vol-slider15-in
empty 0 -9 0 10 -262144 -1 -1 8900 1;
#N canvas 2231 300 552 377 populate 0;
#X obj 1 -59 t f b;
#X msg 106 -42 0;
#X obj 136 -84 r \$0-vol-slider1-out;
#X obj 136 -59 t f b;
#X obj 276 -59 t f b;
#X obj 416 -59 t f b;
#X obj 1 31 t f b;
#X obj 136 31 t f b;
#X obj 276 31 t f b;
#X obj 416 31 t f b;
#X obj 1 121 t f b;
#X obj 136 121 t f b;
#X obj 276 121 t f b;
#X obj 416 121 t f b;
#X obj 1 210 t f b;
#X obj 136 210 t f b;
#X obj 276 210 t f b;
#X obj 416 210 t f b;
#X msg 241 -42 1;
#X msg 381 -42 2;
#X msg 521 -42 3;
#X msg 106 48 4;
#X msg 241 48 5;
#X msg 381 48 6;
#X msg 521 48 7;
#X msg 106 138 8;
#X msg 241 138 9;
#X msg 381 138 10;
#X msg 521 138 11;
#X msg 106 227 12;
#X msg 241 227 13;
#X msg 381 227 14;
#X msg 521 227 15;
#X obj 1 -84 r \$0-vol-slider0-out;
#X obj 276 -84 r \$0-vol-slider2-out;
#X obj 416 -84 r \$0-vol-slider3-out;
#X obj 1 6 r \$0-vol-slider4-out;
#X obj 136 6 r \$0-vol-slider5-out;
#X obj 276 6 r \$0-vol-slider6-out;
#X obj 416 6 r \$0-vol-slider7-out;
#X obj 1 96 r \$0-vol-slider8-out;
#X obj 136 96 r \$0-vol-slider9-out;
#X obj 276 96 r \$0-vol-slider10-out;
#X obj 416 96 r \$0-vol-slider11-out;
#X obj 1 185 r \$0-vol-slider12-out;
#X obj 136 185 r \$0-vol-slider13-out;
#X obj 276 185 r \$0-vol-slider14-out;
#X obj 416 185 r \$0-vol-slider15-out;
#X obj 1 162 tabwrite \$0-vol-array;
#X obj 1 -18 tabwrite \$0-vol-array;
#X obj 136 -18 tabwrite \$0-vol-array;
#X obj 276 -18 tabwrite \$0-vol-array;
#X obj 416 -18 tabwrite \$0-vol-array;
#X obj 416 72 tabwrite \$0-vol-array;
#X obj 276 72 tabwrite \$0-vol-array;
#X obj 136 72 tabwrite \$0-vol-array;
#X obj 1 72 tabwrite \$0-vol-array;
#X obj 136 162 tabwrite \$0-vol-array;
#X obj 276 162 tabwrite \$0-vol-array;
#X obj 416 162 tabwrite \$0-vol-array;
#X obj 416 251 tabwrite \$0-vol-array;
#X obj 276 251 tabwrite \$0-vol-array;
#X obj 136 251 tabwrite \$0-vol-array;
#X obj 1 251 tabwrite \$0-vol-array;
#X connect 0 0 49 0;
#X connect 0 1 1 0;
#X connect 1 0 49 1;
#X connect 2 0 3 0;
#X connect 3 0 50 0;
#X connect 3 1 18 0;
#X connect 4 0 51 0;
#X connect 4 1 19 0;
#X connect 5 0 52 0;
#X connect 5 1 20 0;
#X connect 6 0 56 0;
#X connect 6 1 21 0;
#X connect 7 0 55 0;
#X connect 7 1 22 0;
#X connect 8 0 54 0;
#X connect 8 1 23 0;
#X connect 9 0 53 0;
#X connect 9 1 24 0;
#X connect 10 0 48 0;
#X connect 10 1 25 0;
#X connect 11 0 57 0;
#X connect 11 1 26 0;
#X connect 12 0 58 0;
#X connect 12 1 27 0;
#X connect 13 0 59 0;
#X connect 13 1 28 0;
#X connect 14 0 63 0;
#X connect 14 1 29 0;
#X connect 15 0 62 0;
#X connect 15 1 30 0;
#X connect 16 0 61 0;
#X connect 16 1 31 0;
#X connect 17 0 60 0;
#X connect 17 1 32 0;
#X connect 18 0 50 1;
#X connect 19 0 51 1;
#X connect 20 0 52 1;
#X connect 21 0 56 1;
#X connect 22 0 55 1;
#X connect 23 0 54 1;
#X connect 24 0 53 1;
#X connect 25 0 48 1;
#X connect 26 0 57 1;
#X connect 27 0 58 1;
#X connect 28 0 59 1;
#X connect 29 0 63 1;
#X connect 30 0 62 1;
#X connect 31 0 61 1;
#X connect 32 0 60 1;
#X connect 33 0 0 0;
#X connect 34 0 4 0;
#X connect 35 0 5 0;
#X connect 36 0 6 0;
#X connect 37 0 7 0;
#X connect 38 0 8 0;
#X connect 39 0 9 0;
#X connect 40 0 10 0;
#X connect 41 0 11 0;
#X connect 42 0 12 0;
#X connect 43 0 13 0;
#X connect 44 0 14 0;
#X connect 45 0 15 0;
#X connect 46 0 16 0;
#X connect 47 0 17 0;
#X restore 373 88 pd populate;
#N canvas 556 368 450 300 update 0;
#X restore 374 110 pd update;
#X obj 461 88 r \$0-local-clock;
#X obj 461 114 % 16;
#X obj 461 186 s \$0-step-vol;
#X obj 461 161 / 127;
#X obj 372 66 table \$0-vol-array 16;
#X obj 461 136 tabread \$0-vol-array;
#X floatatom 522 164 5 0 0 0 - - -, f 5;
#N canvas 1653 431 450 300 init 0;
#X msg 89 98 127;
#X obj 89 50 t b f;
#X obj 89 171 s;
#X obj 121 76 pack f \$0;
#X msg 122 116 \$2-vol-slider\$1-in;
#X obj 89 0 loadbang;
#X obj 89 22 u_iterate 16;
#X obj 107 147 symbol;
#X connect 0 0 2 0;
#X connect 1 0 0 0;
#X connect 1 1 3 0;
#X connect 3 0 4 0;
#X connect 4 0 7 0;
#X connect 5 0 6 0;
#X connect 6 0 1 0;
#X connect 7 0 2 1;
#X restore 370 135 pd init;
#X connect 18 0 19 0;
#X connect 19 0 23 0;
#X connect 21 0 20 0;
#X connect 21 0 24 0;
#X connect 23 0 21 0;
#X coords 0 -1 1 1 213 100 1 100 100;
#X restore 643 -235 pd vol;
#N canvas 2621 389 650 686 pattern 0;
#X obj 101 49 moses 8;
#X obj 101 -143 r \$0-beat;
#X obj 145 71 % 8;
#X obj 101 21 % 16;
#X obj 281 73 r \$0-update-grid;
#N canvas 296 392 450 300 mod 0;
#X msg 30 120 mod \$1;
#X obj 30 -16 inlet;
#X msg 91 196 mod \$1;
#X obj 163 109 % 8;
#X obj 30 147 outlet;
#X obj 91 216 outlet;
#X obj 30 32 moses 9;
#X obj 91 32 moses 8;
#X obj 130 68 sel 16;
#X msg 130 108 8;
#X msg 91 106 0;
#X obj 91 70 t b;
#X obj 49 94 8;
#X obj 49 68 t b;
#X connect 0 0 4 0;
#X connect 1 0 6 0;
#X connect 1 0 7 0;
#X connect 2 0 5 0;
#X connect 3 0 2 0;
#X connect 6 0 0 0;
#X connect 6 1 13 0;
#X connect 7 0 11 0;
#X connect 7 1 8 0;
#X connect 8 0 9 0;
#X connect 8 1 3 0;
#X connect 9 0 2 0;
#X connect 10 0 2 0;
#X connect 11 0 10 0;
#X connect 12 0 0 0;
#X connect 13 0 12 0;
#X restore 184 26 pd mod;
#X obj 101 -40 spigot;
#X obj 147 -40 spigot;
#X obj 191 -40 spigot;
#X obj 166 -143 r \$0-quaver;
#X obj 250 -143 r \$0-squaver;
#X obj 237 -73 == 0;
#X obj 268 -74 == 1;
#X obj 300 -73 == 2;
#X obj 237 -96 t f f f;
#X obj 100 101 g_grid8x8 \$0-pattern 4;
#X obj 196 101 g_grid8x8 \$0-pattern 5;
#X obj 100 268 s \$0-event-seq2;
#X obj 184 4 r \$0-beat-mod2;
#X obj 237 -116 r \$0-timing2;
#X obj 319 -23 s \$0-local-clock2;
#X obj 101 -7 + 0;
#X obj 319 -4 r \$0-shift2;
#X connect 0 0 15 0;
#X connect 0 1 2 0;
#X connect 1 0 6 0;
#X connect 2 0 16 0;
#X connect 3 0 0 0;
#X connect 4 0 15 0;
#X connect 4 0 16 0;
#X connect 5 0 15 0;
#X connect 5 1 16 0;
#X connect 6 0 20 0;
#X connect 6 0 21 0;
#X connect 7 0 20 0;
#X connect 7 0 21 0;
#X connect 8 0 20 0;
#X connect 8 0 21 0;
#X connect 9 0 7 0;
#X connect 10 0 8 0;
#X connect 11 0 6 1;
#X connect 12 0 7 1;
#X connect 13 0 8 1;
#X connect 14 0 11 0;
#X connect 14 1 12 0;
#X connect 14 2 13 0;
#X connect 15 0 17 0;
#X connect 16 0 17 0;
#X connect 18 0 5 0;
#X connect 18 0 3 1;
#X connect 19 0 14 0;
#X connect 21 0 3 0;
#X connect 22 0 21 1;
#X coords 0 -1 1 1 193 110 1 100 100;
#X restore 8 -36 pd pattern;
#N canvas 2393 403 696 464 pattern 0;
#X obj 100 49 moses 8;
#X obj 139 71 % 8;
#X obj 100 21 % 16;
#X obj 246 56 r \$0-update-grid;
#N canvas 299 387 450 300 mod 0;
#X msg 30 120 mod \$1;
#X obj 30 -16 inlet;
#X msg 91 196 mod \$1;
#X obj 163 109 % 8;
#X obj 30 147 outlet;
#X obj 91 216 outlet;
#X obj 30 32 moses 9;
#X obj 91 32 moses 8;
#X obj 130 68 sel 16;
#X msg 130 108 8;
#X msg 91 106 0;
#X obj 91 70 t b;
#X obj 49 94 8;
#X obj 49 68 t b;
#X connect 0 0 4 0;
#X connect 1 0 6 0;
#X connect 1 0 7 0;
#X connect 2 0 5 0;
#X connect 3 0 2 0;
#X connect 6 0 0 0;
#X connect 6 1 13 0;
#X connect 7 0 11 0;
#X connect 7 1 8 0;
#X connect 8 0 9 0;
#X connect 8 1 3 0;
#X connect 9 0 2 0;
#X connect 10 0 2 0;
#X connect 11 0 10 0;
#X connect 12 0 0 0;
#X connect 13 0 12 0;
#X restore 178 43 pd mod;
#X obj 100 281 +;
#X obj 100 -144 r \$0-beat;
#X obj 100 -41 spigot;
#X obj 146 -42 spigot;
#X obj 190 -42 spigot;
#X obj 165 -144 r \$0-quaver;
#X obj 249 -144 r \$0-squaver;
#X obj 250 -74 == 0;
#X obj 281 -75 == 1;
#X obj 313 -74 == 2;
#X obj 250 -97 t f f f;
#X obj 100 101 g_grid8x12 \$0-pattern 6;
#X obj 197 101 g_grid8x12 \$0-pattern 7;
#X obj 250 -117 r \$0-timing2;
#X obj 100 305 s \$0-pitch-seq2;
#X obj 178 21 r \$0-beat-speed-mod2;
#X connect 0 0 16 0;
#X connect 0 1 1 0;
#X connect 1 0 17 0;
#X connect 2 0 0 0;
#X connect 3 0 17 0;
#X connect 4 0 16 0;
#X connect 4 1 17 0;
#X connect 5 0 19 0;
#X connect 6 0 7 0;
#X connect 7 0 2 0;
#X connect 8 0 2 0;
#X connect 9 0 2 0;
#X connect 10 0 8 0;
#X connect 11 0 9 0;
#X connect 12 0 7 1;
#X connect 13 0 8 1;
#X connect 14 0 9 1;
#X connect 15 0 12 0;
#X connect 15 1 13 0;
#X connect 15 2 14 0;
#X connect 16 0 5 0;
#X connect 17 0 5 0;
#X connect 18 0 15 0;
#X connect 20 0 4 0;
#X connect 20 0 2 1;
#X coords 0 -1 1 1 193 160 1 100 100;
#X restore 206 -36 pd pattern;
#X text 8 74 Beat;
#X obj 7 90 nbx 5 14 -1e+37 1e+37 0 0 \$0-beat-mod2 \$0-beat-mod2 empty
0 -8 0 10 -262144 -1 -1 16 256;
#X obj 90 90 nbx 5 14 -1e+37 1e+37 0 0 \$0-beat-speed-mod2 \$0-beat-speed-mod2
Length 0 -8 0 10 -262144 -1 -1 16 256;
#X obj 148 90 nbx 5 14 -1e+37 1e+37 0 0 \$0-beat-pitch2 \$0-beat-pitch2
Pitch 0 -8 0 10 -262144 -1 -1 0 256;
#N canvas 2274 419 450 300 timing 0;
#X obj 305 41 bng 15 250 50 0 empty empty empty 17 7 0 10 -262144 -1
-1;
#X obj 103 102 bng 15 250 50 0 empty empty 4 4 7 0 10 -262144 -1 -1
;
#X obj 118 102 bng 15 250 50 0 empty empty 8 4 7 0 10 -262144 -1 -1
;
#X obj 133 102 bng 15 250 50 0 empty empty 16 2 8 0 10 -262144 -1 -1
;
#X msg 103 134 0;
#X msg 139 134 1;
#X msg 173 134 2;
#X obj 173 101 loadbang;
#X obj 103 181 s \$0-timing2;
#X connect 1 0 4 0;
#X connect 2 0 5 0;
#X connect 3 0 6 0;
#X connect 4 0 8 0;
#X connect 5 0 8 0;
#X connect 6 0 8 0;
#X connect 7 0 6 0;
#X coords 0 -1 1 1 53 20 2 100 100;
#X restore 7 107 pd timing;
#N canvas 2621 389 650 686 pattern 0;
#X obj 101 49 moses 8;
#X obj 101 -163 r \$0-beat;
#X obj 145 71 % 8;
#X obj 101 21 % 16;
#X obj 281 73 r \$0-update-grid;
#N canvas 296 392 450 300 mod 0;
#X msg 30 120 mod \$1;
#X obj 30 -16 inlet;
#X msg 91 196 mod \$1;
#X obj 163 109 % 8;
#X obj 30 147 outlet;
#X obj 91 216 outlet;
#X obj 30 32 moses 9;
#X obj 91 32 moses 8;
#X obj 130 68 sel 16;
#X msg 130 108 8;
#X msg 91 106 0;
#X obj 91 70 t b;
#X obj 49 94 8;
#X obj 49 68 t b;
#X connect 0 0 4 0;
#X connect 1 0 6 0;
#X connect 1 0 7 0;
#X connect 2 0 5 0;
#X connect 3 0 2 0;
#X connect 6 0 0 0;
#X connect 6 1 13 0;
#X connect 7 0 11 0;
#X connect 7 1 8 0;
#X connect 8 0 9 0;
#X connect 8 1 3 0;
#X connect 9 0 2 0;
#X connect 10 0 2 0;
#X connect 11 0 10 0;
#X connect 12 0 0 0;
#X connect 13 0 12 0;
#X restore 161 41 pd mod;
#X obj 101 -60 spigot;
#X obj 147 -60 spigot;
#X obj 191 -60 spigot;
#X obj 166 -163 r \$0-quaver;
#X obj 250 -163 r \$0-squaver;
#X obj 237 -93 == 0;
#X obj 268 -94 == 1;
#X obj 300 -93 == 2;
#X obj 237 -116 t f f f;
#X obj 101 268 s \$0-event-seq3;
#X obj 161 19 r \$0-beat-mod3;
#X obj 237 -136 r \$0-timing3;
#X obj 101 101 g_grid8x8 \$0-pattern 8;
#X obj 197 101 g_grid8x8 \$0-pattern 9;
#X obj 311 -3 s \$0-local-clock3;
#X obj 101 -19 + 0;
#X obj 164 -17 r \$0-shift3;
#X connect 0 0 18 0;
#X connect 0 1 2 0;
#X connect 1 0 6 0;
#X connect 2 0 19 0;
#X connect 3 0 0 0;
#X connect 4 0 18 0;
#X connect 4 0 19 0;
#X connect 5 0 18 0;
#X connect 5 1 19 0;
#X connect 6 0 20 0;
#X connect 6 0 21 0;
#X connect 7 0 20 0;
#X connect 7 0 21 0;
#X connect 8 0 20 0;
#X connect 8 0 21 0;
#X connect 9 0 7 0;
#X connect 10 0 8 0;
#X connect 11 0 6 1;
#X connect 12 0 7 1;
#X connect 13 0 8 1;
#X connect 14 0 11 0;
#X connect 14 1 12 0;
#X connect 14 2 13 0;
#X connect 16 0 5 0;
#X connect 16 0 3 1;
#X connect 17 0 14 0;
#X connect 18 0 15 0;
#X connect 19 0 15 0;
#X connect 21 0 3 0;
#X connect 22 0 21 1;
#X coords 0 -1 1 1 193 110 1 100 100;
#X restore 10 149 pd pattern;
#X text 10 259 Beat;
#X obj 9 275 nbx 5 14 -1e+37 1e+37 0 0 \$0-beat-mod3 \$0-beat-mod3
empty 0 -8 0 10 -262144 -1 -1 16 256;
#X obj 92 275 nbx 5 14 -1e+37 1e+37 0 0 \$0-beat-speed-mod3 \$0-beat-speed-mod3
Length 0 -8 0 10 -262144 -1 -1 16 256;
#X obj 150 275 nbx 5 14 -1e+37 1e+37 0 0 \$0-beat-pitch3 \$0-beat-pitch3
Pitch 0 -8 0 10 -262144 -1 -1 0 256;
#N canvas 2706 516 450 300 timing 0;
#X obj 305 41 bng 15 250 50 0 empty empty empty 17 7 0 10 -262144 -1
-1;
#X obj 103 102 bng 15 250 50 0 empty empty 4 4 7 0 10 -262144 -1 -1
;
#X obj 118 102 bng 15 250 50 0 empty empty 8 4 7 0 10 -262144 -1 -1
;
#X obj 133 102 bng 15 250 50 0 empty empty 16 2 8 0 10 -262144 -1 -1
;
#X msg 103 134 0;
#X msg 139 134 1;
#X msg 173 134 2;
#X obj 173 101 loadbang;
#X obj 103 181 s \$0-timing3;
#X connect 1 0 4 0;
#X connect 2 0 5 0;
#X connect 3 0 6 0;
#X connect 4 0 8 0;
#X connect 5 0 8 0;
#X connect 6 0 8 0;
#X connect 7 0 6 0;
#X coords 0 -1 1 1 53 20 2 100 100;
#X restore 9 292 pd timing;
#N canvas 2390 407 696 464 pattern 0;
#X obj 100 49 moses 8;
#X obj 139 71 % 8;
#X obj 100 21 % 16;
#X obj 246 56 r \$0-update-grid;
#N canvas 299 387 450 300 mod 0;
#X msg 30 120 mod \$1;
#X obj 30 -16 inlet;
#X msg 91 196 mod \$1;
#X obj 163 109 % 8;
#X obj 30 147 outlet;
#X obj 91 216 outlet;
#X obj 30 32 moses 9;
#X obj 91 32 moses 8;
#X obj 130 68 sel 16;
#X msg 130 108 8;
#X msg 91 106 0;
#X obj 91 70 t b;
#X obj 49 94 8;
#X obj 49 68 t b;
#X connect 0 0 4 0;
#X connect 1 0 6 0;
#X connect 1 0 7 0;
#X connect 2 0 5 0;
#X connect 3 0 2 0;
#X connect 6 0 0 0;
#X connect 6 1 13 0;
#X connect 7 0 11 0;
#X connect 7 1 8 0;
#X connect 8 0 9 0;
#X connect 8 1 3 0;
#X connect 9 0 2 0;
#X connect 10 0 2 0;
#X connect 11 0 10 0;
#X connect 12 0 0 0;
#X connect 13 0 12 0;
#X restore 178 43 pd mod;
#X obj 100 -144 r \$0-beat;
#X obj 100 -41 spigot;
#X obj 146 -42 spigot;
#X obj 190 -42 spigot;
#X obj 165 -144 r \$0-quaver;
#X obj 249 -144 r \$0-squaver;
#X obj 250 -74 == 0;
#X obj 281 -75 == 1;
#X obj 313 -74 == 2;
#X obj 250 -97 t f f f;
#X obj 100 101 g_grid8x12 \$0-pattern 10;
#X obj 197 101 g_grid8x12 \$0-pattern 11;
#X obj 100 305 s \$0-pitch-seq3;
#X obj 178 21 r \$0-beat-speed-mod3;
#X obj 250 -117 r \$0-timing3;
#X connect 0 0 15 0;
#X connect 0 1 1 0;
#X connect 1 0 16 0;
#X connect 2 0 0 0;
#X connect 3 0 15 0;
#X connect 3 0 16 0;
#X connect 4 0 15 0;
#X connect 4 1 16 0;
#X connect 5 0 6 0;
#X connect 6 0 2 0;
#X connect 7 0 2 0;
#X connect 8 0 2 0;
#X connect 9 0 7 0;
#X connect 10 0 8 0;
#X connect 11 0 6 1;
#X connect 12 0 7 1;
#X connect 13 0 8 1;
#X connect 14 0 11 0;
#X connect 14 1 12 0;
#X connect 14 2 13 0;
#X connect 15 0 17 0;
#X connect 16 0 17 0;
#X connect 18 0 4 0;
#X connect 18 0 2 1;
#X connect 19 0 14 0;
#X coords 0 -1 1 1 193 160 1 100 100;
#X restore 208 149 pd pattern;
#N canvas 1537 277 967 511 loopie 0;
#X obj 100 101 tgl 13 0 empty empty empty 17 7 0 10 -262144 -1 -1 0
1;
#X obj 113 101 tgl 13 0 empty empty empty 17 7 0 10 -262144 -1 -1 0
1;
#X obj 127 101 tgl 13 0 empty empty empty 17 7 0 10 -262144 -1 -1 0
1;
#X obj 140 101 tgl 13 0 empty empty empty 17 7 0 10 -262144 -1 -1 0
1;
#X obj 153 101 tgl 13 0 empty empty empty 17 7 0 10 -262144 -1 -1 0
1;
#X obj 166 101 tgl 13 0 empty empty empty 17 7 0 10 -262144 -1 -1 0
1;
#X obj 180 101 tgl 13 0 empty empty empty 17 7 0 10 -262144 -1 -1 0
1;
#X obj 193 101 tgl 13 0 empty empty empty 17 7 0 10 -262144 -1 -1 0
1;
#X obj 207 101 tgl 13 0 empty empty empty 17 7 0 10 -262144 -1 -1 0
1;
#X obj 220 101 tgl 13 0 empty empty empty 17 7 0 10 -262144 -1 -1 0
1;
#X obj 234 101 tgl 13 0 empty empty empty 17 7 0 10 -262144 -1 -1 0
1;
#X obj 247 101 tgl 13 0 empty empty empty 17 7 0 10 -262144 -1 -1 0
1;
#X obj 260 101 tgl 13 0 empty empty empty 17 7 0 10 -262144 -1 -1 0
1;
#X obj 273 101 tgl 13 0 empty empty empty 17 7 0 10 -262144 -1 -1 0
1;
#X obj 287 101 tgl 13 0 empty empty empty 17 7 0 10 -262144 -1 -1 0
1;
#X obj 298 101 tgl 13 0 empty empty empty 17 7 0 10 -262144 -1 -1 0
1;
#X obj 27 404 t f b;
#X obj 49 378 t f b;
#X obj 90 356 t f b;
#X obj 121 331 t f b;
#X msg 157 441 0;
#X msg 167 417 1;
#X msg 177 384 2;
#X msg 175 347 3;
#X obj 128 305 t f b;
#X obj 150 279 t f b;
#X obj 191 257 t f b;
#X obj 222 232 t f b;
#X msg 258 342 4;
#X msg 268 318 5;
#X msg 278 285 6;
#X msg 276 249 7;
#X obj 309 336 t f b;
#X obj 331 310 t f b;
#X obj 372 288 t f b;
#X obj 403 263 t f b;
#X obj 410 237 t f b;
#X obj 432 211 t f b;
#X obj 473 189 t f b;
#X obj 504 164 t f b;
#X msg 439 373 8;
#X msg 449 350 9;
#X msg 459 316 10;
#X msg 457 279 11;
#X msg 540 274 12;
#X msg 550 250 13;
#X msg 560 218 14;
#X msg 558 181 15;
#X obj 610 307 % 16;
#X obj 610 363 tabread \$0-pattern;
#X obj 27 500 tabwrite \$0-pattern;
#X obj 101 -22 route 0 1 2 3 4 5 6 7 8 9 10 11 12 13 14 15;
#X obj 105 -44 r \$0-loop-pattern2;
#X obj 150 479 + 220;
#X obj 610 337 + 220;
#X obj 610 277 r \$0-local-clock2;
#X obj 610 424 s \$0-loop2;
#X connect 0 0 16 0;
#X connect 1 0 17 0;
#X connect 2 0 18 0;
#X connect 3 0 19 0;
#X connect 4 0 24 0;
#X connect 5 0 25 0;
#X connect 6 0 26 0;
#X connect 7 0 27 0;
#X connect 8 0 32 0;
#X connect 9 0 33 0;
#X connect 10 0 34 0;
#X connect 11 0 35 0;
#X connect 12 0 36 0;
#X connect 13 0 37 0;
#X connect 14 0 38 0;
#X connect 15 0 39 0;
#X connect 16 0 50 0;
#X connect 16 1 20 0;
#X connect 17 0 50 0;
#X connect 17 1 21 0;
#X connect 18 0 50 0;
#X connect 18 1 22 0;
#X connect 19 0 50 0;
#X connect 19 1 23 0;
#X connect 20 0 53 0;
#X connect 21 0 53 0;
#X connect 22 0 53 0;
#X connect 23 0 53 0;
#X connect 24 0 50 0;
#X connect 24 1 28 0;
#X connect 25 0 50 0;
#X connect 25 1 29 0;
#X connect 26 0 50 0;
#X connect 26 1 30 0;
#X connect 27 0 50 0;
#X connect 27 1 31 0;
#X connect 28 0 53 0;
#X connect 29 0 53 0;
#X connect 30 0 53 0;
#X connect 31 0 53 0;
#X connect 32 0 50 0;
#X connect 32 1 40 0;
#X connect 33 0 50 0;
#X connect 33 1 41 0;
#X connect 34 0 50 0;
#X connect 34 1 42 0;
#X connect 35 0 50 0;
#X connect 35 1 43 0;
#X connect 36 0 50 0;
#X connect 36 1 44 0;
#X connect 37 0 50 0;
#X connect 37 1 45 0;
#X connect 38 0 50 0;
#X connect 38 1 46 0;
#X connect 39 0 50 0;
#X connect 39 1 47 0;
#X connect 40 0 53 0;
#X connect 41 0 53 0;
#X connect 42 0 53 0;
#X connect 43 0 53 0;
#X connect 44 0 53 0;
#X connect 45 0 53 0;
#X connect 46 0 53 0;
#X connect 47 0 53 0;
#X connect 48 0 54 0;
#X connect 49 0 56 0;
#X connect 51 0 0 0;
#X connect 51 1 1 0;
#X connect 51 2 2 0;
#X connect 51 3 3 0;
#X connect 51 4 4 0;
#X connect 51 5 5 0;
#X connect 51 6 6 0;
#X connect 51 7 7 0;
#X connect 51 8 8 0;
#X connect 51 9 9 0;
#X connect 51 10 10 0;
#X connect 51 11 11 0;
#X connect 51 12 12 0;
#X connect 51 13 13 0;
#X connect 51 14 14 0;
#X connect 51 15 15 0;
#X connect 52 0 51 0;
#X connect 53 0 50 1;
#X connect 54 0 49 0;
#X connect 55 0 48 0;
#X coords 0 -1 1 1 212 14 2 100 100;
#X restore 205 130 pd loopie;
#N canvas 2310 291 967 511 loopie 0;
#X obj 100 101 tgl 13 0 empty empty empty 17 7 0 10 -262144 -1 -1 0
1;
#X obj 113 101 tgl 13 0 empty empty empty 17 7 0 10 -262144 -1 -1 0
1;
#X obj 127 101 tgl 13 0 empty empty empty 17 7 0 10 -262144 -1 -1 0
1;
#X obj 140 101 tgl 13 0 empty empty empty 17 7 0 10 -262144 -1 -1 0
1;
#X obj 153 101 tgl 13 0 empty empty empty 17 7 0 10 -262144 -1 -1 0
1;
#X obj 166 101 tgl 13 0 empty empty empty 17 7 0 10 -262144 -1 -1 0
1;
#X obj 180 101 tgl 13 0 empty empty empty 17 7 0 10 -262144 -1 -1 0
1;
#X obj 193 101 tgl 13 0 empty empty empty 17 7 0 10 -262144 -1 -1 0
1;
#X obj 207 101 tgl 13 0 empty empty empty 17 7 0 10 -262144 -1 -1 0
1;
#X obj 220 101 tgl 13 0 empty empty empty 17 7 0 10 -262144 -1 -1 0
1;
#X obj 234 101 tgl 13 0 empty empty empty 17 7 0 10 -262144 -1 -1 0
1;
#X obj 247 101 tgl 13 0 empty empty empty 17 7 0 10 -262144 -1 -1 0
1;
#X obj 260 101 tgl 13 0 empty empty empty 17 7 0 10 -262144 -1 -1 0
1;
#X obj 273 101 tgl 13 0 empty empty empty 17 7 0 10 -262144 -1 -1 0
1;
#X obj 287 101 tgl 13 0 empty empty empty 17 7 0 10 -262144 -1 -1 0
1;
#X obj 298 101 tgl 13 0 empty empty empty 17 7 0 10 -262144 -1 -1 0
1;
#X obj 27 404 t f b;
#X obj 49 378 t f b;
#X obj 90 356 t f b;
#X obj 121 331 t f b;
#X msg 157 441 0;
#X msg 167 417 1;
#X msg 177 384 2;
#X msg 175 347 3;
#X obj 128 305 t f b;
#X obj 150 279 t f b;
#X obj 191 257 t f b;
#X obj 222 232 t f b;
#X msg 258 342 4;
#X msg 268 318 5;
#X msg 278 285 6;
#X msg 276 249 7;
#X obj 309 336 t f b;
#X obj 331 310 t f b;
#X obj 372 288 t f b;
#X obj 403 263 t f b;
#X obj 410 237 t f b;
#X obj 432 211 t f b;
#X obj 473 189 t f b;
#X obj 504 164 t f b;
#X msg 439 373 8;
#X msg 449 350 9;
#X msg 459 316 10;
#X msg 457 279 11;
#X msg 540 274 12;
#X msg 550 250 13;
#X msg 560 218 14;
#X msg 558 181 15;
#X obj 610 307 % 16;
#X obj 610 363 tabread \$0-pattern;
#X obj 27 500 tabwrite \$0-pattern;
#X obj 101 -22 route 0 1 2 3 4 5 6 7 8 9 10 11 12 13 14 15;
#X obj 610 337 + 236;
#X obj 150 479 + 236;
#X obj 610 276 r \$0-local-clock3;
#X obj 610 424 s \$0-loop3;
#X obj 101 -44 r \$0-loop-pattern3;
#X obj 709 320 r \$0-beat-mod3;
#X connect 0 0 16 0;
#X connect 1 0 17 0;
#X connect 2 0 18 0;
#X connect 3 0 19 0;
#X connect 4 0 24 0;
#X connect 5 0 25 0;
#X connect 6 0 26 0;
#X connect 7 0 27 0;
#X connect 8 0 32 0;
#X connect 9 0 33 0;
#X connect 10 0 34 0;
#X connect 11 0 35 0;
#X connect 12 0 36 0;
#X connect 13 0 37 0;
#X connect 14 0 38 0;
#X connect 15 0 39 0;
#X connect 16 0 50 0;
#X connect 16 1 20 0;
#X connect 17 0 50 0;
#X connect 17 1 21 0;
#X connect 18 0 50 0;
#X connect 18 1 22 0;
#X connect 19 0 50 0;
#X connect 19 1 23 0;
#X connect 20 0 53 0;
#X connect 21 0 53 0;
#X connect 22 0 53 0;
#X connect 23 0 53 0;
#X connect 24 0 50 0;
#X connect 24 1 28 0;
#X connect 25 0 50 0;
#X connect 25 1 29 0;
#X connect 26 0 50 0;
#X connect 26 1 30 0;
#X connect 27 0 50 0;
#X connect 27 1 31 0;
#X connect 28 0 53 0;
#X connect 29 0 53 0;
#X connect 30 0 53 0;
#X connect 31 0 53 0;
#X connect 32 0 50 0;
#X connect 32 1 40 0;
#X connect 33 0 50 0;
#X connect 33 1 41 0;
#X connect 34 0 50 0;
#X connect 34 1 42 0;
#X connect 35 0 50 0;
#X connect 35 1 43 0;
#X connect 36 0 50 0;
#X connect 36 1 44 0;
#X connect 37 0 50 0;
#X connect 37 1 45 0;
#X connect 38 0 50 0;
#X connect 38 1 46 0;
#X connect 39 0 50 0;
#X connect 39 1 47 0;
#X connect 40 0 53 0;
#X connect 41 0 53 0;
#X connect 42 0 53 0;
#X connect 43 0 53 0;
#X connect 44 0 53 0;
#X connect 45 0 53 0;
#X connect 46 0 53 0;
#X connect 47 0 53 0;
#X connect 48 0 52 0;
#X connect 49 0 55 0;
#X connect 51 0 0 0;
#X connect 51 1 1 0;
#X connect 51 2 2 0;
#X connect 51 3 3 0;
#X connect 51 4 4 0;
#X connect 51 5 5 0;
#X connect 51 6 6 0;
#X connect 51 7 7 0;
#X connect 51 8 8 0;
#X connect 51 9 9 0;
#X connect 51 10 10 0;
#X connect 51 11 11 0;
#X connect 51 12 12 0;
#X connect 51 13 13 0;
#X connect 51 14 14 0;
#X connect 51 15 15 0;
#X connect 52 0 49 0;
#X connect 53 0 50 1;
#X connect 54 0 48 0;
#X connect 56 0 51 0;
#X connect 57 0 48 1;
#X coords 0 -1 1 1 212 14 2 100 100;
#X restore 208 314 pd loopie;
#X obj 412 -224 table \$0-pattern 300;
#N canvas 2684 445 450 397 init 0;
#X obj 167 107 \$0;
#X obj 167 76 loadbang;
#X msg 167 139 \; \$1-beat-mod1 16 \; \$1-beat-mod2 16 \; \$1-beat-mod3
16 \; \$1-beat-speed-mod1 16 \; \$1-beat-speed-mod2 16 \; \$1-beat-speed-mod3
16 \; \$1-beat-pitch1 0 \; \$1-beat-pitch2 0 \; \$1-beat-pitch3 0 \;
\$1-timing1 2 \; \$1-timing2 2 \; \$1-timing3 2 \;;
#X connect 0 0 2 0;
#X connect 1 0 0 0;
#X restore 465 -62 pd init;
#X obj 91 108 nbx 5 14 -1e+37 1e+37 0 0 \$0-shift2 \$0-shift2 empty
0 -8 0 10 -262144 -1 -1 0 256;
#X obj 90 -79 nbx 5 14 -1e+37 1e+37 0 0 \$0-shift1 \$0-shift1 empty
0 -8 0 10 -262144 -1 -1 0 256;
#X obj 92 295 nbx 5 14 -1e+37 1e+37 0 0 \$0-shift2 \$0-shift2 empty
0 -8 0 10 -262144 -1 -1 0 256;
#X connect 2 0 1 0;
#X connect 8 0 7 0;
#X connect 11 0 18 0;
#X connect 13 0 16 0;
#X connect 14 0 15 0;
#X connect 16 0 14 0;
#X connect 20 0 19 0;
