#N canvas 1431 72 1855 1027 10;
#X declare -path abstractions/;
#X declare -path ../loopstation/;
#X declare -path ../bin/;
#X declare -path bin/;
#N canvas 65 54 1301 714 delset 0;
#X obj 103 119 nbx 5 14 0 100 0 0 empty empty empty 0 -8 0 10 -262144
-1 -1 0 256;
#X obj 170 119 nbx 5 14 -1e+37 1e+37 0 0 empty empty empty 0 -8 0 10
-262144 -1 -1 0 256;
#X obj 103 163 / 100;
#X obj 103 185 s fb;
#X obj 169 165 s del-time;
#N canvas 683 82 576 686 globalticks 0;
#X obj 412 393 s globalticks;
#X obj 45 57 unpack;
#X obj 45 271 s \$0-groove;
#X text 126 25 from xy field;
#X obj 45 246 * 0.25;
#X obj 45 25 r groove/BPM;
#X obj 311 227 midiout;
#X obj 202 130 select 0 1;
#X msg 202 164 252;
#X msg 239 164 250;
#X msg 311 157 248;
#X obj 311 127 metro 20.8333;
#X obj 386 100 expr (60000/$f1/24);
#X obj 411 189 counter;
#X obj 411 214 % 192;
#X floatatom 412 239 5 0 0 0 - - -, f 5;
#X obj 412 289 sel 0;
#X obj 412 311 bng 15 250 50 0 empty empty empty 17 7 0 10 -262144
-1 -1;
#X obj 329 52 r groove/BPM;
#X obj 329 74 unpack f f;
#N canvas 536 160 297 177 tick-tables 0;
#X obj 31 18 loadbang;
#N canvas 65 110 246 266 commontime 0;
#X obj 30 209 table \$0-commontime 256;
#X obj 31 175 tabwrite \$0-commontime;
#X obj 31 142 t f f;
#X obj 31 86 bng 15 250 50 0 empty empty empty 17 7 0 10 -262144 -1
-1;
#X obj 31 53 inlet;
#X obj 31 114 iterate 256;
#X connect 2 0 1 0;
#X connect 2 1 1 1;
#X connect 3 0 5 0;
#X connect 4 0 3 0;
#X connect 5 0 2 0;
#X restore 31 100 pd commontime;
#N canvas 748 50 413 471 sixquavers 0;
#X obj 27 38 inlet;
#X obj 27 66 bng 15 250 50 0 empty empty empty 17 7 0 10 -262144 -1
-1;
#X obj 27 272 tabwrite \$0-sixquavers;
#X obj 27 122 t b f;
#X obj 156 246 +;
#X obj 27 191 unpack;
#X obj 224 243 s \$0-sixquavers;
#X msg 224 215 arrayviewlistnew;
#X obj 171 221 * 12;
#X obj 27 245 +;
#X obj 42 220 * 16;
#X obj 224 272 table \$0-sixquavers 192;
#X msg 27 151 0 0 \, 1 1 \, 2 2 \, 4 3 \, 5 4 \, 6 5 \, 8 6 \, 9 7
\, 10 8 \, 12 9 \, 13 10 \, 14 11;
#X obj 27 364 hradio 15 1 0 3 empty empty empty 0 -8 0 10 -262144 -262144
-1 0;
#X obj 77 364 hradio 15 1 0 3 empty empty empty 0 -8 0 10 -262144 -262144
-1 0;
#X obj 126 364 hradio 15 1 0 3 empty empty empty 0 -8 0 10 -262144
-262144 -1 0;
#X obj 176 364 hradio 15 1 0 3 empty empty empty 0 -8 0 10 -262144
-262144 -1 0;
#X obj 28 391 hradio 15 1 0 1 empty empty empty 0 -8 0 10 -262144 -262144
-1 0;
#X obj 58 391 hradio 15 1 0 1 empty empty empty 0 -8 0 10 -262144 -262144
-1 0;
#X obj 77 391 hradio 15 1 0 1 empty empty empty 0 -8 0 10 -262144 -262144
-1 0;
#X obj 107 391 hradio 15 1 0 1 empty empty empty 0 -8 0 10 -262144
-262144 -1 0;
#X obj 127 391 hradio 15 1 0 1 empty empty empty 0 -8 0 10 -262144
-262144 -1 0;
#X obj 157 391 hradio 15 1 0 1 empty empty empty 0 -8 0 10 -262144
-262144 -1 0;
#X obj 176 391 hradio 15 1 0 1 empty empty empty 0 -8 0 10 -262144
-262144 -1 0;
#X obj 206 391 hradio 15 1 0 1 empty empty empty 0 -8 0 10 -262144
-262144 -1 0;
#X obj 28 417 hradio 15 1 0 1 empty empty empty 0 -8 0 10 -262144 -262144
-1 0;
#X obj 78 417 hradio 15 1 0 1 empty empty empty 0 -8 0 10 -262144 -262144
-1 0;
#X obj 127 416 hradio 15 1 0 1 empty empty empty 0 -8 0 10 -262144
-262144 -1 0;
#X obj 177 416 hradio 15 1 0 1 empty empty empty 0 -8 0 10 -262144
-262144 -1 0;
#X text 26 334 it is 12/16 really:;
#X text 245 361 semiquavers;
#X text 246 388 quavers;
#X text 247 415 beats;
#X obj 27 91 iterate 16;
#X connect 0 0 1 0;
#X connect 1 0 33 0;
#X connect 3 0 12 0;
#X connect 3 1 8 0;
#X connect 3 1 10 0;
#X connect 4 0 2 1;
#X connect 5 0 9 0;
#X connect 5 1 4 0;
#X connect 7 0 6 0;
#X connect 8 0 4 1;
#X connect 9 0 2 0;
#X connect 10 0 9 1;
#X connect 12 0 5 0;
#X connect 33 0 3 0;
#X restore 122 100 pd sixquavers;
#X connect 0 0 1 0;
#X connect 0 0 2 0;
#X restore 263 24 pd tick-tables;
#X obj 412 331 counter;
#X obj 412 355 % 192;
#X obj 412 265 % 6;
#X floatatom 482 350 5 0 0 0 - - -, f 5;
#X floatatom 316 364 5 0 0 0 - - -, f 5;
#X obj 235 62 loadbang;
#X msg 236 88 1;
#X obj 309 98 r \$0-metro-on;
#X connect 1 0 4 0;
#X connect 4 0 2 0;
#X connect 5 0 1 0;
#X connect 7 0 8 0;
#X connect 7 1 9 0;
#X connect 8 0 6 0;
#X connect 9 0 6 0;
#X connect 10 0 6 0;
#X connect 11 0 10 0;
#X connect 11 0 13 0;
#X connect 12 0 11 1;
#X connect 13 0 14 0;
#X connect 14 0 15 0;
#X connect 15 0 23 0;
#X connect 16 0 17 0;
#X connect 17 0 21 0;
#X connect 18 0 19 0;
#X connect 19 1 12 0;
#X connect 21 0 22 0;
#X connect 22 0 0 0;
#X connect 23 0 16 0;
#X connect 26 0 27 0;
#X connect 28 0 11 0;
#X connect 28 0 7 0;
#X restore 145 229 pd globalticks;
#X floatatom 336 143 5 0 0 0 - - -, f 5;
#X obj 336 236 pack;
#X obj 373 205 t b f;
#X floatatom 232 117 5 0 0 0 - - -, f 5;
#X obj 336 259 s groove/BPM;
#X msg 232 62 120;
#X obj 232 41 loadbang;
#X text 103 97 Feedback;
#X text 167 97 DelayTime;
#X text 230 97 BPM;
#X obj 25 91 adc~ 1;
#X obj 25 115 s~ input1;
#X obj 292 41 r \$0-bpm;
#X obj 268 118 tgl 15 0 \$0-metro-on empty Play -3 -7 0 10 -4034 -1
-1 0 1;
#X connect 0 0 2 0;
#X connect 1 0 4 0;
#X connect 2 0 3 0;
#X connect 6 0 7 0;
#X connect 7 0 10 0;
#X connect 8 0 7 0;
#X connect 8 1 7 1;
#X connect 9 0 8 0;
#X connect 11 0 9 0;
#X connect 12 0 11 0;
#X connect 16 0 17 0;
#X connect 18 0 9 0;
#X coords 0 -1 1 1 190 35 1 100 100;
#X restore -525 -166 pd delset;
#X obj -332 -151 declare -path abstractions/;
#X obj -524 130 clip~ -0.5 0.5;
#X floatatom -484 97 5 0 0 0 - - -, f 5;
#N canvas 2439 292 654 585 pattern 0;
#X obj 101 69 moses 8;
#X obj 140 91 % 8;
#X obj 101 41 % 16;
#X obj 247 76 r \$0-update-grid;
#N canvas 299 387 450 300 mod 0;
#X msg 30 120 mod \$1;
#X obj 30 -16 inlet;
#X msg 91 196 mod \$1;
#X obj 163 109 % 8;
#X obj 30 147 outlet;
#X obj 91 216 outlet;
#X obj 30 32 moses 9;
#X obj 91 32 moses 8;
#X obj 130 68 sel 16;
#X msg 130 108 8;
#X msg 91 106 0;
#X obj 91 70 t b;
#X obj 49 94 8;
#X obj 49 68 t b;
#X connect 0 0 4 0;
#X connect 1 0 6 0;
#X connect 1 0 7 0;
#X connect 2 0 5 0;
#X connect 3 0 2 0;
#X connect 6 0 0 0;
#X connect 6 1 13 0;
#X connect 7 0 11 0;
#X connect 7 1 8 0;
#X connect 8 0 9 0;
#X connect 8 1 3 0;
#X connect 9 0 2 0;
#X connect 10 0 2 0;
#X connect 11 0 10 0;
#X connect 12 0 0 0;
#X connect 13 0 12 0;
#X restore 179 63 pd mod;
#X obj 179 41 r \$0-beat-speed-mod;
#X obj 101 364 s \$0-beat-pitch-seq;
#X obj 101 121 g_grid8x12 shit 0;
#X obj 196 121 g_grid8x12 shit 1;
#X obj 196 344 s \$0-beat-pitch-seq;
#X obj 297 121 table shit 32;
#X obj 298 170 s \$0-update-grid;
#X msg 298 143 update;
#X obj 101 384 r \$0-beat-pitch-seq;
#X obj 95 563 noteout;
#N canvas 65 97 650 686 ticks 0;
#X obj 16 179 outlet;
#X obj 73 179 outlet;
#X obj 243 180 outlet;
#X text 15 199 beats;
#X text 70 200 quavers;
#X text 240 200 s.quavers;
#X obj 318 181 outlet;
#X text 317 200 roll;
#N canvas 314 480 244 247 rollswitch 0;
#X obj 24 9 inlet;
#X obj 24 184 outlet;
#X obj 137 183 outlet;
#X obj 24 157 spigot;
#X obj 57 67 & 31;
#X obj 24 37 t f f;
#X msg 57 124 1;
#X text 24 -10 ticks;
#X text 23 205 ticks;
#X text 133 203 roll bang;
#X text 163 38 from settings;
#X obj 100 98 sel 30;
#X msg 100 124 0;
#X floatatom 100 156 5 0 0 0 - - -, f 5;
#X obj 57 99 sel 0;
#X obj 78 38 r \$0-rollmask;
#X obj 133 67 r \$0-rollselect;
#X connect 0 0 5 0;
#X connect 3 0 1 0;
#X connect 4 0 11 0;
#X connect 4 0 14 0;
#X connect 5 0 3 0;
#X connect 5 1 4 0;
#X connect 6 0 3 1;
#X connect 6 0 13 0;
#X connect 11 0 12 0;
#X connect 11 0 2 0;
#X connect 12 0 13 0;
#X connect 12 0 3 1;
#X connect 14 0 6 0;
#X connect 15 0 4 1;
#X connect 16 0 11 1;
#X restore 243 137 pd rollswitch;
#X obj 139 -43 r ticklength;
#X obj 126 -71 r slicycle\$1-tickdelay;
#X obj 16 32 pipe 0;
#X obj 139 -13 t b f;
#X obj 126 15 *;
#X floatatom 126 44 5 0 0 0 - - -, f 5;
#N canvas 65 110 179 265 tick-offset 0;
#X obj 30 23 inlet;
#X obj 30 231 outlet;
#X obj 77 49 >> 1;
#X obj 92 106 f \$1;
#X obj 92 134 - 1;
#X obj 92 79 loadbang;
#X floatatom 106 159 5 0 0 0 - - -, f 5;
#X obj 77 158 *;
#X obj 30 175 +;
#X obj 30 203 & 255;
#X obj 77 24 r \$0-rollcycle;
#X connect 0 0 8 0;
#X connect 2 0 7 0;
#X connect 3 0 4 0;
#X connect 4 0 6 0;
#X connect 4 0 7 1;
#X connect 5 0 3 0;
#X connect 7 0 8 1;
#X connect 8 0 9 0;
#X connect 9 0 1 0;
#X connect 10 0 2 0;
#X restore 16 -29 pd tick-offset;
#X floatatom 71 49 5 0 0 0 - - -, f 5;
#N canvas 0 50 180 280 is-even 0;
#X obj 34 38 inlet;
#X obj 34 118 sel 0;
#X obj 34 144 f;
#X obj 34 67 t f f;
#X obj 34 93 & 1;
#X obj 34 172 >> 1;
#X obj 34 212 outlet;
#X connect 0 0 3 0;
#X connect 1 0 2 0;
#X connect 2 0 5 0;
#X connect 3 0 4 0;
#X connect 3 1 2 1;
#X connect 4 0 1 0;
#X connect 5 0 6 0;
#X restore 16 90 pd is-even;
#N canvas 0 50 180 280 is-beat 0;
#X obj 34 38 inlet;
#X obj 34 118 sel 0;
#X obj 34 144 f;
#X obj 34 67 t f f;
#X obj 34 93 & 1;
#X obj 34 172 >> 1;
#X obj 34 212 outlet;
#X connect 0 0 3 0;
#X connect 1 0 2 0;
#X connect 2 0 5 0;
#X connect 3 0 4 0;
#X connect 3 1 2 1;
#X connect 4 0 1 0;
#X connect 5 0 6 0;
#X restore 16 123 pd is-beat;
#X floatatom 93 107 5 0 0 0 - - -, f 5;
#X floatatom 93 140 5 0 0 0 - - -, f 5;
#N canvas 912 455 375 310 internalClock 0;
#N canvas 617 219 442 492 generate-ticks 0;
#X obj 32 98 tgl 15 1 empty empty empty 17 7 0 10 -262144 -1 -1 0 1
;
#X obj 32 146 metro;
#N canvas 988 94 208 259 milliseconds 0;
#X obj 19 18 inlet;
#X obj 19 199 outlet;
#X obj 19 46 t b f;
#X obj 19 170 /;
#X msg 69 77 15000;
#X msg 113 77 20000;
#X obj 19 147 f 15000;
#X obj 69 103 t b f;
#X obj 69 43 sel 0 1;
#X text 19 225 1/16 or 1/12 note;
#X obj 69 17 r \$0-timesignature;
#X floatatom 96 135 5 0 0 0 - - -, f 5;
#X connect 0 0 2 0;
#X connect 2 0 6 0;
#X connect 2 1 3 1;
#X connect 3 0 1 0;
#X connect 4 0 7 0;
#X connect 5 0 7 0;
#X connect 6 0 3 0;
#X connect 7 0 6 0;
#X connect 7 1 11 0;
#X connect 7 1 6 1;
#X connect 8 0 4 0;
#X connect 8 1 5 0;
#X connect 10 0 8 0;
#X restore 59 107 pd milliseconds;
#X obj 32 193 +;
#X obj 32 416 outlet;
#X obj 32 170 f 1;
#N canvas 304 500 316 238 ticksort 0;
#X obj 27 60 t f f;
#X obj 27 27 inlet;
#X obj 27 117 pack;
#X text 25 6 ticks;
#X obj 27 88 & 3;
#X obj 27 143 route 0 1 2 3;
#X obj 27 175 outlet;
#X obj 73 175 outlet;
#X obj 122 175 outlet;
#X obj 170 175 outlet;
#X obj 242 175 outlet;
#X text 28 199 first;
#X text 72 199 second;
#X text 121 199 third;
#X text 168 199 fourth;
#X text 240 198 index;
#X connect 0 0 4 0;
#X connect 0 1 2 1;
#X connect 1 0 0 0;
#X connect 2 0 5 0;
#X connect 4 0 2 0;
#X connect 4 0 10 0;
#X connect 5 0 6 0;
#X connect 5 1 7 0;
#X connect 5 2 8 0;
#X connect 5 3 9 0;
#X restore 32 359 pd ticksort;
#N canvas 576 493 515 163 tickdelays 0;
#X obj 21 15 inlet;
#X obj 21 88 pipe;
#X obj 202 125 outlet;
#X obj 106 14 inlet;
#X obj 106 87 pipe;
#X obj 202 15 inlet;
#X obj 202 88 pipe;
#X obj 287 15 inlet;
#X obj 287 88 pipe;
#N canvas 698 484 303 226 sambagroove 0;
#X obj 32 7 r ticklength;
#X obj 181 28 sel 1;
#X msg 181 56 0;
#X obj 32 30 t b f;
#X obj 19 69 *;
#X obj 19 98 spigot;
#X obj 141 28 t b f;
#X obj 19 -17 r \$0-groove;
#X obj 141 -18 r \$0-groovetype;
#X obj 19 164 s \$0-tickdelay0;
#X obj 35 131 s \$0-tickdelay1;
#X obj 181 125 s \$0-tickdelay2;
#X obj 195 94 s \$0-tickdelay3;
#X connect 0 0 3 0;
#X connect 1 0 2 0;
#X connect 2 0 11 0;
#X connect 2 0 12 0;
#X connect 3 0 4 0;
#X connect 3 1 4 1;
#X connect 4 0 5 0;
#X connect 5 0 9 0;
#X connect 5 0 10 0;
#X connect 6 0 4 0;
#X connect 6 1 5 1;
#X connect 7 0 4 0;
#X connect 8 0 1 0;
#X connect 8 0 6 0;
#X restore 385 93 pd sambagroove;
#N canvas 823 242 346 186 tripletgroove 0;
#X obj 37 15 r ticklength;
#X msg 213 65 0;
#X obj 37 38 t b f;
#X obj 24 77 *;
#X obj 24 106 spigot;
#X obj 146 36 t b f;
#X obj 213 36 sel 0;
#X obj 173 65 == 0;
#X obj 24 -10 r \$0-groove;
#X obj 146 -10 r \$0-groovetype;
#X obj 24 153 s \$0-tickdelay1;
#X obj 44 131 s \$0-tickdelay3;
#X obj 213 134 s \$0-tickdelay0;
#X obj 225 101 s \$0-tickdelay2;
#X connect 0 0 2 0;
#X connect 1 0 12 0;
#X connect 1 0 13 0;
#X connect 2 0 3 0;
#X connect 2 1 3 1;
#X connect 3 0 4 0;
#X connect 4 0 10 0;
#X connect 4 0 11 0;
#X connect 5 0 3 0;
#X connect 5 1 7 0;
#X connect 6 0 1 0;
#X connect 7 0 4 1;
#X connect 8 0 3 0;
#X connect 9 0 5 0;
#X connect 9 0 6 0;
#X restore 386 21 pd tripletgroove;
#X floatatom 56 89 5 0 0 0 - - -, f 5;
#X floatatom 141 89 5 0 0 0 - - -, f 5;
#X floatatom 234 88 5 0 0 0 - - -, f 5;
#X floatatom 320 89 5 0 0 0 - - -, f 5;
#X obj 42 39 r \$0-tickdelay0;
#X obj 127 61 r \$0-tickdelay1;
#X obj 223 38 r \$0-tickdelay2;
#X obj 308 61 r \$0-tickdelay3;
#X connect 0 0 1 0;
#X connect 1 0 2 0;
#X connect 3 0 4 0;
#X connect 4 0 2 0;
#X connect 5 0 6 0;
#X connect 6 0 2 0;
#X connect 7 0 8 0;
#X connect 8 0 2 0;
#X connect 15 0 1 1;
#X connect 15 0 11 0;
#X connect 16 0 4 1;
#X connect 16 0 12 0;
#X connect 17 0 6 1;
#X connect 17 0 13 0;
#X connect 18 0 8 1;
#X connect 18 0 14 0;
#X restore 32 390 pd tickdelays;
#X obj 64 193 r \$0-set-one;
#X text 119 389 << groove;
#X obj 32 330 tabread \$0-commontime;
#X obj 264 225 symbol \$0-sixquavers;
#X msg 245 250 set \$1;
#X obj 245 202 symbol \$0-commontime;
#X obj 245 146 r \$0-timesignature;
#X obj 32 248 mod 192;
#X obj 59 15 inlet;
#X obj 245 175 sel 0 1;
#X text 68 41 if zero \, set metro off;
#X text 99 16 BPM;
#X obj 32 67 change;
#X obj 32 42 != 0;
#X msg 64 218 0;
#X obj 69 149 s \$0-ticklength;
#X floatatom 176 420 5 0 0 0 - - -, f 5;
#X msg 167 333 0;
#X obj 167 310 sel 191;
#X obj 228 23 r \$0-reset;
#X msg 228 66 1;
#X obj 228 42 t b b;
#X obj 32 272 t f f;
#X obj 167 289 spigot;
#X obj 143 192 r \$0-clockMode;
#X obj 143 239 sel 1 2 3;
#X msg 143 272 1;
#X msg 200 270 0;
#X obj 316 30 r \$0-clockMode;
#X msg 316 75 1;
#X obj 316 54 sel 3 1;
#X msg 351 76 0;
#X obj 229 293 r \$0-repeat-length;
#X connect 0 0 1 0;
#X connect 1 0 5 0;
#X connect 2 0 1 1;
#X connect 2 0 23 0;
#X connect 3 0 15 0;
#X connect 5 0 3 0;
#X connect 6 0 7 0;
#X connect 6 1 7 1;
#X connect 6 2 7 2;
#X connect 6 3 7 3;
#X connect 7 0 4 0;
#X connect 7 0 24 0;
#X connect 8 0 22 0;
#X connect 10 0 6 0;
#X connect 11 0 12 0;
#X connect 12 0 10 0;
#X connect 13 0 12 0;
#X connect 14 0 17 0;
#X connect 15 0 3 1;
#X connect 15 0 30 0;
#X connect 16 0 2 0;
#X connect 16 0 21 0;
#X connect 17 0 13 0;
#X connect 17 1 11 0;
#X connect 17 2 13 0;
#X connect 20 0 0 0;
#X connect 21 0 20 0;
#X connect 22 0 15 0;
#X connect 25 0 0 0;
#X connect 26 0 25 0;
#X connect 27 0 29 0;
#X connect 28 0 0 0;
#X connect 29 0 28 0;
#X connect 29 1 22 0;
#X connect 30 0 10 0;
#X connect 30 1 31 0;
#X connect 31 0 26 0;
#X connect 32 0 33 0;
#X connect 33 0 34 0;
#X connect 33 1 35 0;
#X connect 33 2 35 0;
#X connect 34 0 31 1;
#X connect 35 0 31 1;
#X connect 36 0 38 0;
#X connect 37 0 0 0;
#X connect 38 0 37 0;
#X connect 38 1 39 0;
#X connect 39 0 0 0;
#X connect 40 0 26 1;
#X restore 78 152 pd generate-ticks;
#N canvas 542 150 297 177 tick-tables 0;
#X obj 31 18 loadbang;
#N canvas 0 50 246 266 commontime 0;
#X obj 30 209 table \$0-commontime 256;
#X obj 31 175 tabwrite \$0-commontime;
#X obj 31 142 t f f;
#X obj 31 86 bng 15 250 50 0 empty empty empty 17 7 0 10 -262144 -1
-1;
#X obj 31 53 inlet;
#X obj 31 114 iterate 256;
#X connect 2 0 1 0;
#X connect 2 1 1 1;
#X connect 3 0 5 0;
#X connect 4 0 3 0;
#X connect 5 0 2 0;
#X restore 31 100 pd commontime;
#N canvas 748 50 413 471 sixquavers 0;
#X obj 27 38 inlet;
#X obj 27 66 bng 15 250 50 0 empty empty empty 17 7 0 10 -262144 -1
-1;
#X obj 27 272 tabwrite \$0-sixquavers;
#X obj 27 122 t b f;
#X obj 156 246 +;
#X obj 27 191 unpack;
#X obj 224 243 s \$0-sixquavers;
#X msg 224 215 arrayviewlistnew;
#X obj 171 221 * 12;
#X obj 27 245 +;
#X obj 42 220 * 16;
#X obj 224 272 table \$0-sixquavers 192;
#X msg 27 151 0 0 \, 1 1 \, 2 2 \, 4 3 \, 5 4 \, 6 5 \, 8 6 \, 9 7
\, 10 8 \, 12 9 \, 13 10 \, 14 11;
#X obj 27 364 hradio 15 1 0 3 empty empty empty 0 -8 0 10 -262144 -262144
-1 0;
#X obj 77 364 hradio 15 1 0 3 empty empty empty 0 -8 0 10 -262144 -262144
-1 0;
#X obj 126 364 hradio 15 1 0 3 empty empty empty 0 -8 0 10 -262144
-262144 -1 0;
#X obj 176 364 hradio 15 1 0 3 empty empty empty 0 -8 0 10 -262144
-262144 -1 0;
#X obj 28 391 hradio 15 1 0 1 empty empty empty 0 -8 0 10 -262144 -262144
-1 0;
#X obj 58 391 hradio 15 1 0 1 empty empty empty 0 -8 0 10 -262144 -262144
-1 0;
#X obj 77 391 hradio 15 1 0 1 empty empty empty 0 -8 0 10 -262144 -262144
-1 0;
#X obj 107 391 hradio 15 1 0 1 empty empty empty 0 -8 0 10 -262144
-262144 -1 0;
#X obj 127 391 hradio 15 1 0 1 empty empty empty 0 -8 0 10 -262144
-262144 -1 0;
#X obj 157 391 hradio 15 1 0 1 empty empty empty 0 -8 0 10 -262144
-262144 -1 0;
#X obj 176 391 hradio 15 1 0 1 empty empty empty 0 -8 0 10 -262144
-262144 -1 0;
#X obj 206 391 hradio 15 1 0 1 empty empty empty 0 -8 0 10 -262144
-262144 -1 0;
#X obj 28 417 hradio 15 1 0 1 empty empty empty 0 -8 0 10 -262144 -262144
-1 0;
#X obj 78 417 hradio 15 1 0 1 empty empty empty 0 -8 0 10 -262144 -262144
-1 0;
#X obj 127 416 hradio 15 1 0 1 empty empty empty 0 -8 0 10 -262144
-262144 -1 0;
#X obj 177 416 hradio 15 1 0 1 empty empty empty 0 -8 0 10 -262144
-262144 -1 0;
#X text 26 334 it is 12/16 really:;
#X text 245 361 semiquavers;
#X text 246 388 quavers;
#X text 247 415 beats;
#X obj 27 91 iterate 16;
#X connect 0 0 1 0;
#X connect 1 0 33 0;
#X connect 3 0 12 0;
#X connect 3 1 8 0;
#X connect 3 1 10 0;
#X connect 4 0 2 1;
#X connect 5 0 9 0;
#X connect 5 1 4 0;
#X connect 7 0 6 0;
#X connect 8 0 4 1;
#X connect 9 0 2 0;
#X connect 10 0 9 1;
#X connect 12 0 5 0;
#X connect 33 0 3 0;
#X restore 122 100 pd sixquavers;
#X connect 0 0 1 0;
#X connect 0 0 2 0;
#X restore 263 24 pd tick-tables;
#X obj 45 271 s \$0-groove;
#X obj 45 246 * 0.25;
#X obj 78 85 r \$0-BPM;
#X obj 78 221 s \$0-internal-clock;
#X connect 0 0 5 0;
#X connect 3 0 2 0;
#X connect 4 0 0 0;
#X restore 284 -70 pd internalClock;
#X obj 226 -43 r \$0-ticklength;
#X obj 16 -181 r globalticks;
#X floatatom 222 16 5 0 0 0 - - -, f 5;
#X connect 8 0 2 0;
#X connect 8 1 6 0;
#X connect 9 0 12 0;
#X connect 9 0 24 0;
#X connect 10 0 13 0;
#X connect 11 0 16 0;
#X connect 11 0 17 0;
#X connect 11 0 2 0;
#X connect 12 0 13 0;
#X connect 12 1 13 1;
#X connect 13 0 11 1;
#X connect 13 0 14 0;
#X connect 15 0 11 0;
#X connect 17 0 18 0;
#X connect 17 0 1 0;
#X connect 17 0 19 0;
#X connect 18 0 0 0;
#X connect 18 0 20 0;
#X connect 22 0 12 0;
#X connect 23 0 15 0;
#X restore 298 191 pd ticks;
#X text 107 100 Dark Energy Link;
#X floatatom 57 300 5 0 0 0 - - -, f 5;
#X obj 101 435 + 60;
#X obj 147 497 f;
#X obj 101 461 t f f b;
#X msg 147 520 \$1 0;
#X msg 95 517 \$1 100;
#X floatatom 224 413 5 0 0 0 - - -, f 5;
#X obj 101 410 - 12;
#X obj 228 442 print;
#X msg 196 527;
#X obj 252 102 bng 15 250 50 0 empty empty empty 17 7 0 10 -262144
-1 -1;
#X connect 0 0 7 0;
#X connect 0 1 1 0;
#X connect 1 0 8 0;
#X connect 2 0 0 0;
#X connect 3 0 7 0;
#X connect 3 0 8 0;
#X connect 4 0 7 0;
#X connect 4 1 8 0;
#X connect 5 0 4 0;
#X connect 5 0 2 1;
#X connect 7 0 17 0;
#X connect 7 0 6 0;
#X connect 8 0 9 0;
#X connect 12 0 11 0;
#X connect 13 0 23 0;
#X connect 13 0 24 0;
#X connect 13 0 25 0;
#X connect 15 2 2 0;
#X connect 18 0 20 0;
#X connect 19 0 21 0;
#X connect 20 0 19 1;
#X connect 20 1 22 0;
#X connect 20 2 19 0;
#X connect 21 0 14 0;
#X connect 22 0 14 0;
#X connect 24 0 18 0;
#X connect 27 0 19 0;
#X coords 0 -1 1 1 193 180 2 100 100;
#X restore 277 323 pd pattern;
#N canvas 65 53 1301 715 loopstation 0;
#X msg -226 411 rec \$1;
#X obj -226 379 tgl 15 0 empty empty empty 17 7 0 10 -262144 -1 -1
0 1;
#X msg -177 412 ovd \$1;
#X obj -177 381 tgl 15 0 empty empty empty 17 7 0 10 -262144 -1 -1
0 1;
#X msg -128 413 speed \$1;
#X msg 158 423 reset;
#X msg 213 423 report;
#X msg -23 422 juggle \$1;
#X msg 50 421 play \$1;
#X obj 50 374 tgl 15 0 empty empty empty 17 7 0 10 -262144 -1 -1 0
1;
#X msg 106 421 vol \$1;
#X floatatom 106 376 5 0 0 0 - - -, f 5;
#X obj -226 517 route pos0 pos1;
#X floatatom -226 546 5 0 0 0 - - -, f 5;
#X floatatom -180 548 5 0 0 0 - - -, f 5;
#X obj 158 333 loadbang;
#X obj -101 513 route length;
#X obj -101 559 u_mstobpm;
#X obj 106 175 hsl 128 20 -0 2 0 1 \$0-vol-loop0 empty empty -2 -8
0 10 -262144 -1 -1 5000 1;
#X floatatom 105 177 5 0 0 0 - - -, f 5;
#X obj 105 152 hsl 128 20 -2 2 0 1 \$0-speed-loop0 empty empty -2 -8
0 10 -262144 -1 -1 9525 1;
#X floatatom 109 154 5 0 0 0 - - -, f 5;
#X obj 102 123 tgl 25 0 \$0-rec-loop0 empty empty 17 7 0 10 -258113
-1 -1 0 1;
#X obj 132 123 tgl 25 0 \$0-ovd-loop0 empty empty 17 7 0 10 -257985
-1 -1 0 1;
#X obj 162 123 tgl 25 0 \$0-play-loop0 empty empty 17 7 0 10 -4034
-1 -1 0 1;
#X obj -177 331 r \$0-ovd-loop0;
#X obj -226 309 r \$0-rec-loop0;
#X obj -128 353 r \$0-speed-loop0;
#X obj 107 279 r \$0-vol-loop0;
#X obj -101 620 s \$0-bpm;
#X obj 192 123 tgl 25 0 \$0-juggler-loop0 empty empty 17 7 0 10 -159808
-1 -1 0 1;
#X obj 223 123 tgl 25 0 \$0-bpmsend-loop0 empty empty 17 7 0 10 -4032
-1 -1 0 1;
#X obj -39 565 r \$0-bpmsend-loop0;
#X obj -101 595 spigot;
#X obj 59 231 r \$0-play-loop0;
#X msg -122 263 buffer 0;
#X obj -289 474 Loopstation looper1;
#X obj 57 477 table looper1;
#X obj -289 279 catch~ looper;
#X obj 5 108 unpack f f f f;
#X obj 3 146 / 8;
#X floatatom 25 177 5 0 0 0 - - -, f 5;
#X obj 5 74 r looper-seq;
#X msg 286 152 1;
#X obj 333 120 loadbang;
#X obj -288 578 throw~ group6;
#X obj -250 613 throw~ group7;
#X connect 0 0 36 1;
#X connect 1 0 0 0;
#X connect 2 0 36 1;
#X connect 3 0 2 0;
#X connect 4 0 36 1;
#X connect 5 0 36 1;
#X connect 6 0 36 1;
#X connect 7 0 36 1;
#X connect 8 0 36 1;
#X connect 9 0 8 0;
#X connect 10 0 36 1;
#X connect 11 0 10 0;
#X connect 12 0 13 0;
#X connect 12 1 14 0;
#X connect 15 0 5 0;
#X connect 16 0 17 0;
#X connect 17 0 33 0;
#X connect 18 0 19 0;
#X connect 20 0 21 0;
#X connect 25 0 3 0;
#X connect 26 0 1 0;
#X connect 27 0 4 0;
#X connect 28 0 11 0;
#X connect 32 0 33 1;
#X connect 33 0 29 0;
#X connect 34 0 9 0;
#X connect 35 0 36 1;
#X connect 36 0 45 0;
#X connect 36 0 46 0;
#X connect 36 1 12 0;
#X connect 36 1 16 0;
#X connect 38 0 36 0;
#X connect 39 0 40 0;
#X connect 40 0 7 0;
#X connect 40 0 41 0;
#X connect 42 0 39 0;
#X connect 43 0 20 0;
#X connect 43 0 19 0;
#X connect 44 0 43 0;
#X coords 0 -1 1 1 160 100 1 100 100;
#X restore 425 -149 pd loopstation;
#X obj -523 107 *~ 1;
#X obj 199 237 WaveStepper;
#X obj -524 225 *~ 1;
#X obj -523 17 polysampler kicks/;
#N canvas 547 325 566 300 seqReceive 0;
#X obj 61 249 outlet;
#X obj 276 169 r sampler1-toggle-seq;
#X obj 276 230 outlet;
#X msg 276 202 loop \$1;
#X obj 61 71 r sampler1-seq;
#X obj 144 138 * 100;
#X obj 61 105 unpack f f f f;
#X obj 61 199 pack f f f;
#X msg 61 225 \$2 \$3 \$1;
#X connect 1 0 3 0;
#X connect 3 0 2 0;
#X connect 4 0 6 0;
#X connect 5 0 7 2;
#X connect 6 0 7 0;
#X connect 6 1 7 1;
#X connect 6 2 5 0;
#X connect 7 0 8 0;
#X connect 8 0 0 0;
#X restore -523 -22 pd seqReceive;
#X obj 47 11 polysampler bin;
#N canvas 90 314 450 300 control 0;
#X obj 22 68 unpack f f f f;
#X obj 22 145 s sampler1-timing;
#X obj 22 38 r control1-seq;
#X connect 0 0 1 0;
#X connect 2 0 0 0;
#X restore -523 -96 pd control;
#X obj 618 -167 declare -path ../loopstation/;
#N canvas 93 310 450 300 control 0;
#X obj 22 68 unpack f f f f;
#X obj 22 38 r control2-seq;
#X obj 22 145 s sampler2-timing;
#X connect 0 0 2 0;
#X connect 1 0 0 0;
#X restore 47 -82 pd control;
#N canvas 586 273 566 300 seqReceive 0;
#X obj 61 249 outlet;
#X obj 276 230 outlet;
#X msg 276 202 loop \$1;
#X obj 144 138 * 100;
#X obj 61 105 unpack f f f f;
#X obj 61 199 pack f f f;
#X msg 61 225 \$2 \$3 \$1;
#X obj 61 71 r sampler2-seq;
#X obj 276 169 r sampler2-toggle-seq;
#X connect 2 0 1 0;
#X connect 3 0 5 2;
#X connect 4 0 5 0;
#X connect 4 1 5 1;
#X connect 4 2 3 0;
#X connect 5 0 6 0;
#X connect 6 0 0 0;
#X connect 7 0 4 0;
#X connect 8 0 2 0;
#X restore 47 -37 pd seqReceive;
#N canvas 84 322 450 300 control 0;
#X obj 22 68 unpack f f f f;
#X obj 22 38 r control3-seq;
#X obj 22 145 s sampler3-timing;
#X connect 0 0 2 0;
#X connect 1 0 0 0;
#X restore -133 -73 pd control;
#N canvas 2494 394 566 300 seqReceive 0;
#X obj 61 249 outlet;
#X obj 276 230 outlet;
#X msg 276 202 loop \$1;
#X obj 144 138 * 100;
#X obj 61 105 unpack f f f f;
#X obj 61 199 pack f f f;
#X msg 61 225 \$2 \$3 \$1;
#X obj 61 71 r sampler3-seq;
#X obj 276 169 r sampler3-toggle-seq;
#X floatatom 44 161 5 0 0 0 - - -, f 5;
#X floatatom 110 162 5 0 0 0 - - -, f 5;
#X floatatom 192 119 5 0 0 0 - - -, f 5;
#X connect 2 0 1 0;
#X connect 3 0 5 2;
#X connect 4 0 5 0;
#X connect 4 0 9 0;
#X connect 4 1 5 1;
#X connect 4 1 10 0;
#X connect 4 2 3 0;
#X connect 4 2 11 0;
#X connect 5 0 6 0;
#X connect 6 0 0 0;
#X connect 7 0 4 0;
#X connect 8 0 2 0;
#X restore -133 -28 pd seqReceive;
#X obj -133 12 sampler cl_hihat;
#N canvas 1861 295 1301 683 LFO 0;
#X obj 13 8 4-LFO;
#X obj 270 8 4-LFO;
#X obj 13 343 4-LFO;
#X obj 270 343 4-LFO;
#X obj 602 36 vsl 13 60 0 1 0 0 empty empty empty 0 -9 0 10 -262144
-1 -1 0 1;
#X obj 617 36 vsl 13 60 0 1 0 0 empty empty empty 0 -9 0 10 -262144
-1 -1 0 1;
#X obj 632 36 vsl 13 60 0 1 0 0 empty empty empty 0 -9 0 10 -262144
-1 -1 0 1;
#X obj 647 36 vsl 13 60 0 1 0 0 empty empty empty 0 -9 0 10 -262144
-1 -1 0 1;
#X obj 606 218 *~;
#X obj 688 218 *~;
#X obj 771 219 *~;
#X obj 854 218 *~;
#X obj 621 255 +~;
#X obj 783 266 +~;
#X obj 621 283 +~;
#X obj 622 311 throw~ LFO-mix1;
#X obj 748 357 scope~ 130 130 256 3 128 -1 1 0 0 0 0 102 255 51 135
135 135 0;
#X obj 588 342 u_snapshot~;
#X obj 897 529 *~ 0.3;
#X obj 897 505 *~;
#X obj 992 486 osc~ 333;
#X obj 942 37 vsl 13 60 0 1 0 0 empty empty empty 0 -9 0 10 -262144
-1 -1 0 1;
#X obj 957 37 vsl 13 60 0 1 0 0 empty empty empty 0 -9 0 10 -262144
-1 -1 0 1;
#X obj 972 37 vsl 13 60 0 1 0 0 empty empty empty 0 -9 0 10 -262144
-1 -1 0 1;
#X obj 987 37 vsl 13 60 0 1 0 0 empty empty empty 0 -9 0 10 -262144
-1 -1 0 1;
#X obj 946 219 *~;
#X obj 1028 219 *~;
#X obj 1111 220 *~;
#X obj 1194 219 *~;
#X obj 961 256 *~;
#X obj 1123 267 *~;
#X obj 962 312 throw~ LFO-mix2;
#X obj 968 408 *~ 300;
#X obj 985 455 +~ 333;
#X obj 15 265 send~ LFO1;
#X obj 271 265 send~ LFO2;
#X obj 12 597 send~ LFO3;
#X obj 271 598 send~ LFO4;
#X obj 560 187 receive~ LFO1;
#X obj 848 152 receive~ LFO4;
#X obj 922 191 receive~ LFO1;
#X obj 1225 184 receive~ LFO4;
#X obj 1020 185 receive~ LFO2;
#X obj 1127 185 receive~ LFO3;
#X obj 664 186 receive~ LFO2;
#X obj 753 129 receive~ LFO3;
#X floatatom 1026 382 5 0 0 0 - - -, f 5;
#X obj 917 357;
#X obj 1132 326 scope~ 130 130 256 3 128 -1 1 0 0 0 0 102 255 51 135
135 135 0;
#X floatatom 1040 437 5 0 0 0 - - -, f 5;
#X obj 961 284 +~;
#X obj 13 -16 catch~ LFO1-FM;
#X obj 271 -20 catch~ LFO2-FM;
#X obj 12 301 catch~ LFO3-FM;
#X obj 271 307 catch~ LFO4-FM;
#N canvas 1912 304 722 548 FM 0;
#X obj 13 17 hsl 30 10 0 6000 0 0 empty empty empty -2 -8 0 10 -262144
-1 -1 0 1;
#X obj 194 90 *~;
#X obj 224 90 *~;
#X obj 254 90 *~;
#X obj 284 90 *~;
#X obj 194 111 *~;
#X obj 224 111 *~;
#X obj 254 111 *~;
#X obj 284 111 *~;
#X obj 194 133 *~;
#X obj 224 133 *~;
#X obj 254 133 *~;
#X obj 284 133 *~;
#X obj 194 154 *~;
#X obj 224 154 *~;
#X obj 254 154 *~;
#X obj 284 154 *~;
#X obj 40 220 throw~ LFO1-FM;
#X obj 40 258 throw~ LFO3-FM;
#X obj 40 239 throw~ LFO2-FM;
#X obj 40 277 throw~ LFO4-FM;
#X obj 150 220 throw~ LFO1-FM;
#X obj 150 258 throw~ LFO3-FM;
#X obj 150 239 throw~ LFO2-FM;
#X obj 150 277 throw~ LFO4-FM;
#X obj 257 220 throw~ LFO1-FM;
#X obj 257 258 throw~ LFO3-FM;
#X obj 257 239 throw~ LFO2-FM;
#X obj 257 277 throw~ LFO4-FM;
#X obj 362 220 throw~ LFO1-FM;
#X obj 362 258 throw~ LFO3-FM;
#X obj 362 239 throw~ LFO2-FM;
#X obj 362 277 throw~ LFO4-FM;
#X obj 13 30 hsl 30 10 0 100 0 0 empty empty empty -2 -8 0 10 -262144
-1 -1 0 1;
#X obj 13 43 hsl 30 10 0 6000 0 0 empty empty empty -2 -8 0 10 -262144
-1 -1 0 1;
#X obj 13 55 hsl 30 10 0 6000 0 0 empty empty empty -2 -8 0 10 -262144
-1 -1 0 1;
#X obj 51 17 hsl 30 10 0 30 0 0 empty empty empty -2 -8 0 10 -262144
-1 -1 0 1;
#X obj 51 30 hsl 30 10 0 6000 0 0 empty empty empty -2 -8 0 10 -262144
-1 -1 0 1;
#X obj 51 43 hsl 30 10 0 1 0 0 empty empty empty -2 -8 0 10 -262144
-1 -1 0 1;
#X obj 51 55 hsl 30 10 0 6000 0 0 empty empty empty -2 -8 0 10 -262144
-1 -1 0 1;
#X obj 91 17 hsl 30 10 0 6000 0 0 empty empty empty -2 -8 0 10 -262144
-1 -1 0 1;
#X obj 91 30 hsl 30 10 0 6000 0 0 empty empty empty -2 -8 0 10 -262144
-1 -1 0 1;
#X obj 91 43 hsl 30 10 0 6000 0 0 empty empty empty -2 -8 0 10 -262144
-1 -1 0 1;
#X obj 91 55 hsl 30 10 0 6000 0 0 empty empty empty -2 -8 0 10 -262144
-1 -1 0 1;
#X obj 131 17 hsl 30 10 0 6000 0 0 empty empty empty -2 -8 0 10 -262144
-1 -1 0 1;
#X obj 131 30 hsl 30 10 0 6000 0 0 empty empty empty -2 -8 0 10 -262144
-1 -1 0 1;
#X obj 131 43 hsl 30 10 0 6000 0 0 empty empty empty -2 -8 0 10 -262144
-1 -1 0 1;
#X obj 131 55 hsl 30 10 0 6000 0 0 empty empty empty -2 -8 0 10 -262144
-1 -1 0 1;
#X obj 12 77 receive~ LFO1;
#X obj 27 96 receive~ LFO2;
#X obj 27 118 receive~ LFO3;
#X obj 32 141 receive~ LFO4;
#X obj 252 -13 receive~ LFO1;
#X obj 267 6 receive~ LFO2;
#X obj 267 28 receive~ LFO3;
#X obj 272 51 receive~ LFO4;
#X obj 366 -15 receive~ LFO1;
#X obj 381 4 receive~ LFO2;
#X obj 381 26 receive~ LFO3;
#X obj 386 49 receive~ LFO4;
#X obj 483 -15 receive~ LFO1;
#X obj 498 4 receive~ LFO2;
#X obj 498 26 receive~ LFO3;
#X obj 503 49 receive~ LFO4;
#X connect 1 0 17 0;
#X connect 2 0 21 0;
#X connect 3 0 25 0;
#X connect 4 0 29 0;
#X connect 5 0 19 0;
#X connect 6 0 23 0;
#X connect 7 0 27 0;
#X connect 8 0 31 0;
#X connect 9 0 18 0;
#X connect 10 0 22 0;
#X connect 11 0 26 0;
#X connect 12 0 30 0;
#X connect 13 0 20 0;
#X connect 14 0 24 0;
#X connect 15 0 28 0;
#X connect 16 0 32 0;
#X connect 33 0 5 1;
#X connect 34 0 9 1;
#X connect 35 0 13 1;
#X connect 36 0 2 1;
#X connect 38 0 10 1;
#X connect 39 0 14 1;
#X connect 40 0 3 1;
#X connect 41 0 7 1;
#X connect 43 0 15 1;
#X connect 44 0 4 1;
#X connect 45 0 8 1;
#X connect 46 0 12 1;
#X connect 48 0 1 0;
#X connect 49 0 5 0;
#X connect 50 0 9 0;
#X connect 51 0 13 0;
#X connect 52 0 2 0;
#X connect 53 0 6 0;
#X connect 54 0 10 0;
#X connect 55 0 14 0;
#X connect 56 0 3 0;
#X connect 57 0 7 0;
#X connect 58 0 11 0;
#X connect 59 0 15 0;
#X connect 60 0 4 0;
#X connect 61 0 8 0;
#X connect 62 0 12 0;
#X connect 63 0 16 0;
#X restore 743 578 pd FM;
#X obj 974 533 *~;
#X obj 1022 521 *~ 0.1;
#X connect 0 0 34 0;
#X connect 1 0 35 0;
#X connect 2 0 36 0;
#X connect 3 0 37 0;
#X connect 4 0 8 1;
#X connect 5 0 9 1;
#X connect 6 0 10 1;
#X connect 7 0 11 1;
#X connect 8 0 12 0;
#X connect 9 0 12 1;
#X connect 10 0 13 0;
#X connect 11 0 13 1;
#X connect 12 0 14 0;
#X connect 13 0 14 1;
#X connect 14 0 15 0;
#X connect 14 0 16 0;
#X connect 14 0 19 1;
#X connect 14 0 57 0;
#X connect 19 0 18 0;
#X connect 19 0 56 1;
#X connect 20 0 19 0;
#X connect 21 0 25 1;
#X connect 22 0 26 1;
#X connect 23 0 27 1;
#X connect 24 0 28 1;
#X connect 25 0 29 0;
#X connect 26 0 29 1;
#X connect 27 0 30 0;
#X connect 28 0 30 1;
#X connect 29 0 50 0;
#X connect 30 0 50 1;
#X connect 32 0 33 0;
#X connect 33 0 20 0;
#X connect 38 0 8 0;
#X connect 39 0 11 0;
#X connect 40 0 25 0;
#X connect 41 0 28 0;
#X connect 42 0 26 0;
#X connect 43 0 27 0;
#X connect 44 0 9 0;
#X connect 45 0 10 0;
#X connect 46 0 32 1;
#X connect 49 0 33 1;
#X connect 50 0 31 0;
#X connect 50 0 32 0;
#X connect 50 0 48 0;
#X connect 51 0 0 0;
#X connect 52 0 1 0;
#X connect 53 0 2 0;
#X connect 54 0 3 0;
#X connect 57 0 56 0;
#X restore 523 238 pd LFO;
#X obj -525 259 throw~ group1;
#N canvas 1625 462 1339 441 groups 0;
#X obj 77 238 catch~ group1;
#X obj 76 363 *~ 1;
#X obj 101 337 r \$0-main-vol;
#X obj 77 389 dac~ 1;
#X obj 217 363 *~ 1;
#X obj 242 337 r \$0-main-vol;
#X obj 217 238 catch~ group2;
#X obj 77 317 *~ 1;
#X obj 218 317 *~ 1;
#X obj 352 363 *~ 1;
#X obj 377 337 r \$0-main-vol;
#X obj 353 317 *~ 1;
#X obj 352 238 catch~ group3;
#X obj 482 363 *~ 1;
#X obj 507 337 r \$0-main-vol;
#X obj 483 317 *~ 1;
#X obj 482 238 catch~ group4;
#X obj 623 365 *~ 1;
#X obj 648 339 r \$0-main-vol;
#X obj 624 319 *~ 1;
#X obj 623 240 catch~ group5;
#X obj 755 367 *~ 1;
#X obj 780 341 r \$0-main-vol;
#X obj 756 321 *~ 1;
#X obj 896 369 *~ 1;
#X obj 921 343 r \$0-main-vol;
#X obj 897 323 *~ 1;
#X obj 755 242 catch~ group6;
#X obj 896 244 catch~ group7;
#X obj 1029 369 *~ 1;
#X obj 1054 343 r \$0-main-vol;
#X obj 1030 323 *~ 1;
#X obj 1029 244 catch~ group8;
#X obj 101 117 vsl 10 70 0 127 0 0 \$0-group1-vol \$0-group1-vol empty
0 -9 0 10 -262144 -1 -1 6900 1;
#X obj 111 117 vsl 10 70 0 127 0 0 \$0-group2-vol \$0-group2-vol empty
0 -9 0 10 -262144 -1 -1 6900 1;
#X obj 121 117 vsl 10 70 0 127 0 0 \$0-group3-vol \$0-group3-vol empty
0 -9 0 10 -262144 -1 -1 6900 1;
#X obj 131 117 vsl 10 70 0 127 0 0 \$0-group4-vol \$0-group4-vol empty
0 -9 0 10 -262144 -1 -1 6900 1;
#X obj 141 117 vsl 10 70 0 127 0 0 \$0-group5-vol \$0-group5-vol empty
0 -9 0 10 -262144 -1 -1 6900 1;
#X obj 151 117 vsl 10 70 0 127 0 0 \$0-group6-vol \$0-group6-vol empty
0 -9 0 10 -262144 -1 -1 6900 1;
#X obj 161 117 vsl 10 70 0 127 0 0 \$0-group7-vol \$0-group7-vol empty
0 -9 0 10 -262144 -1 -1 6900 1;
#X obj 171 117 vsl 10 70 0 127 0 0 \$0-group8-vol \$0-group8-vol empty
0 -9 0 10 -262144 -1 -1 6900 1;
#X obj 190 117 vsl 10 70 0 1 0 0 \$0-main-vol \$0-main-vol empty 0
-9 0 10 -4034 -1 -1 6900 1;
#N canvas 2067 497 450 300 init 0;
#X obj 92 82 u_iterate 8;
#X obj 92 39 loadbang;
#X obj 92 139 t b f;
#X obj 124 161 pack f \$0;
#X obj 92 214 s;
#X msg 124 182 symbol \$2-group\$1-vol;
#X msg 84 173 127;
#X obj 172 41 \$0;
#X obj 92 112 + 1;
#X msg 239 34 \; \$1-main-vol 1;
#X connect 0 0 8 0;
#X connect 1 0 0 0;
#X connect 1 0 7 0;
#X connect 2 0 6 0;
#X connect 2 1 3 0;
#X connect 3 0 5 0;
#X connect 5 0 4 1;
#X connect 6 0 4 0;
#X connect 7 0 9 0;
#X connect 8 0 2 0;
#X restore 280 110 pd init;
#X obj 95 295 / 127;
#X obj 243 174 r \$0-group2-vol;
#X obj 377 176 r \$0-group3-vol;
#X obj 507 176 r \$0-group4-vol;
#X obj 648 178 r \$0-group5-vol;
#X obj 780 180 r \$0-group6-vol;
#X obj 921 182 r \$0-group7-vol;
#X obj 235 294 / 127;
#X obj 367 296 / 127;
#X obj 497 296 / 127;
#X obj 638 298 / 127;
#X obj 770 300 / 127;
#X obj 911 302 / 127;
#X obj 1044 302 / 127;
#X obj 110 201 r \$0-group1-vol;
#X obj 1054 182 r \$0-group8-vol;
#X obj 218 389 dac~ 2;
#X obj 353 389 dac~ 3;
#X obj 483 389 dac~ 4;
#X obj 624 391 dac~ 5;
#X obj 756 393 dac~ 6;
#X obj 897 395 dac~ 7;
#X obj 1030 395 dac~ 8;
#X obj 77 267 hip~;
#X obj 217 267 hip~;
#X obj 353 270 hip~;
#X obj 482 270 hip~;
#X obj 623 270 hip~;
#X obj 896 272 hip~;
#X obj 1030 274 hip~;
#X obj 755 276 hip~;
#X floatatom 205 118 5 0 0 0 - - #0-lowcut, f 5;
#X obj 335 110 r \$0-lowcut;
#X connect 0 0 66 0;
#X connect 1 0 3 0;
#X connect 2 0 1 1;
#X connect 4 0 59 0;
#X connect 5 0 4 1;
#X connect 6 0 67 0;
#X connect 7 0 1 0;
#X connect 8 0 4 0;
#X connect 9 0 60 0;
#X connect 10 0 9 1;
#X connect 11 0 9 0;
#X connect 12 0 68 0;
#X connect 13 0 61 0;
#X connect 14 0 13 1;
#X connect 15 0 13 0;
#X connect 16 0 69 0;
#X connect 17 0 62 0;
#X connect 18 0 17 1;
#X connect 19 0 17 0;
#X connect 20 0 70 0;
#X connect 21 0 63 0;
#X connect 22 0 21 1;
#X connect 23 0 21 0;
#X connect 24 0 64 0;
#X connect 25 0 24 1;
#X connect 26 0 24 0;
#X connect 27 0 73 0;
#X connect 28 0 71 0;
#X connect 29 0 65 0;
#X connect 30 0 29 1;
#X connect 31 0 29 0;
#X connect 32 0 72 0;
#X connect 43 0 7 1;
#X connect 44 0 50 0;
#X connect 45 0 51 0;
#X connect 46 0 52 0;
#X connect 47 0 53 0;
#X connect 48 0 54 0;
#X connect 49 0 55 0;
#X connect 50 0 8 1;
#X connect 51 0 11 1;
#X connect 52 0 15 1;
#X connect 53 0 19 1;
#X connect 54 0 23 1;
#X connect 55 0 26 1;
#X connect 56 0 31 1;
#X connect 57 0 43 0;
#X connect 58 0 56 0;
#X connect 66 0 7 0;
#X connect 67 0 8 0;
#X connect 68 0 11 0;
#X connect 69 0 15 0;
#X connect 70 0 19 0;
#X connect 71 0 26 0;
#X connect 72 0 31 0;
#X connect 73 0 23 0;
#X connect 75 0 66 1;
#X connect 75 0 67 1;
#X connect 75 0 68 1;
#X connect 75 0 69 1;
#X connect 75 0 70 1;
#X connect 75 0 73 1;
#X connect 75 0 71 1;
#X connect 75 0 72 1;
#X coords 0 -1 1 1 145 90 1 100 100;
#X restore -169 393 pd groups;
#X obj -397 398 forceFeed;
#X obj -484 203 throw~ forceFeed;
#X obj -485 180 *~;
#X obj -398 355 catch~ forceFeed;
#X obj -304 377 r forceFeed-ctl;
#X obj 273 292 s forceFeed-ctl;
#X text 637 -128 DarkEnergy NoteOff Befehl;
#N canvas 1977 374 777 443 input 0;
#X obj 146 77 adc~ 2;
#X obj 88 79 adc~ 1;
#X obj 500 126 *~;
#X obj 402 126 *~;
#X obj 102 113 hradio 13 1 0 4 routeInput1 empty empty 0 -8 0 10 -4034
-1 -1 3;
#X obj 160 113 hradio 13 1 0 4 routeInput2 empty empty 0 -8 0 10 -4034
-1 -1 0;
#X obj 293 357 throw~ looper;
#X obj 484 361 throw~ grainslicer;
#X obj 94 313 *~;
#X obj 124 313 *~;
#X obj 111 216 r routeInput1;
#X obj 181 240 r routeInput2;
#X obj 114 238 sel 1;
#X msg 113 266 1;
#X msg 148 267 0, f 2;
#X obj 181 259 sel 1;
#X msg 180 287 1;
#X msg 215 288 0, f 2;
#X obj 93 160 adc~ 1;
#X obj 102 184 adc~ 2;
#X obj 294 323 *~;
#X obj 324 323 *~;
#X obj 311 226 r routeInput1;
#X obj 381 250 r routeInput2;
#X msg 313 276 1;
#X msg 348 277 0, f 2;
#X msg 380 297 1;
#X msg 415 298 0, f 2;
#X obj 302 194 adc~ 2;
#X obj 484 333 *~;
#X obj 514 333 *~;
#X obj 501 236 r routeInput1;
#X obj 571 260 r routeInput2;
#X msg 503 286 1;
#X msg 538 287 0, f 2;
#X msg 570 307 1;
#X msg 605 308 0, f 2;
#X obj 483 180 adc~ 1;
#X obj 492 204 adc~ 2;
#X obj 293 170 adc~ 1;
#X obj 314 248 sel 2;
#X obj 381 269 sel 2;
#X obj 504 258 sel 3;
#X obj 571 279 sel 3;
#X obj 105 129 hsl 47 15 0 1 0 0 empty empty empty -2 -8 0 10 -262144
-1 -1 0 1;
#X obj 163 128 hsl 47 15 0 1 0 0 empty empty empty -2 -8 0 10 -262144
-1 -1 0 1;
#X obj 93 357 send~ slicer1;
#X obj 500 154 throw~ group4;
#X obj 402 154 throw~ group4;
#X connect 0 0 2 0;
#X connect 1 0 3 0;
#X connect 2 0 47 0;
#X connect 3 0 48 0;
#X connect 8 0 46 0;
#X connect 9 0 46 0;
#X connect 10 0 12 0;
#X connect 11 0 15 0;
#X connect 12 0 13 0;
#X connect 12 1 14 0;
#X connect 13 0 8 1;
#X connect 14 0 8 1;
#X connect 15 0 16 0;
#X connect 15 1 17 0;
#X connect 16 0 9 1;
#X connect 17 0 9 1;
#X connect 18 0 8 0;
#X connect 19 0 9 0;
#X connect 20 0 6 0;
#X connect 21 0 6 0;
#X connect 22 0 40 0;
#X connect 23 0 41 0;
#X connect 24 0 20 1;
#X connect 25 0 20 1;
#X connect 26 0 21 1;
#X connect 27 0 21 1;
#X connect 28 0 21 0;
#X connect 29 0 7 0;
#X connect 30 0 7 0;
#X connect 31 0 42 0;
#X connect 32 0 43 0;
#X connect 33 0 29 1;
#X connect 34 0 29 1;
#X connect 35 0 30 1;
#X connect 36 0 30 1;
#X connect 37 0 29 0;
#X connect 38 0 30 0;
#X connect 39 0 20 0;
#X connect 40 0 24 0;
#X connect 40 1 25 0;
#X connect 41 0 26 0;
#X connect 41 1 27 0;
#X connect 42 0 33 0;
#X connect 42 1 34 0;
#X connect 43 0 35 0;
#X connect 43 1 36 0;
#X connect 44 0 3 1;
#X connect 45 0 2 1;
#X coords 0 -1 1 1 115 47 1 100 100;
#X restore 173 -156 pd input;
#X obj -344 12 sampler perc;
#N canvas 87 318 450 300 control 0;
#X obj 22 68 unpack f f f f;
#X obj 22 38 r control4-seq;
#X obj 22 145 s sampler4-timing;
#X connect 0 0 2 0;
#X connect 1 0 0 0;
#X restore -344 -76 pd control;
#N canvas 725 278 566 300 seqReceive 0;
#X obj 61 249 outlet;
#X obj 276 230 outlet;
#X msg 276 202 loop \$1;
#X obj 144 138 * 100;
#X obj 61 105 unpack f f f f;
#X obj 61 199 pack f f f;
#X msg 61 225 \$2 \$3 \$1;
#X obj 61 71 r sampler4-seq;
#X obj 276 169 r sampler4-toggle-seq;
#X connect 2 0 1 0;
#X connect 3 0 5 2;
#X connect 4 0 5 0;
#X connect 4 1 5 1;
#X connect 4 2 3 0;
#X connect 5 0 6 0;
#X connect 6 0 0 0;
#X connect 7 0 4 0;
#X connect 8 0 2 0;
#X restore -344 -36 pd seqReceive;
#X text 638 -101 Midi-Controller Setup;
#N canvas 2455 378 702 342 grainSlicer 0;
#N canvas 1811 251 1140 687 rec 0;
#X obj 104 400 tabwrite~ \$0-rec;
#X obj 813 25 table \$0-rec;
#X msg 768 134 \; \$2-rec resize \$1 \;;
#X obj 768 -6 loadbang;
#X obj 768 19 t b b;
#X obj 795 57 samplerate~;
#X obj 768 85 *;
#X msg 768 57 60;
#X obj 768 110 pack f \$0;
#X obj 125 198 bang~;
#X obj 125 278 * 64;
#X obj 172 245 + 1;
#X obj 125 251 f;
#X obj 125 222 spigot;
#X msg 177 95 stop;
#X msg 161 198 1;
#X obj 110 316 f;
#X obj 110 361 tabwrite \$0-cuepoints;
#X obj 223 171 f;
#X obj 259 170 + 1;
#X msg 248 41 reset;
#X obj 248 79 sel reset;
#X obj 248 61 symbol;
#X msg 248 125 0;
#X obj 233 337 f;
#X obj 261 337 + 1;
#X obj 110 336 t f b;
#X obj 104 140 t a b;
#X obj 104 168 t a b b;
#X msg 104 115 start \$1;
#X text 276 195 SliceCount;
#X msg 177 171 0;
#X obj 154 312 v cue;
#X obj 104 87 v cue;
#X obj 104 60 bng 15 250 50 0 empty empty empty 17 7 0 10 -262144 -1
-1;
#X obj 50 176 print;
#X obj 177 119 t b b a;
#X msg 264 236 \; \$1-cuepoints const 0 \;;
#X msg 273 281 \; \$1-rec const 0 \;;
#X obj 333 142 \$0;
#X obj 823 -6 table \$0-cuepoints 100;
#X obj 259 208 s \$0-sliceCount;
#X obj 104 35 sel 1 0;
#X obj 248 12 r purge;
#X msg 712 62 \; cue 0 \;;
#X floatatom 457 184 5 2 20 0 - - -, f 5;
#X text 501 184 number of buttons;
#X obj 104 13 r \$0-rec;
#X obj 457 221 pack f \$0;
#X msg 457 245 \; \$2-slices_rcv number \$1;
#X obj 472 129 loadbang;
#X msg 571 100 0;
#X obj 29 227 inlet~;
#X connect 3 0 4 0;
#X connect 4 0 7 0;
#X connect 4 0 44 0;
#X connect 4 1 5 0;
#X connect 5 0 6 1;
#X connect 6 0 8 0;
#X connect 7 0 6 0;
#X connect 8 0 2 0;
#X connect 9 0 13 0;
#X connect 10 0 16 1;
#X connect 10 0 32 0;
#X connect 11 0 12 1;
#X connect 12 0 11 0;
#X connect 12 0 10 0;
#X connect 13 0 12 0;
#X connect 14 0 36 0;
#X connect 15 0 13 1;
#X connect 16 0 26 0;
#X connect 18 0 19 0;
#X connect 19 0 41 0;
#X connect 19 0 45 0;
#X connect 19 0 18 1;
#X connect 20 0 22 0;
#X connect 21 0 23 0;
#X connect 21 0 39 0;
#X connect 22 0 21 0;
#X connect 23 0 18 1;
#X connect 23 0 12 1;
#X connect 23 0 32 0;
#X connect 23 0 24 1;
#X connect 23 0 16 1;
#X connect 24 0 17 1;
#X connect 24 0 25 0;
#X connect 25 0 24 1;
#X connect 26 0 17 0;
#X connect 26 1 24 0;
#X connect 27 0 28 0;
#X connect 27 1 18 0;
#X connect 28 0 0 0;
#X connect 28 1 15 0;
#X connect 28 2 16 0;
#X connect 29 0 27 0;
#X connect 29 0 35 0;
#X connect 31 0 13 1;
#X connect 33 0 29 0;
#X connect 34 0 33 0;
#X connect 36 0 16 0;
#X connect 36 1 31 0;
#X connect 36 2 0 0;
#X connect 39 0 37 0;
#X connect 39 0 38 0;
#X connect 42 0 34 0;
#X connect 42 1 14 0;
#X connect 43 0 20 0;
#X connect 45 0 48 0;
#X connect 47 0 42 0;
#X connect 48 0 49 0;
#X connect 50 0 51 0;
#X connect 51 0 45 0;
#X connect 52 0 0 0;
#X restore 15 132 pd rec;
#X obj -40 317 s gran1-grain-length;
#X obj -41 294 s gran1-play-speed;
#X obj 96 344 s gran1-grain-pitch;
#X obj 408 134 gran~ gran1 \$0;
#X obj 104 133 tgl 30 0 empty empty empty 17 7 0 10 -258113 -1 -1 0
1;
#X obj 39 203 s \$0-rec;
#X obj 258 133 vradio 15 1 0 4 gran2-slices_snd \$0-slices_rcv empty
0 -8 0 10 -262144 -1 -1 3;
#X obj 242 133 vradio 15 1 0 4 gran1-slices_snd \$0-slices_rcv empty
0 -8 0 10 -262144 -1 -1 3;
#X obj 104 166 tgl 30 0 gran1-metro gran1-metro empty 17 7 0 10 -4034
-1 -1 1 1;
#X obj 140 133 bng 30 250 50 0 empty empty empty 17 7 0 10 -257985
-1 -1;
#X obj 9 184 s purge;
#X obj 108 197 hsl 60 12 0 800 0 0 empty empty empty -2 -8 0 10 -262144
-1 -1 3500 1;
#X obj 108 215 hsl 60 12 -1 1 0 0 empty empty empty -2 -8 0 10 -262144
-1 -1 2400 1;
#X floatatom 106 231 5 0 0 0 - - -, f 5;
#X obj 523 136 gran~ gran2 \$0;
#X obj 14 102 catch~ grainslicer;
#X obj 187 162 tgl 30 0 gran2-metro gran2-metro empty 17 7 0 10 -4034
-1 -1 0 1;
#X obj 193 215 hsl 60 12 0 800 0 0 empty empty empty -2 -8 0 10 -262144
-1 -1 0 1;
#X obj 192 198 hsl 60 12 -1 1 0 0 empty empty empty -2 -8 0 10 -262144
-1 -1 0 1;
#X floatatom 187 231 5 0 0 0 - - -, f 5;
#X obj 189 286 s gran2-play-speed;
#X obj 190 309 s gran2-grain-length;
#X obj 327 336 s gran2-grain-pitch;
#X obj 314 182 s maxSlice;
#X floatatom 202 122 5 0 0 0 - - -, f 5;
#X obj 409 204 throw~ group6;
#X obj 514 206 throw~ group7;
#X connect 4 0 26 0;
#X connect 4 0 27 0;
#X connect 5 0 6 0;
#X connect 10 0 11 0;
#X connect 12 0 1 0;
#X connect 13 0 2 0;
#X connect 14 0 3 0;
#X connect 15 0 26 0;
#X connect 15 0 27 0;
#X connect 16 0 0 0;
#X connect 18 0 22 0;
#X connect 19 0 21 0;
#X connect 20 0 23 0;
#X connect 25 0 24 0;
#X coords 0 -1 1 1 200 150 1 100 100;
#X restore 426 -44 pd grainSlicer;
#X obj 99 452 r~ slicycle1-outright;
#X obj 41 476 r~ slicycle1-outleft;
#X obj 47 275 SJ2slicycle 1;
#X obj -229 133 throw~ forceFeed;
#X obj -229 110 *~;
#X text 638 -86 Test mit kleinerem Bildschirm;
#X text 637 -114 GUI Clean Up;
#N canvas 2426 574 629 428 seqSel 0;
#X obj 105 114 hradio 12 1 0 3 empty empty empty 0 -8 0 10 -4032 -1
-1 2;
#X obj 179 0 r sampler1-seq;
#X obj 262 119 * 100;
#X obj 179 86 unpack f f f f;
#X obj 293 0 r sampler4-seq;
#X obj 179 58 spigot;
#X obj 293 53 spigot;
#X obj 102 156 sel 1;
#X msg 85 181 1;
#X msg 129 190 0;
#X msg 84 244 1;
#X msg 128 253 0;
#X obj 101 219 sel 2;
#X obj 404 52 < 1;
#X obj 179 251 outlet;
#X obj 293 28 spigot;
#X obj 420 153 r sampler1-slider-seq;
#X obj 420 180 < 1;
#X obj 179 29 spigot;
#X obj 404 25 r sampler4-slider-seq;
#X connect 0 0 7 0;
#X connect 0 0 12 0;
#X connect 1 0 18 0;
#X connect 3 0 14 0;
#X connect 3 2 2 0;
#X connect 4 0 15 0;
#X connect 5 0 3 0;
#X connect 6 0 3 0;
#X connect 7 0 8 0;
#X connect 7 1 9 0;
#X connect 8 0 5 1;
#X connect 9 0 5 1;
#X connect 10 0 6 1;
#X connect 11 0 6 1;
#X connect 12 0 10 0;
#X connect 12 1 11 0;
#X connect 13 0 15 1;
#X connect 15 0 6 0;
#X connect 16 0 17 0;
#X connect 17 0 18 1;
#X connect 18 0 5 0;
#X connect 19 0 13 0;
#X coords 0 -1 1 1 50 30 1 100 100;
#X restore 199 202 pd seqSel;
#X obj 273 261 prepend;
#X msg 442 230 mid;
#X msg 319 235 high;
#X msg 381 232 freq;
#X msg 474 230 low;
#X obj 82 238 WaveStepper;
#N canvas 2414 590 629 428 seqSel 0;
#X obj 105 114 hradio 12 1 0 3 empty empty empty 0 -8 0 10 -4032 -1
-1 1;
#X obj 262 119 * 100;
#X obj 179 86 unpack f f f f;
#X obj 293 0 r sampler4-seq;
#X obj 179 58 spigot;
#X obj 293 53 spigot;
#X obj 102 156 sel 1;
#X msg 85 181 1;
#X msg 129 190 0;
#X msg 84 244 1;
#X msg 128 253 0;
#X obj 101 219 sel 2;
#X obj 404 52 < 1;
#X obj 179 251 outlet;
#X obj 293 28 spigot;
#X obj 420 180 < 1;
#X obj 179 29 spigot;
#X obj 404 25 r sampler4-slider-seq;
#X obj 179 0 r sampler3-seq;
#X obj 420 153 r sampler3-slider-seq;
#X connect 0 0 6 0;
#X connect 0 0 11 0;
#X connect 2 0 13 0;
#X connect 2 2 1 0;
#X connect 3 0 14 0;
#X connect 4 0 2 0;
#X connect 5 0 2 0;
#X connect 6 0 7 0;
#X connect 6 1 8 0;
#X connect 7 0 4 1;
#X connect 8 0 4 1;
#X connect 9 0 5 1;
#X connect 10 0 5 1;
#X connect 11 0 9 0;
#X connect 11 1 10 0;
#X connect 12 0 14 1;
#X connect 14 0 5 0;
#X connect 15 0 16 1;
#X connect 16 0 4 0;
#X connect 17 0 12 0;
#X connect 18 0 16 0;
#X connect 19 0 15 0;
#X coords 0 -1 1 1 50 30 1 100 100;
#X restore 85 198 pd seqSel;
#X obj -169 177 slicer;
#X obj -169 154 r~ slicer1;
#X obj -523 -46 seq1 sampler1;
#X text 638 -73 Routing;
#X obj -208 88 hsl 60 15 0 4 0 0 empty empty empty -2 -8 0 10 -257985
-1 -1 0 1;
#X obj -464 160 hsl 60 15 0 4 0 0 empty empty empty -2 -8 0 10 -257985
-1 -1 0 1;
#N canvas 1983 316 859 432 graincloud 0;
#X obj 489 450 prepend buffer;
#X msg 499 425 array2;
#X obj 127 210 bng 15 250 50 0 empty empty empty 17 7 0 10 -262144
-1 -1;
#X obj -3 212 phasor~;
#X floatatom 53 154 5 0 0 0 - - -, f 5;
#X msg 332 242 grainsize \$1;
#X floatatom 344 213 5 0 0 0 - - -, f 5;
#X obj 30 91 sig~;
#X floatatom 30 64 5 0 0 0 - - -, f 5;
#X msg 462 220 posrnd \$1;
#X floatatom 469 189 5 0 0 0 - - -, f 5;
#X obj 70 255 s_graincloud;
#X msg 459 130 pitch \$1;
#X floatatom 233 159 5 0 0 0 - - -, f 5;
#X obj 13 140 +~;
#X msg 459 251 gap \$1;
#X floatatom 528 251 5 0 0 0 - - -, f 5;
#X msg 489 404 looper1;
#X msg 345 96 grainvoices 0;
#X msg 568 216 metroON \$1;
#X obj 187 156 tgl 15 0 empty empty empty 17 7 0 10 -262144 -1 -1 1
1;
#X obj 489 351 loadbang;
#X obj 113 114 hsl 50 15 -1 1 0 0 empty empty Speed -2 -8 0 10 -262144
-1 -1 2400 1;
#X obj 110 159 hsl 50 15 0 800 0 0 empty empty Size -2 -8 0 10 -262144
-1 -1 900 1;
#X obj 186 116 hsl 50 15 0 1 0 0 empty empty Randomize -2 -8 0 10 -262144
-1 -1 500 1;
#X text 230 142 Pitch;
#X obj 70 284 throw~ group6;
#X obj 168 284 throw~ group7;
#X obj 215 362 u_snapshot~;
#X obj 282 105 vsl 15 80 0 1 0 0 empty empty empty 0 -9 0 10 -4034
-1 -1 4500 1;
#X obj 299 312;
#X msg 480 282 amp \$1;
#X connect 0 0 11 3;
#X connect 1 0 0 0;
#X connect 2 0 11 2;
#X connect 3 0 11 1;
#X connect 4 0 3 0;
#X connect 5 0 11 3;
#X connect 6 0 5 0;
#X connect 7 0 14 0;
#X connect 8 0 7 0;
#X connect 9 0 11 3;
#X connect 10 0 9 0;
#X connect 11 0 26 0;
#X connect 11 1 27 0;
#X connect 11 1 28 0;
#X connect 12 0 11 3;
#X connect 13 0 12 0;
#X connect 14 0 11 1;
#X connect 15 0 11 3;
#X connect 16 0 15 0;
#X connect 17 0 0 0;
#X connect 18 0 11 3;
#X connect 19 0 11 3;
#X connect 20 0 19 0;
#X connect 21 0 17 0;
#X connect 22 0 3 0;
#X connect 23 0 6 0;
#X connect 24 0 10 0;
#X connect 29 0 31 0;
#X connect 31 0 11 3;
#X coords 0 -1 1 1 200 90 1 100 100;
#X restore 494 131 pd graincloud;
#N canvas 74 93 568 546 slicerControl 1;
#X obj 10 4 SJ2multipad;
#X restore 432 303 pd slicerControl;
#X obj -523 -119 seq1 control1;
#X obj -133 -50 seq1 sampler3;
#X obj 47 -105 seq1 control2;
#X obj 47 -59 seq1 sampler2;
#X obj -133 -96 seq1 control3;
#X obj 425 -176 seq1 looper;
#X obj -344 -57 seq1 sampler4;
#X obj -345 -96 seq1 control4;
#X obj -345 125 throw~ group2;
#X obj -133 117 throw~ group3;
#X obj 47 114 throw~ group3;
#X obj 47 92 *~;
#X obj -59 95 hsl 60 15 0 2 0 1 empty empty empty -2 -8 0 10 -4034
-1 -1 3800 1;
#X obj -11 146 *;
#X obj -17 116 t f f;
#X obj 149 98 hsl 60 15 0 2 0 1 empty empty empty -2 -8 0 10 -4034
-1 -1 3700 1;
#X obj 197 149 *;
#X obj 191 119 t f f;
#X obj -132 94 *~ 1;
#X obj -156 507 osc~ 444;
#X obj -397 532 throw~ group5;
#X obj 50 509 throw~ group6;
#X obj 151 509 throw~ group7;
#X obj -168 368 throw~ group6;
#X obj -65 369 throw~ group7;
#X connect 2 0 8 0;
#X connect 2 0 24 0;
#X connect 3 0 6 1;
#X connect 6 0 2 0;
#X connect 7 1 43 0;
#X connect 8 0 20 0;
#X connect 9 0 6 0;
#X connect 10 0 9 0;
#X connect 10 1 9 1;
#X connect 11 0 69 0;
#X connect 15 0 11 0;
#X connect 15 1 11 1;
#X connect 17 0 18 0;
#X connect 17 1 18 1;
#X connect 18 0 76 0;
#X connect 22 0 78 0;
#X connect 24 0 23 0;
#X connect 25 0 22 0;
#X connect 26 0 22 2;
#X connect 30 0 39 0;
#X connect 30 0 66 0;
#X connect 32 0 30 0;
#X connect 32 1 30 1;
#X connect 35 0 80 0;
#X connect 36 0 79 0;
#X connect 39 0 38 0;
#X connect 42 0 7 0;
#X connect 43 0 27 0;
#X connect 44 0 43 1;
#X connect 45 0 43 1;
#X connect 46 0 43 1;
#X connect 47 0 43 1;
#X connect 49 0 48 0;
#X connect 50 0 81 0;
#X connect 50 0 82 0;
#X connect 51 0 50 0;
#X connect 54 0 39 1;
#X connect 55 0 24 1;
#X connect 69 0 68 0;
#X connect 70 0 72 0;
#X connect 71 0 76 1;
#X connect 72 0 71 0;
#X connect 72 1 71 1;
#X connect 73 0 75 0;
#X connect 74 0 69 1;
#X connect 75 0 74 0;
#X connect 75 1 74 1;
#X connect 76 0 67 0;
