#N canvas 1431 104 928 999 10;
#X declare -path abstractions/;
#N canvas 65 54 1301 714 delset 0;
#X obj 103 119 nbx 5 14 0 100 0 0 empty empty empty 0 -8 0 10 -262144
-1 -1 0 256;
#X obj 170 119 nbx 5 14 -1e+37 1e+37 0 0 empty empty empty 0 -8 0 10
-262144 -1 -1 0 256;
#X obj 103 163 / 100;
#X obj 103 185 s fb;
#X obj 169 165 s del-time;
#N canvas 683 82 576 686 globalticks 0;
#X obj 412 393 s globalticks;
#X obj 45 57 unpack;
#X obj 45 271 s \$0-groove;
#X text 126 25 from xy field;
#X obj 45 246 * 0.25;
#X obj 45 25 r groove/BPM;
#X obj 311 227 midiout;
#X obj 202 130 select 0 1;
#X msg 202 164 252;
#X msg 239 164 250;
#X msg 311 157 248;
#X obj 311 127 metro 20.8333;
#X obj 386 100 expr (60000/$f1/24);
#X obj 411 189 counter;
#X obj 411 214 % 192;
#X floatatom 412 239 5 0 0 0 - - -, f 5;
#X obj 412 289 sel 0;
#X obj 412 311 bng 15 250 50 0 empty empty empty 17 7 0 10 -262144
-1 -1;
#X obj 329 52 r groove/BPM;
#X obj 329 74 unpack f f;
#N canvas 536 160 297 177 tick-tables 0;
#X obj 31 18 loadbang;
#N canvas 65 110 246 266 commontime 0;
#X obj 30 209 table \$0-commontime 256;
#X obj 31 175 tabwrite \$0-commontime;
#X obj 31 142 t f f;
#X obj 31 86 bng 15 250 50 0 empty empty empty 17 7 0 10 -262144 -1
-1;
#X obj 31 53 inlet;
#X obj 31 114 iterate 256;
#X connect 2 0 1 0;
#X connect 2 1 1 1;
#X connect 3 0 5 0;
#X connect 4 0 3 0;
#X connect 5 0 2 0;
#X restore 31 100 pd commontime;
#N canvas 748 50 413 471 sixquavers 0;
#X obj 27 38 inlet;
#X obj 27 66 bng 15 250 50 0 empty empty empty 17 7 0 10 -262144 -1
-1;
#X obj 27 272 tabwrite \$0-sixquavers;
#X obj 27 122 t b f;
#X obj 156 246 +;
#X obj 27 191 unpack;
#X obj 224 243 s \$0-sixquavers;
#X msg 224 215 arrayviewlistnew;
#X obj 171 221 * 12;
#X obj 27 245 +;
#X obj 42 220 * 16;
#X obj 224 272 table \$0-sixquavers 192;
#X msg 27 151 0 0 \, 1 1 \, 2 2 \, 4 3 \, 5 4 \, 6 5 \, 8 6 \, 9 7
\, 10 8 \, 12 9 \, 13 10 \, 14 11;
#X obj 27 364 hradio 15 1 0 3 empty empty empty 0 -8 0 10 -262144 -262144
-1 0;
#X obj 77 364 hradio 15 1 0 3 empty empty empty 0 -8 0 10 -262144 -262144
-1 0;
#X obj 126 364 hradio 15 1 0 3 empty empty empty 0 -8 0 10 -262144
-262144 -1 0;
#X obj 176 364 hradio 15 1 0 3 empty empty empty 0 -8 0 10 -262144
-262144 -1 0;
#X obj 28 391 hradio 15 1 0 1 empty empty empty 0 -8 0 10 -262144 -262144
-1 0;
#X obj 58 391 hradio 15 1 0 1 empty empty empty 0 -8 0 10 -262144 -262144
-1 0;
#X obj 77 391 hradio 15 1 0 1 empty empty empty 0 -8 0 10 -262144 -262144
-1 0;
#X obj 107 391 hradio 15 1 0 1 empty empty empty 0 -8 0 10 -262144
-262144 -1 0;
#X obj 127 391 hradio 15 1 0 1 empty empty empty 0 -8 0 10 -262144
-262144 -1 0;
#X obj 157 391 hradio 15 1 0 1 empty empty empty 0 -8 0 10 -262144
-262144 -1 0;
#X obj 176 391 hradio 15 1 0 1 empty empty empty 0 -8 0 10 -262144
-262144 -1 0;
#X obj 206 391 hradio 15 1 0 1 empty empty empty 0 -8 0 10 -262144
-262144 -1 0;
#X obj 28 417 hradio 15 1 0 1 empty empty empty 0 -8 0 10 -262144 -262144
-1 0;
#X obj 78 417 hradio 15 1 0 1 empty empty empty 0 -8 0 10 -262144 -262144
-1 0;
#X obj 127 416 hradio 15 1 0 1 empty empty empty 0 -8 0 10 -262144
-262144 -1 0;
#X obj 177 416 hradio 15 1 0 1 empty empty empty 0 -8 0 10 -262144
-262144 -1 0;
#X text 26 334 it is 12/16 really:;
#X text 245 361 semiquavers;
#X text 246 388 quavers;
#X text 247 415 beats;
#X obj 27 91 iterate 16;
#X connect 0 0 1 0;
#X connect 1 0 33 0;
#X connect 3 0 12 0;
#X connect 3 1 8 0;
#X connect 3 1 10 0;
#X connect 4 0 2 1;
#X connect 5 0 9 0;
#X connect 5 1 4 0;
#X connect 7 0 6 0;
#X connect 8 0 4 1;
#X connect 9 0 2 0;
#X connect 10 0 9 1;
#X connect 12 0 5 0;
#X connect 33 0 3 0;
#X restore 122 100 pd sixquavers;
#X connect 0 0 1 0;
#X connect 0 0 2 0;
#X restore 263 24 pd tick-tables;
#X obj 412 331 counter;
#X obj 412 355 % 192;
#X obj 412 265 % 6;
#X floatatom 482 350 5 0 0 0 - - -, f 5;
#X floatatom 316 364 5 0 0 0 - - -, f 5;
#X obj 235 62 loadbang;
#X msg 236 88 1;
#X obj 309 98 r \$0-metro-on;
#X connect 1 0 4 0;
#X connect 4 0 2 0;
#X connect 5 0 1 0;
#X connect 7 0 8 0;
#X connect 7 1 9 0;
#X connect 8 0 6 0;
#X connect 9 0 6 0;
#X connect 10 0 6 0;
#X connect 11 0 10 0;
#X connect 11 0 13 0;
#X connect 12 0 11 1;
#X connect 13 0 14 0;
#X connect 14 0 15 0;
#X connect 15 0 23 0;
#X connect 16 0 17 0;
#X connect 17 0 21 0;
#X connect 18 0 19 0;
#X connect 19 1 12 0;
#X connect 21 0 22 0;
#X connect 22 0 0 0;
#X connect 23 0 16 0;
#X connect 26 0 27 0;
#X connect 28 0 11 0;
#X connect 28 0 7 0;
#X restore 145 229 pd globalticks;
#X floatatom 336 143 5 0 0 0 - - -, f 5;
#X obj 336 236 pack;
#X obj 373 205 t b f;
#X floatatom 232 117 5 0 0 0 - - -, f 5;
#X obj 336 259 s groove/BPM;
#X msg 232 62 120;
#X obj 232 41 loadbang;
#X text 103 97 Feedback;
#X text 167 97 DelayTime;
#X text 230 97 BPM;
#X obj 25 91 adc~ 1;
#X obj 25 115 s~ input1;
#X obj 292 41 r \$0-bpm;
#X obj 268 118 tgl 15 0 \$0-metro-on empty Play -3 -7 0 10 -4034 -1
-1 1 1;
#X connect 0 0 2 0;
#X connect 1 0 4 0;
#X connect 2 0 3 0;
#X connect 6 0 7 0;
#X connect 7 0 10 0;
#X connect 8 0 7 0;
#X connect 8 1 7 1;
#X connect 9 0 8 0;
#X connect 11 0 9 0;
#X connect 12 0 11 0;
#X connect 16 0 17 0;
#X connect 18 0 9 0;
#X coords 0 -1 1 1 190 35 1 100 100;
#X restore -525 -166 pd delset;
#X obj -332 -151 declare -path abstractions/;
#X obj -443 519 dac~ 1 2;
#X obj -438 449 *~ 0.3;
#X obj -523 139 throw~ main;
#X obj -438 348 catch~ main;
#X obj -318 6 throw~ main;
#X floatatom -92 493 5 0 0 0 - - -, f 5;
#X obj -126 -111 grain-sampler cl_hihat/;
#X obj -126 14 throw~ main;
#X obj -51 454 e_del;
#X msg -7 422 dry 1;
#X obj 49 361 r groove/BPM;
#X obj 49 382 unpack f f;
#X msg 51 428 bpm \$1;
#X msg 118 430 deltime \$1;
#X floatatom 134 399 5 0 0 0 - - -, f 5;
#X obj -50 511 *~;
#X floatatom -9 490 5 0 0 0 - - -, f 5;
#X obj -49 -14 *~;
#X obj -49 14 throw~ del;
#X obj -242 -22 *~;
#X obj -242 6 throw~ del;
#X obj -351 120 *~;
#X obj -351 148 throw~ del;
#X floatatom -314 113 5 0 0 0 - - -, f 5;
#X floatatom -204 -33 5 0 0 0 - - -, f 5;
#X floatatom -21 -35 5 0 0 0 - - -, f 5;
#X obj -67 383 catch~ del;
#X obj -525 63 clip~ -0.5 0.5;
#X floatatom -485 -10 5 0 0 0 - - -, f 5;
#X obj -118 -19 *~;
#X floatatom -90 -22 5 0 0 0 - - -, f 5;
#X floatatom 165 301 5 0 0 0 - - -, f 5;
#X msg 155 362 feedback \$1;
#X obj -518 105 *~ 0.3;
#X floatatom -459 107 5 0 0 0 - - -, f 5;
#N canvas 649 165 654 585 pattern 0;
#X obj 101 69 moses 8;
#X obj 140 91 % 8;
#X obj 101 41 % 16;
#X obj 247 76 r \$0-update-grid;
#N canvas 299 387 450 300 mod 0;
#X msg 30 120 mod \$1;
#X obj 30 -16 inlet;
#X msg 91 196 mod \$1;
#X obj 163 109 % 8;
#X obj 30 147 outlet;
#X obj 91 216 outlet;
#X obj 30 32 moses 9;
#X obj 91 32 moses 8;
#X obj 130 68 sel 16;
#X msg 130 108 8;
#X msg 91 106 0;
#X obj 91 70 t b;
#X obj 49 94 8;
#X obj 49 68 t b;
#X connect 0 0 4 0;
#X connect 1 0 6 0;
#X connect 1 0 7 0;
#X connect 2 0 5 0;
#X connect 3 0 2 0;
#X connect 6 0 0 0;
#X connect 6 1 13 0;
#X connect 7 0 11 0;
#X connect 7 1 8 0;
#X connect 8 0 9 0;
#X connect 8 1 3 0;
#X connect 9 0 2 0;
#X connect 10 0 2 0;
#X connect 11 0 10 0;
#X connect 12 0 0 0;
#X connect 13 0 12 0;
#X restore 179 63 pd mod;
#X obj 179 41 r \$0-beat-speed-mod;
#X obj 101 344 spigot;
#X obj 101 364 s \$0-beat-pitch-seq;
#X obj 101 121 g_grid8x12 shit 0;
#X obj 196 121 g_grid8x12 shit 1;
#X obj 196 324 spigot;
#X obj 196 344 s \$0-beat-pitch-seq;
#X obj 297 121 table shit 32;
#X obj 298 170 s \$0-update-grid;
#X msg 298 143 update;
#X obj 101 384 r \$0-beat-pitch-seq;
#X obj 100 414 + 60;
#X obj 100 546 noteout;
#X msg 217 533;
#X obj 100 513 makenote;
#X msg 127 465 100;
#X obj 100 438 t f b;
#X msg 188 523 3;
#X msg 329 471 500;
#X obj 329 437 loadbang;
#N canvas 65 97 650 686 ticks 0;
#X obj 16 179 outlet;
#X obj 73 179 outlet;
#X obj 243 180 outlet;
#X text 15 199 beats;
#X text 70 200 quavers;
#X text 240 200 s.quavers;
#X obj 318 181 outlet;
#X text 317 200 roll;
#N canvas 314 480 244 247 rollswitch 0;
#X obj 24 9 inlet;
#X obj 24 184 outlet;
#X obj 137 183 outlet;
#X obj 24 157 spigot;
#X obj 57 67 & 31;
#X obj 24 37 t f f;
#X msg 57 124 1;
#X text 24 -10 ticks;
#X text 23 205 ticks;
#X text 133 203 roll bang;
#X text 163 38 from settings;
#X obj 100 98 sel 30;
#X msg 100 124 0;
#X floatatom 100 156 5 0 0 0 - - -, f 5;
#X obj 57 99 sel 0;
#X obj 78 38 r \$0-rollmask;
#X obj 133 67 r \$0-rollselect;
#X connect 0 0 5 0;
#X connect 3 0 1 0;
#X connect 4 0 11 0;
#X connect 4 0 14 0;
#X connect 5 0 3 0;
#X connect 5 1 4 0;
#X connect 6 0 3 1;
#X connect 6 0 13 0;
#X connect 11 0 12 0;
#X connect 11 0 2 0;
#X connect 12 0 13 0;
#X connect 12 0 3 1;
#X connect 14 0 6 0;
#X connect 15 0 4 1;
#X connect 16 0 11 1;
#X restore 243 137 pd rollswitch;
#X obj 139 -43 r ticklength;
#X obj 126 -71 r slicycle\$1-tickdelay;
#X obj 16 32 pipe 0;
#X obj 139 -13 t b f;
#X obj 126 15 *;
#X floatatom 126 44 5 0 0 0 - - -, f 5;
#N canvas 65 110 179 265 tick-offset 0;
#X obj 30 23 inlet;
#X obj 30 231 outlet;
#X obj 77 49 >> 1;
#X obj 92 106 f \$1;
#X obj 92 134 - 1;
#X obj 92 79 loadbang;
#X floatatom 106 159 5 0 0 0 - - -, f 5;
#X obj 77 158 *;
#X obj 30 175 +;
#X obj 30 203 & 255;
#X obj 77 24 r \$0-rollcycle;
#X connect 0 0 8 0;
#X connect 2 0 7 0;
#X connect 3 0 4 0;
#X connect 4 0 6 0;
#X connect 4 0 7 1;
#X connect 5 0 3 0;
#X connect 7 0 8 1;
#X connect 8 0 9 0;
#X connect 9 0 1 0;
#X connect 10 0 2 0;
#X restore 16 -29 pd tick-offset;
#X floatatom 71 49 5 0 0 0 - - -, f 5;
#N canvas 0 50 180 280 is-even 0;
#X obj 34 38 inlet;
#X obj 34 118 sel 0;
#X obj 34 144 f;
#X obj 34 67 t f f;
#X obj 34 93 & 1;
#X obj 34 172 >> 1;
#X obj 34 212 outlet;
#X connect 0 0 3 0;
#X connect 1 0 2 0;
#X connect 2 0 5 0;
#X connect 3 0 4 0;
#X connect 3 1 2 1;
#X connect 4 0 1 0;
#X connect 5 0 6 0;
#X restore 16 90 pd is-even;
#N canvas 0 50 180 280 is-beat 0;
#X obj 34 38 inlet;
#X obj 34 118 sel 0;
#X obj 34 144 f;
#X obj 34 67 t f f;
#X obj 34 93 & 1;
#X obj 34 172 >> 1;
#X obj 34 212 outlet;
#X connect 0 0 3 0;
#X connect 1 0 2 0;
#X connect 2 0 5 0;
#X connect 3 0 4 0;
#X connect 3 1 2 1;
#X connect 4 0 1 0;
#X connect 5 0 6 0;
#X restore 16 123 pd is-beat;
#X floatatom 93 107 5 0 0 0 - - -, f 5;
#X floatatom 93 140 5 0 0 0 - - -, f 5;
#N canvas 912 455 375 310 internalClock 0;
#N canvas 617 219 442 492 generate-ticks 0;
#X obj 32 98 tgl 15 1 empty empty empty 17 7 0 10 -262144 -1 -1 0 1
;
#X obj 32 146 metro;
#N canvas 988 94 208 259 milliseconds 0;
#X obj 19 18 inlet;
#X obj 19 199 outlet;
#X obj 19 46 t b f;
#X obj 19 170 /;
#X msg 69 77 15000;
#X msg 113 77 20000;
#X obj 19 147 f 15000;
#X obj 69 103 t b f;
#X obj 69 43 sel 0 1;
#X text 19 225 1/16 or 1/12 note;
#X obj 69 17 r \$0-timesignature;
#X floatatom 96 135 5 0 0 0 - - -, f 5;
#X connect 0 0 2 0;
#X connect 2 0 6 0;
#X connect 2 1 3 1;
#X connect 3 0 1 0;
#X connect 4 0 7 0;
#X connect 5 0 7 0;
#X connect 6 0 3 0;
#X connect 7 0 6 0;
#X connect 7 1 11 0;
#X connect 7 1 6 1;
#X connect 8 0 4 0;
#X connect 8 1 5 0;
#X connect 10 0 8 0;
#X restore 59 107 pd milliseconds;
#X obj 32 193 +;
#X obj 32 416 outlet;
#X obj 32 170 f 1;
#N canvas 304 500 316 238 ticksort 0;
#X obj 27 60 t f f;
#X obj 27 27 inlet;
#X obj 27 117 pack;
#X text 25 6 ticks;
#X obj 27 88 & 3;
#X obj 27 143 route 0 1 2 3;
#X obj 27 175 outlet;
#X obj 73 175 outlet;
#X obj 122 175 outlet;
#X obj 170 175 outlet;
#X obj 242 175 outlet;
#X text 28 199 first;
#X text 72 199 second;
#X text 121 199 third;
#X text 168 199 fourth;
#X text 240 198 index;
#X connect 0 0 4 0;
#X connect 0 1 2 1;
#X connect 1 0 0 0;
#X connect 2 0 5 0;
#X connect 4 0 2 0;
#X connect 4 0 10 0;
#X connect 5 0 6 0;
#X connect 5 1 7 0;
#X connect 5 2 8 0;
#X connect 5 3 9 0;
#X restore 32 359 pd ticksort;
#N canvas 576 493 515 163 tickdelays 0;
#X obj 21 15 inlet;
#X obj 21 88 pipe;
#X obj 202 125 outlet;
#X obj 106 14 inlet;
#X obj 106 87 pipe;
#X obj 202 15 inlet;
#X obj 202 88 pipe;
#X obj 287 15 inlet;
#X obj 287 88 pipe;
#N canvas 698 484 303 226 sambagroove 0;
#X obj 32 7 r ticklength;
#X obj 181 28 sel 1;
#X msg 181 56 0;
#X obj 32 30 t b f;
#X obj 19 69 *;
#X obj 19 98 spigot;
#X obj 141 28 t b f;
#X obj 19 -17 r \$0-groove;
#X obj 141 -18 r \$0-groovetype;
#X obj 19 164 s \$0-tickdelay0;
#X obj 35 131 s \$0-tickdelay1;
#X obj 181 125 s \$0-tickdelay2;
#X obj 195 94 s \$0-tickdelay3;
#X connect 0 0 3 0;
#X connect 1 0 2 0;
#X connect 2 0 11 0;
#X connect 2 0 12 0;
#X connect 3 0 4 0;
#X connect 3 1 4 1;
#X connect 4 0 5 0;
#X connect 5 0 9 0;
#X connect 5 0 10 0;
#X connect 6 0 4 0;
#X connect 6 1 5 1;
#X connect 7 0 4 0;
#X connect 8 0 1 0;
#X connect 8 0 6 0;
#X restore 385 93 pd sambagroove;
#N canvas 823 242 346 186 tripletgroove 0;
#X obj 37 15 r ticklength;
#X msg 213 65 0;
#X obj 37 38 t b f;
#X obj 24 77 *;
#X obj 24 106 spigot;
#X obj 146 36 t b f;
#X obj 213 36 sel 0;
#X obj 173 65 == 0;
#X obj 24 -10 r \$0-groove;
#X obj 146 -10 r \$0-groovetype;
#X obj 24 153 s \$0-tickdelay1;
#X obj 44 131 s \$0-tickdelay3;
#X obj 213 134 s \$0-tickdelay0;
#X obj 225 101 s \$0-tickdelay2;
#X connect 0 0 2 0;
#X connect 1 0 12 0;
#X connect 1 0 13 0;
#X connect 2 0 3 0;
#X connect 2 1 3 1;
#X connect 3 0 4 0;
#X connect 4 0 10 0;
#X connect 4 0 11 0;
#X connect 5 0 3 0;
#X connect 5 1 7 0;
#X connect 6 0 1 0;
#X connect 7 0 4 1;
#X connect 8 0 3 0;
#X connect 9 0 5 0;
#X connect 9 0 6 0;
#X restore 386 21 pd tripletgroove;
#X floatatom 56 89 5 0 0 0 - - -, f 5;
#X floatatom 141 89 5 0 0 0 - - -, f 5;
#X floatatom 234 88 5 0 0 0 - - -, f 5;
#X floatatom 320 89 5 0 0 0 - - -, f 5;
#X obj 42 39 r \$0-tickdelay0;
#X obj 127 61 r \$0-tickdelay1;
#X obj 223 38 r \$0-tickdelay2;
#X obj 308 61 r \$0-tickdelay3;
#X connect 0 0 1 0;
#X connect 1 0 2 0;
#X connect 3 0 4 0;
#X connect 4 0 2 0;
#X connect 5 0 6 0;
#X connect 6 0 2 0;
#X connect 7 0 8 0;
#X connect 8 0 2 0;
#X connect 15 0 1 1;
#X connect 15 0 11 0;
#X connect 16 0 4 1;
#X connect 16 0 12 0;
#X connect 17 0 6 1;
#X connect 17 0 13 0;
#X connect 18 0 8 1;
#X connect 18 0 14 0;
#X restore 32 390 pd tickdelays;
#X obj 64 193 r \$0-set-one;
#X text 119 389 << groove;
#X obj 32 330 tabread \$0-commontime;
#X obj 264 225 symbol \$0-sixquavers;
#X msg 245 250 set \$1;
#X obj 245 202 symbol \$0-commontime;
#X obj 245 146 r \$0-timesignature;
#X obj 32 248 mod 192;
#X obj 59 15 inlet;
#X obj 245 175 sel 0 1;
#X text 68 41 if zero \, set metro off;
#X text 99 16 BPM;
#X obj 32 67 change;
#X obj 32 42 != 0;
#X msg 64 218 0;
#X obj 69 149 s \$0-ticklength;
#X floatatom 176 420 5 0 0 0 - - -, f 5;
#X msg 167 333 0;
#X obj 167 310 sel 191;
#X obj 228 23 r \$0-reset;
#X msg 228 66 1;
#X obj 228 42 t b b;
#X obj 32 272 t f f;
#X obj 167 289 spigot;
#X obj 143 192 r \$0-clockMode;
#X obj 143 239 sel 1 2 3;
#X msg 143 272 1;
#X msg 200 270 0;
#X obj 316 30 r \$0-clockMode;
#X msg 316 75 1;
#X obj 316 54 sel 3 1;
#X msg 351 76 0;
#X obj 229 293 r \$0-repeat-length;
#X connect 0 0 1 0;
#X connect 1 0 5 0;
#X connect 2 0 1 1;
#X connect 2 0 23 0;
#X connect 3 0 15 0;
#X connect 5 0 3 0;
#X connect 6 0 7 0;
#X connect 6 1 7 1;
#X connect 6 2 7 2;
#X connect 6 3 7 3;
#X connect 7 0 4 0;
#X connect 7 0 24 0;
#X connect 8 0 22 0;
#X connect 10 0 6 0;
#X connect 11 0 12 0;
#X connect 12 0 10 0;
#X connect 13 0 12 0;
#X connect 14 0 17 0;
#X connect 15 0 3 1;
#X connect 15 0 30 0;
#X connect 16 0 2 0;
#X connect 16 0 21 0;
#X connect 17 0 13 0;
#X connect 17 1 11 0;
#X connect 17 2 13 0;
#X connect 20 0 0 0;
#X connect 21 0 20 0;
#X connect 22 0 15 0;
#X connect 25 0 0 0;
#X connect 26 0 25 0;
#X connect 27 0 29 0;
#X connect 28 0 0 0;
#X connect 29 0 28 0;
#X connect 29 1 22 0;
#X connect 30 0 10 0;
#X connect 30 1 31 0;
#X connect 31 0 26 0;
#X connect 32 0 33 0;
#X connect 33 0 34 0;
#X connect 33 1 35 0;
#X connect 33 2 35 0;
#X connect 34 0 31 1;
#X connect 35 0 31 1;
#X connect 36 0 38 0;
#X connect 37 0 0 0;
#X connect 38 0 37 0;
#X connect 38 1 39 0;
#X connect 39 0 0 0;
#X connect 40 0 26 1;
#X restore 78 152 pd generate-ticks;
#N canvas 542 150 297 177 tick-tables 0;
#X obj 31 18 loadbang;
#N canvas 0 50 246 266 commontime 0;
#X obj 30 209 table \$0-commontime 256;
#X obj 31 175 tabwrite \$0-commontime;
#X obj 31 142 t f f;
#X obj 31 86 bng 15 250 50 0 empty empty empty 17 7 0 10 -262144 -1
-1;
#X obj 31 53 inlet;
#X obj 31 114 iterate 256;
#X connect 2 0 1 0;
#X connect 2 1 1 1;
#X connect 3 0 5 0;
#X connect 4 0 3 0;
#X connect 5 0 2 0;
#X restore 31 100 pd commontime;
#N canvas 748 50 413 471 sixquavers 0;
#X obj 27 38 inlet;
#X obj 27 66 bng 15 250 50 0 empty empty empty 17 7 0 10 -262144 -1
-1;
#X obj 27 272 tabwrite \$0-sixquavers;
#X obj 27 122 t b f;
#X obj 156 246 +;
#X obj 27 191 unpack;
#X obj 224 243 s \$0-sixquavers;
#X msg 224 215 arrayviewlistnew;
#X obj 171 221 * 12;
#X obj 27 245 +;
#X obj 42 220 * 16;
#X obj 224 272 table \$0-sixquavers 192;
#X msg 27 151 0 0 \, 1 1 \, 2 2 \, 4 3 \, 5 4 \, 6 5 \, 8 6 \, 9 7
\, 10 8 \, 12 9 \, 13 10 \, 14 11;
#X obj 27 364 hradio 15 1 0 3 empty empty empty 0 -8 0 10 -262144 -262144
-1 0;
#X obj 77 364 hradio 15 1 0 3 empty empty empty 0 -8 0 10 -262144 -262144
-1 0;
#X obj 126 364 hradio 15 1 0 3 empty empty empty 0 -8 0 10 -262144
-262144 -1 0;
#X obj 176 364 hradio 15 1 0 3 empty empty empty 0 -8 0 10 -262144
-262144 -1 0;
#X obj 28 391 hradio 15 1 0 1 empty empty empty 0 -8 0 10 -262144 -262144
-1 0;
#X obj 58 391 hradio 15 1 0 1 empty empty empty 0 -8 0 10 -262144 -262144
-1 0;
#X obj 77 391 hradio 15 1 0 1 empty empty empty 0 -8 0 10 -262144 -262144
-1 0;
#X obj 107 391 hradio 15 1 0 1 empty empty empty 0 -8 0 10 -262144
-262144 -1 0;
#X obj 127 391 hradio 15 1 0 1 empty empty empty 0 -8 0 10 -262144
-262144 -1 0;
#X obj 157 391 hradio 15 1 0 1 empty empty empty 0 -8 0 10 -262144
-262144 -1 0;
#X obj 176 391 hradio 15 1 0 1 empty empty empty 0 -8 0 10 -262144
-262144 -1 0;
#X obj 206 391 hradio 15 1 0 1 empty empty empty 0 -8 0 10 -262144
-262144 -1 0;
#X obj 28 417 hradio 15 1 0 1 empty empty empty 0 -8 0 10 -262144 -262144
-1 0;
#X obj 78 417 hradio 15 1 0 1 empty empty empty 0 -8 0 10 -262144 -262144
-1 0;
#X obj 127 416 hradio 15 1 0 1 empty empty empty 0 -8 0 10 -262144
-262144 -1 0;
#X obj 177 416 hradio 15 1 0 1 empty empty empty 0 -8 0 10 -262144
-262144 -1 0;
#X text 26 334 it is 12/16 really:;
#X text 245 361 semiquavers;
#X text 246 388 quavers;
#X text 247 415 beats;
#X obj 27 91 iterate 16;
#X connect 0 0 1 0;
#X connect 1 0 33 0;
#X connect 3 0 12 0;
#X connect 3 1 8 0;
#X connect 3 1 10 0;
#X connect 4 0 2 1;
#X connect 5 0 9 0;
#X connect 5 1 4 0;
#X connect 7 0 6 0;
#X connect 8 0 4 1;
#X connect 9 0 2 0;
#X connect 10 0 9 1;
#X connect 12 0 5 0;
#X connect 33 0 3 0;
#X restore 122 100 pd sixquavers;
#X connect 0 0 1 0;
#X connect 0 0 2 0;
#X restore 263 24 pd tick-tables;
#X obj 45 271 s \$0-groove;
#X obj 45 246 * 0.25;
#X obj 78 85 r \$0-BPM;
#X obj 78 221 s \$0-internal-clock;
#X connect 0 0 5 0;
#X connect 3 0 2 0;
#X connect 4 0 0 0;
#X restore 284 -70 pd internalClock;
#X obj 226 -43 r \$0-ticklength;
#X obj 16 -181 r globalticks;
#X floatatom 222 16 5 0 0 0 - - -, f 5;
#X connect 8 0 2 0;
#X connect 8 1 6 0;
#X connect 9 0 12 0;
#X connect 9 0 24 0;
#X connect 10 0 13 0;
#X connect 11 0 16 0;
#X connect 11 0 17 0;
#X connect 11 0 2 0;
#X connect 12 0 13 0;
#X connect 12 1 13 1;
#X connect 13 0 11 1;
#X connect 13 0 14 0;
#X connect 15 0 11 0;
#X connect 17 0 18 0;
#X connect 17 0 1 0;
#X connect 17 0 19 0;
#X connect 18 0 0 0;
#X connect 18 0 20 0;
#X connect 22 0 12 0;
#X connect 23 0 15 0;
#X restore 298 191 pd ticks;
#X floatatom 250 445 5 0 0 0 - - -, f 5;
#X text 107 100 Dark Energy Link;
#X connect 0 0 8 0;
#X connect 0 1 1 0;
#X connect 1 0 9 0;
#X connect 2 0 0 0;
#X connect 3 0 8 0;
#X connect 3 0 9 0;
#X connect 4 0 8 0;
#X connect 4 1 9 0;
#X connect 5 0 4 0;
#X connect 5 0 2 1;
#X connect 6 0 7 0;
#X connect 8 0 6 0;
#X connect 8 1 6 1;
#X connect 9 0 10 0;
#X connect 9 1 10 1;
#X connect 10 0 11 0;
#X connect 14 0 13 0;
#X connect 15 0 16 0;
#X connect 16 0 21 0;
#X connect 19 0 17 0;
#X connect 19 1 17 1;
#X connect 20 0 19 1;
#X connect 21 0 19 0;
#X connect 21 1 20 0;
#X connect 22 0 17 2;
#X connect 23 0 19 2;
#X connect 24 0 23 0;
#X connect 24 0 22 0;
#X connect 25 2 2 0;
#X connect 26 0 19 2;
#X coords 0 -1 1 1 193 180 2 100 100;
#X restore 566 -125 pd pattern;
#X floatatom -392 401 5 0 0 0 - - -, f 5;
#N canvas 65 81 1301 687 loopstation 0;
#X msg -226 560 rec \$1;
#X obj -226 528 tgl 15 0 empty empty empty 17 7 0 10 -262144 -1 -1
0 1;
#X obj -289 623 Loopstation;
#X msg -177 561 ovd \$1;
#X obj -177 530 tgl 15 0 empty empty empty 17 7 0 10 -262144 -1 -1
0 1;
#X msg -128 562 speed \$1;
#X msg 158 572 reset;
#X msg 213 572 report;
#X msg -23 571 juggle \$1;
#X msg 50 570 play \$1;
#X obj 50 523 tgl 15 0 empty empty empty 17 7 0 10 -262144 -1 -1 0
1;
#X msg -23 524 0.5;
#X msg 12 524 0.1;
#X msg 106 570 vol \$1;
#X floatatom 106 525 5 0 0 0 - - -, f 5;
#X obj -226 666 route pos0 pos1;
#X floatatom -226 695 5 0 0 0 - - -, f 5;
#X floatatom -180 697 5 0 0 0 - - -, f 5;
#X obj 158 482 loadbang;
#X obj -101 662 route length;
#X obj -101 708 u_mstobpm;
#N canvas 0 50 450 300 (subpatch) 0;
#X array juggle 8 float 3;
#A 0 0.778553 0.335697 0.657125 0.314268 0.57141 0.678553 0.635703
0.571418;
#X coords 0 1 7 -0 200 140 1 0 0;
#X restore 102 125 graph;
#X obj -288 727 throw~ main;
#X obj -288 507 adc~ 1;
#N canvas 787 102 450 300 juggler 0;
#X obj 129 -35 r \$0-beat;
#X obj 264 -35 r \$0-squaver;
#X obj 190 -35 r \$0-quaver;
#X obj 129 43 % 8;
#X obj 129 3 spigot;
#X obj 190 3 spigot;
#X obj 264 3 spigot;
#N canvas 65 102 650 686 ticks 0;
#X obj 16 179 outlet;
#X obj 73 179 outlet;
#X obj 243 180 outlet;
#X text 15 199 beats;
#X text 70 200 quavers;
#X text 240 200 s.quavers;
#X obj 318 181 outlet;
#X text 317 200 roll;
#N canvas 314 480 244 247 rollswitch 0;
#X obj 24 9 inlet;
#X obj 24 184 outlet;
#X obj 137 183 outlet;
#X obj 24 157 spigot;
#X obj 57 67 & 31;
#X obj 24 37 t f f;
#X msg 57 124 1;
#X text 24 -10 ticks;
#X text 23 205 ticks;
#X text 133 203 roll bang;
#X text 163 38 from settings;
#X obj 100 98 sel 30;
#X msg 100 124 0;
#X floatatom 100 156 5 0 0 0 - - -, f 5;
#X obj 57 99 sel 0;
#X obj 78 38 r \$0-rollmask;
#X obj 133 67 r \$0-rollselect;
#X connect 0 0 5 0;
#X connect 3 0 1 0;
#X connect 4 0 11 0;
#X connect 4 0 14 0;
#X connect 5 0 3 0;
#X connect 5 1 4 0;
#X connect 6 0 3 1;
#X connect 6 0 13 0;
#X connect 11 0 12 0;
#X connect 11 0 2 0;
#X connect 12 0 13 0;
#X connect 12 0 3 1;
#X connect 14 0 6 0;
#X connect 15 0 4 1;
#X connect 16 0 11 1;
#X restore 243 137 pd rollswitch;
#X obj 139 -43 r ticklength;
#X obj 126 -71 r slicycle\$1-tickdelay;
#X obj 16 32 pipe 0;
#X obj 139 -13 t b f;
#X obj 126 15 *;
#X floatatom 126 44 5 0 0 0 - - -, f 5;
#N canvas 65 110 179 265 tick-offset 0;
#X obj 30 23 inlet;
#X obj 30 231 outlet;
#X obj 77 49 >> 1;
#X obj 92 106 f \$1;
#X obj 92 134 - 1;
#X obj 92 79 loadbang;
#X floatatom 106 159 5 0 0 0 - - -, f 5;
#X obj 77 158 *;
#X obj 30 175 +;
#X obj 30 203 & 255;
#X obj 77 24 r \$0-rollcycle;
#X connect 0 0 8 0;
#X connect 2 0 7 0;
#X connect 3 0 4 0;
#X connect 4 0 6 0;
#X connect 4 0 7 1;
#X connect 5 0 3 0;
#X connect 7 0 8 1;
#X connect 8 0 9 0;
#X connect 9 0 1 0;
#X connect 10 0 2 0;
#X restore 16 -29 pd tick-offset;
#X floatatom 71 49 5 0 0 0 - - -, f 5;
#N canvas 0 50 180 280 is-even 0;
#X obj 34 38 inlet;
#X obj 34 118 sel 0;
#X obj 34 144 f;
#X obj 34 67 t f f;
#X obj 34 93 & 1;
#X obj 34 172 >> 1;
#X obj 34 212 outlet;
#X connect 0 0 3 0;
#X connect 1 0 2 0;
#X connect 2 0 5 0;
#X connect 3 0 4 0;
#X connect 3 1 2 1;
#X connect 4 0 1 0;
#X connect 5 0 6 0;
#X restore 16 90 pd is-even;
#N canvas 0 50 180 280 is-beat 0;
#X obj 34 38 inlet;
#X obj 34 118 sel 0;
#X obj 34 144 f;
#X obj 34 67 t f f;
#X obj 34 93 & 1;
#X obj 34 172 >> 1;
#X obj 34 212 outlet;
#X connect 0 0 3 0;
#X connect 1 0 2 0;
#X connect 2 0 5 0;
#X connect 3 0 4 0;
#X connect 3 1 2 1;
#X connect 4 0 1 0;
#X connect 5 0 6 0;
#X restore 16 123 pd is-beat;
#X floatatom 93 107 5 0 0 0 - - -, f 5;
#X floatatom 93 140 5 0 0 0 - - -, f 5;
#X obj 226 -43 r \$0-ticklength;
#X obj 16 -181 r globalticks;
#X floatatom 222 16 5 0 0 0 - - -, f 5;
#X connect 8 0 2 0;
#X connect 8 1 6 0;
#X connect 9 0 12 0;
#X connect 9 0 23 0;
#X connect 10 0 13 0;
#X connect 11 0 16 0;
#X connect 11 0 17 0;
#X connect 11 0 2 0;
#X connect 12 0 13 0;
#X connect 12 1 13 1;
#X connect 13 0 11 1;
#X connect 13 0 14 0;
#X connect 15 0 11 0;
#X connect 17 0 18 0;
#X connect 17 0 1 0;
#X connect 17 0 19 0;
#X connect 18 0 0 0;
#X connect 18 0 20 0;
#X connect 21 0 12 0;
#X connect 22 0 15 0;
#X restore 130 -99 pd ticks;
#X obj 130 -61 s \$0-beat;
#X obj 191 -60 s \$0-quaver;
#X obj 264 -60 s \$0-squaver;
#X obj 357 -13 == 0;
#X obj 388 -14 == 1;
#X obj 420 -13 == 2;
#X obj 357 -36 t f f f;
#X obj 353 -137 inlet;
#X obj 129 85 tabread juggle;
#X obj 129 64 spigot;
#X obj 202 44 r;
#X obj 129 114 s \$0-juggler;
#X floatatom 78 87 5 0 0 0 - - -, f 5;
#X floatatom 61 58 5 0 0 0 - - -, f 5;
#X obj 275 89 tgl 15 0 empty empty empty 17 7 0 10 -262144 -1 -1 0
1;
#X obj 238 56 r \$0-juggler-loop0;
#X connect 0 0 4 0;
#X connect 1 0 6 0;
#X connect 2 0 5 0;
#X connect 3 0 17 0;
#X connect 4 0 3 0;
#X connect 4 0 21 0;
#X connect 5 0 3 0;
#X connect 6 0 3 0;
#X connect 7 0 8 0;
#X connect 7 1 9 0;
#X connect 7 2 10 0;
#X connect 11 0 4 1;
#X connect 12 0 5 1;
#X connect 13 0 6 1;
#X connect 14 0 11 0;
#X connect 14 1 12 0;
#X connect 14 2 13 0;
#X connect 15 0 14 0;
#X connect 16 0 19 0;
#X connect 17 0 16 0;
#X connect 17 0 20 0;
#X connect 23 0 17 1;
#X restore 239 327 pd juggler;
#N canvas 324 92 450 300 timing 0;
#X obj 123 138 tof/pmenu;
#X msg 191 97 add beat eigth sixteen;
#X obj 103 102 bng 15 250 50 0 empty empty empty 17 7 0 10 -262144
-1 -1;
#X obj 119 102 bng 15 250 50 0 empty empty empty 17 7 0 10 -262144
-1 -1;
#X obj 134 102 bng 15 250 50 0 empty empty empty 17 7 0 10 -262144
-1 -1;
#X obj 150 102 bng 15 250 50 0 empty empty empty 17 7 0 10 -262144
-1 -1;
#X symbolatom 103 102 10 0 0 0 - - -, f 10;
#X obj 191 75 loadbang;
#X obj 124 164 outlet;
#X connect 0 0 8 0;
#X connect 0 1 6 0;
#X connect 1 0 0 0;
#X connect 2 0 0 0;
#X connect 3 0 0 0;
#X connect 4 0 0 0;
#X connect 5 0 0 0;
#X connect 7 0 1 0;
#X coords 0 -1 1 1 70 20 2 100 100;
#X restore 239 301 pd timing;
#X obj 106 324 hsl 128 20 -0 2 0 1 \$0-vol-loop0 empty empty -2 -8
0 10 -262144 -1 -1 7300 1;
#X floatatom 105 326 5 0 0 0 - - -, f 5;
#X obj 105 301 hsl 128 20 -2 2 0 1 \$0-speed-loop0 empty empty -2 -8
0 10 -262144 -1 -1 8100 1;
#X floatatom 109 303 5 0 0 0 - - -, f 5;
#X obj 102 272 tgl 25 0 \$0-rec-loop0 empty empty 17 7 0 10 -258113
-1 -1 0 1;
#X obj 132 272 tgl 25 0 \$0-ovd-loop0 empty empty 17 7 0 10 -257985
-1 -1 0 1;
#X obj 162 272 tgl 25 0 \$0-play-loop0 empty empty 17 7 0 10 -4034
-1 -1 0 1;
#X obj -177 480 r \$0-ovd-loop0;
#X obj -226 458 r \$0-rec-loop0;
#X obj -128 502 r \$0-speed-loop0;
#X obj 107 428 r \$0-vol-loop0;
#X obj -101 769 s \$0-bpm;
#X obj 192 272 tgl 25 0 \$0-juggler-loop0 empty empty 17 7 0 10 -159808
-1 -1 0 1;
#X obj 223 272 tgl 25 0 \$0-bpmsend-loop0 empty empty 17 7 0 10 -4032
-1 -1 0 1;
#X obj -39 714 r \$0-bpmsend-loop0;
#X obj -101 744 spigot;
#X obj -24 462 r \$0-juggler;
#X floatatom 22 432 5 0 0 0 - - -, f 5;
#X obj 59 380 r \$0-play-loop0;
#X msg -122 412 buffer 0;
#X connect 0 0 2 1;
#X connect 1 0 0 0;
#X connect 2 0 22 0;
#X connect 2 1 15 0;
#X connect 2 1 19 0;
#X connect 3 0 2 1;
#X connect 4 0 3 0;
#X connect 5 0 2 1;
#X connect 6 0 2 1;
#X connect 7 0 2 1;
#X connect 8 0 2 1;
#X connect 9 0 2 1;
#X connect 10 0 9 0;
#X connect 11 0 8 0;
#X connect 12 0 8 0;
#X connect 13 0 2 1;
#X connect 14 0 13 0;
#X connect 15 0 16 0;
#X connect 15 1 17 0;
#X connect 18 0 6 0;
#X connect 19 0 20 0;
#X connect 20 0 41 0;
#X connect 23 0 2 0;
#X connect 25 0 24 0;
#X connect 26 0 27 0;
#X connect 28 0 29 0;
#X connect 33 0 4 0;
#X connect 34 0 1 0;
#X connect 35 0 5 0;
#X connect 36 0 14 0;
#X connect 40 0 41 1;
#X connect 41 0 37 0;
#X connect 42 0 8 0;
#X connect 42 0 43 0;
#X connect 44 0 10 0;
#X connect 45 0 2 1;
#X coords 0 -1 1 1 212 248 1 100 100;
#X restore 71 -116 pd loopstation;
#X obj 315 -117 slicer 0;
#X obj 323 92 throw~ main-L;
#X obj 411 91 throw~ main-R;
#X obj -513 225 catch~ main-L;
#X obj -412 224 catch~ main-R;
#X obj -385 452 *~ 0.3;
#X obj 322 -151 adc~ 1;
#X obj -523 -112 sampler kicks/;
#X obj -524 0 *~ 1;
#X obj -318 -111 sampler cl_hihat;
#X obj -237 60 *~;
#X floatatom -199 49 5 0 0 0 - - -, f 5;
#X obj -237 88 throw~ rev;
#X obj -238 280 catch~ rev;
#X obj -248 464 *~ 1;
#X obj -215 466 *~ 1;
#X obj -252 362 rev3~ 90 98;
#X obj 385 211 seq1 mutti;
#X obj 382 279 r mutti-event-seq;
#X floatatom 395 328 5 0 0 0 - - -, f 5;
#X obj 399 375 sel 2 3;
#X obj 373 432 bng 15 250 50 0 empty empty empty 17 7 0 10 -262144
-1 -1;
#X obj 424 447 bng 15 250 50 0 empty empty empty 17 7 0 10 -262144
-1 -1;
#X obj 646 287 r mutti-pitch-seq;
#X floatatom 643 314 5 0 0 0 - - -, f 5;
#X obj 686 379 r mutti-toggle-seq;
#X floatatom 686 415 5 0 0 0 - - -, f 5;
#X floatatom 619 514 5 0 0 0 - - -, f 5;
#X obj 619 478 r mutti-slider-seq;
#X obj -235 142 *~;
#X floatatom -197 131 5 0 0 0 - - -, f 5;
#X obj -235 170 throw~ rev;
#X connect 3 0 2 0;
#X connect 3 0 2 1;
#X connect 5 0 3 0;
#X connect 7 0 54 1;
#X connect 7 0 55 1;
#X connect 8 0 19 0;
#X connect 8 0 31 0;
#X connect 10 0 17 0;
#X connect 11 0 10 2;
#X connect 12 0 13 0;
#X connect 13 1 14 0;
#X connect 14 0 10 2;
#X connect 15 0 10 2;
#X connect 16 0 15 0;
#X connect 17 0 2 0;
#X connect 17 0 2 1;
#X connect 18 0 17 1;
#X connect 19 0 20 0;
#X connect 21 0 22 0;
#X connect 23 0 24 0;
#X connect 25 0 23 1;
#X connect 26 0 21 1;
#X connect 27 0 19 1;
#X connect 28 0 10 0;
#X connect 29 0 35 0;
#X connect 30 0 48 1;
#X connect 31 0 9 0;
#X connect 32 0 31 1;
#X connect 33 0 34 0;
#X connect 34 0 10 2;
#X connect 35 0 4 0;
#X connect 35 0 23 0;
#X connect 35 0 69 0;
#X connect 36 0 35 1;
#X connect 38 0 3 1;
#X connect 38 0 45 1;
#X connect 40 0 41 0;
#X connect 40 1 42 0;
#X connect 43 0 3 0;
#X connect 44 0 45 0;
#X connect 45 0 2 1;
#X connect 46 0 40 0;
#X connect 47 0 48 0;
#X connect 48 0 29 0;
#X connect 49 0 6 0;
#X connect 49 0 21 0;
#X connect 49 0 50 0;
#X connect 50 0 52 0;
#X connect 51 0 50 1;
#X connect 53 0 56 0;
#X connect 53 0 56 1;
#X connect 54 0 2 0;
#X connect 55 0 2 1;
#X connect 56 0 54 0;
#X connect 56 1 55 0;
#X connect 58 0 59 0;
#X connect 59 0 60 0;
#X connect 60 0 61 0;
#X connect 60 1 62 0;
#X connect 63 0 64 0;
#X connect 65 0 66 0;
#X connect 68 0 67 0;
#X connect 69 0 71 0;
#X connect 70 0 69 1;
