#N canvas 261 332 1066 498 10;
#X obj 147 84 table grid1 16;
#X obj 40 85 g_grid8x8 grid1 0;
#N canvas 718 371 450 381 updateLaunchpad 1;
#X obj 41 42 inlet;
#X obj -116 223 tabread grid1;
#X obj -150 152 iterate;
#X obj -124 375 spigot;
#X msg -150 127 8;
#X obj -141 204 + 8;
#X obj -89 289 f;
#X obj -59 290 + 1;
#X obj -116 251 t f b;
#X obj -89 317 == 0;
#X obj -73 402 spigot;
#X obj -151 439 pack f f f;
#X obj -150 180 t f f f;
#X msg -151 469 /led \$1 \$2 \$3 0 0;
#X obj -14 292 % 2;
#X obj -103 496 s oscSend;
#X obj -124 405 + 1;
#X obj 148 171 iterate;
#X msg 148 139 8;
#X obj 175 250 iterate;
#X obj 148 195 t f b;
#X msg 175 226 8;
#X obj 149 306 f;
#X obj 175 276 t b f;
#X obj 157 338 pack f f;
#X obj 201 307 + 1;
#X msg 136 397 /led \$1 \$2 0 0;
#X obj 41 96 t b b;
#X connect 0 0 27 0;
#X connect 1 0 8 0;
#X connect 2 0 12 0;
#X connect 3 0 16 0;
#X connect 4 0 2 0;
#X connect 5 0 1 0;
#X connect 6 0 7 0;
#X connect 6 0 9 0;
#X connect 6 0 10 1;
#X connect 7 0 14 0;
#X connect 8 0 10 0;
#X connect 8 0 3 0;
#X connect 8 1 6 0;
#X connect 9 0 3 1;
#X connect 10 0 11 2;
#X connect 11 0 13 0;
#X connect 12 0 11 0;
#X connect 12 1 5 0;
#X connect 12 2 1 0;
#X connect 13 0 15 0;
#X connect 14 0 6 1;
#X connect 16 0 11 1;
#X connect 17 0 20 0;
#X connect 18 0 17 0;
#X connect 19 0 23 0;
#X connect 20 0 22 1;
#X connect 20 1 21 0;
#X connect 21 0 19 0;
#X connect 22 0 24 0;
#X connect 23 0 22 0;
#X connect 23 1 25 0;
#X connect 24 0 26 0;
#X connect 25 0 24 1;
#X connect 26 0 15 0;
#X connect 27 0 4 0;
#X connect 27 1 18 0;
#X restore 485 85 pd updateLaunchpad;
#X obj 485 64 bng 15 250 50 0 empty empty empty 17 7 0 10 -262144 -1
-1;
#N canvas 992 82 927 998 buttonPress 0;
#X obj 71 -18 r oscReceive;
#X obj 71 17 route /but;
#X obj 70 43 unpack f f f;
#X obj 70 131 spigot;
#X obj 150 93 t f f;
#X obj 104 175 spigot;
#X obj 69 262 tabread grid1;
#X floatatom 120 220 5 0 0 0 - - -;
#X obj 69 213 t f f;
#X obj 69 410 spigot;
#X obj 96 324 f;
#X obj 126 325 + 1;
#X obj 69 286 t f b;
#X obj 96 352 == 0;
#X obj 172 327 % 2;
#X obj 42 181 t f f;
#X floatatom 42 441 5 0 0 0 - - -;
#X obj 42 563 tabwrite grid1;
#X obj 86 240 + 8;
#X obj -70 24 r oscReceive;
#X obj -70 59 route /but;
#X obj -71 85 unpack f f f;
#X obj -71 173 spigot;
#X obj 9 135 t f f;
#X obj -37 217 spigot;
#X obj -89 309 tabwrite grid1;
#X floatatom -89 264 5 0 0 0 - - -;
#X obj -89 237 - 1;
#X obj -132 285 t b b f;
#X obj -132 415 s grid;
#X msg -132 394 update;
#X obj -108 339 s updateLP;
#X obj 212 508 f;
#X obj 244 508 + 1;
#X msg 237 483 0;
#X obj 100 521 tgl 15 0 empty empty empty 17 7 0 10 -262144 -1 -1 0
10;
#X obj 102 441 t f b;
#X floatatom 223 560 5 0 0 0 - - -;
#X obj 101 485 change;
#X obj 164 522 sel 1;
#X obj 237 458 del 250;
#X obj 42 520 + 8;
#X connect 0 0 1 0;
#X connect 1 0 2 0;
#X connect 2 0 3 0;
#X connect 2 1 5 0;
#X connect 2 2 4 0;
#X connect 3 0 15 0;
#X connect 4 0 3 1;
#X connect 4 1 5 1;
#X connect 5 0 7 0;
#X connect 6 0 12 0;
#X connect 8 0 6 0;
#X connect 8 1 18 0;
#X connect 9 0 36 0;
#X connect 10 0 11 0;
#X connect 10 0 13 0;
#X connect 11 0 14 0;
#X connect 12 0 9 0;
#X connect 12 1 10 0;
#X connect 13 0 9 1;
#X connect 14 0 10 1;
#X connect 15 0 16 0;
#X connect 15 1 8 0;
#X connect 16 0 41 0;
#X connect 18 0 6 0;
#X connect 19 0 20 0;
#X connect 20 0 21 0;
#X connect 21 0 22 0;
#X connect 21 1 24 0;
#X connect 21 2 23 0;
#X connect 22 0 25 1;
#X connect 23 0 22 1;
#X connect 23 1 24 1;
#X connect 24 0 27 0;
#X connect 26 0 28 0;
#X connect 27 0 26 0;
#X connect 28 0 30 0;
#X connect 28 1 31 0;
#X connect 28 2 25 0;
#X connect 30 0 29 0;
#X connect 32 0 33 0;
#X connect 32 0 37 0;
#X connect 32 0 39 0;
#X connect 33 0 32 1;
#X connect 34 0 32 1;
#X connect 35 0 17 1;
#X connect 36 0 38 0;
#X connect 36 1 32 0;
#X connect 36 1 40 0;
#X connect 38 0 35 0;
#X connect 39 0 35 0;
#X connect 40 0 34 0;
#X connect 41 0 17 0;
#X restore 330 91 pd buttonPress;
#X msg 100 20 update;
#X obj 190 25 r grid;
#X obj 538 56 r updateLP;
#X connect 3 0 2 0;
#X connect 5 0 1 0;
#X connect 6 0 1 0;
#X connect 7 0 2 0;
